<?xml version="1.0" encoding="utf-8" standalone="no"?>
<!DOCTYPE svg PUBLIC "-//W3C//DTD SVG 1.1//EN"
  "http://www.w3.org/Graphics/SVG/1.1/DTD/svg11.dtd">
<svg height="576pt" version="1.1" viewBox="0 0 576 576" width="576pt" xmlns="http://www.w3.org/2000/svg" xmlns:xlink="http://www.w3.org/1999/xlink">
 <metadata>
  <rdf:RDF xmlns:cc="http://creativecommons.org/ns#" xmlns:dc="http://purl.org/dc/elements/1.1/" xmlns:rdf="http://www.w3.org/1999/02/22-rdf-syntax-ns#">
   <cc:Work>
    <dc:type rdf:resource="http://purl.org/dc/dcmitype/StillImage"/>
    <dc:date>2021-09-13T11:05:32.646122</dc:date>
    <dc:format>image/svg+xml</dc:format>
    <dc:creator>
     <cc:Agent>
      <dc:title>Matplotlib v3.4.3, https://matplotlib.org/</dc:title>
     </cc:Agent>
    </dc:creator>
   </cc:Work>
  </rdf:RDF>
 </metadata>
 <defs>
  <style type="text/css">*{stroke-linecap:butt;stroke-linejoin:round;}</style>
 </defs>
 <g id="figure_1">
  <g id="patch_1">
   <path d="M 0 576 
L 576 576 
L 576 0 
L 0 0 
z
" style="fill:#ffffff;"/>
  </g>
  <g id="axes_1">
   <g id="patch_2">
    <path d="M 72 512.64 
L 429.12 512.64 
L 429.12 69.12 
L 72 69.12 
z
" style="fill:#ffffff;"/>
   </g>
   <g id="PathCollection_1">
    <defs>
     <path d="M 0 3.535534 
C 0.937635 3.535534 1.836992 3.163008 2.5 2.5 
C 3.163008 1.836992 3.535534 0.937635 3.535534 0 
C 3.535534 -0.937635 3.163008 -1.836992 2.5 -2.5 
C 1.836992 -3.163008 0.937635 -3.535534 0 -3.535534 
C -0.937635 -3.535534 -1.836992 -3.163008 -2.5 -2.5 
C -3.163008 -1.836992 -3.535534 -0.937635 -3.535534 0 
C -3.535534 0.937635 -3.163008 1.836992 -2.5 2.5 
C -1.836992 3.163008 -0.937635 3.535534 0 3.535534 
z
" id="m2d66ad4bdd" style="stroke:#8000ff;"/>
    </defs>
    <g clip-path="url(#pb4cc7eff26)">
     <use style="fill:#8000ff;stroke:#8000ff;" x="239.072936" xlink:href="#m2d66ad4bdd" y="429.866689"/>
    </g>
   </g>
   <g id="PathCollection_2">
    <defs>
     <path d="M 0 3.535534 
C 0.937635 3.535534 1.836992 3.163008 2.5 2.5 
C 3.163008 1.836992 3.535534 0.937635 3.535534 0 
C 3.535534 -0.937635 3.163008 -1.836992 2.5 -2.5 
C 1.836992 -3.163008 0.937635 -3.535534 0 -3.535534 
C -0.937635 -3.535534 -1.836992 -3.163008 -2.5 -2.5 
C -3.163008 -1.836992 -3.535534 -0.937635 -3.535534 0 
C -3.535534 0.937635 -3.163008 1.836992 -2.5 2.5 
C -1.836992 3.163008 -0.937635 3.535534 0 3.535534 
z
" id="mc25ed7dab9" style="stroke:#780dff;"/>
    </defs>
    <g clip-path="url(#pb4cc7eff26)">
     <use style="fill:#780dff;stroke:#780dff;" x="367.526424" xlink:href="#mc25ed7dab9" y="430.869636"/>
    </g>
   </g>
   <g id="PathCollection_3">
    <defs>
     <path d="M 0 3.535534 
C 0.937635 3.535534 1.836992 3.163008 2.5 2.5 
C 3.163008 1.836992 3.535534 0.937635 3.535534 0 
C 3.535534 -0.937635 3.163008 -1.836992 2.5 -2.5 
C 1.836992 -3.163008 0.937635 -3.535534 0 -3.535534 
C -0.937635 -3.535534 -1.836992 -3.163008 -2.5 -2.5 
C -3.163008 -1.836992 -3.535534 -0.937635 -3.535534 0 
C -3.535534 0.937635 -3.163008 1.836992 -2.5 2.5 
C -1.836992 3.163008 -0.937635 3.535534 0 3.535534 
z
" id="mc58422c6b8" style="stroke:#6e1cff;"/>
    </defs>
    <g clip-path="url(#pb4cc7eff26)">
     <use style="fill:#6e1cff;stroke:#6e1cff;" x="126.338734" xlink:href="#mc58422c6b8" y="379.709061"/>
    </g>
   </g>
   <g id="PathCollection_4">
    <defs>
     <path d="M 0 3.535534 
C 0.937635 3.535534 1.836992 3.163008 2.5 2.5 
C 3.163008 1.836992 3.535534 0.937635 3.535534 0 
C 3.535534 -0.937635 3.163008 -1.836992 2.5 -2.5 
C 1.836992 -3.163008 0.937635 -3.535534 0 -3.535534 
C -0.937635 -3.535534 -1.836992 -3.163008 -2.5 -2.5 
C -3.163008 -1.836992 -3.535534 -0.937635 -3.535534 0 
C -3.535534 0.937635 -3.163008 1.836992 -2.5 2.5 
C -1.836992 3.163008 -0.937635 3.535534 0 3.535534 
z
" id="m1da8c665ca" style="stroke:#642cfe;"/>
    </defs>
    <g clip-path="url(#pb4cc7eff26)">
     <use style="fill:#642cfe;stroke:#642cfe;" x="310.322509" xlink:href="#m1da8c665ca" y="154.288511"/>
    </g>
   </g>
   <g id="PathCollection_5">
    <defs>
     <path d="M 0 3.535534 
C 0.937635 3.535534 1.836992 3.163008 2.5 2.5 
C 3.163008 1.836992 3.535534 0.937635 3.535534 0 
C 3.535534 -0.937635 3.163008 -1.836992 2.5 -2.5 
C 1.836992 -3.163008 0.937635 -3.535534 0 -3.535534 
C -0.937635 -3.535534 -1.836992 -3.163008 -2.5 -2.5 
C -3.163008 -1.836992 -3.535534 -0.937635 -3.535534 0 
C -3.535534 0.937635 -3.163008 1.836992 -2.5 2.5 
C -1.836992 3.163008 -0.937635 3.535534 0 3.535534 
z
" id="mf0f2ee485a" style="stroke:#5a3bfd;"/>
    </defs>
    <g clip-path="url(#pb4cc7eff26)">
     <use style="fill:#5a3bfd;stroke:#5a3bfd;" x="171.607479" xlink:href="#mf0f2ee485a" y="367.816876"/>
    </g>
   </g>
   <g id="PathCollection_6">
    <defs>
     <path d="M 0 3.535534 
C 0.937635 3.535534 1.836992 3.163008 2.5 2.5 
C 3.163008 1.836992 3.535534 0.937635 3.535534 0 
C 3.535534 -0.937635 3.163008 -1.836992 2.5 -2.5 
C 1.836992 -3.163008 0.937635 -3.535534 0 -3.535534 
C -0.937635 -3.535534 -1.836992 -3.163008 -2.5 -2.5 
C -3.163008 -1.836992 -3.535534 -0.937635 -3.535534 0 
C -3.535534 0.937635 -3.163008 1.836992 -2.5 2.5 
C -1.836992 3.163008 -0.937635 3.535534 0 3.535534 
z
" id="m4d90d9d454" style="stroke:#504afc;"/>
    </defs>
    <g clip-path="url(#pb4cc7eff26)">
     <use style="fill:#504afc;stroke:#504afc;" x="344.000115" xlink:href="#m4d90d9d454" y="453.816851"/>
    </g>
   </g>
   <g id="PathCollection_7">
    <defs>
     <path d="M 0 3.535534 
C 0.937635 3.535534 1.836992 3.163008 2.5 2.5 
C 3.163008 1.836992 3.535534 0.937635 3.535534 0 
C 3.535534 -0.937635 3.163008 -1.836992 2.5 -2.5 
C 1.836992 -3.163008 0.937635 -3.535534 0 -3.535534 
C -0.937635 -3.535534 -1.836992 -3.163008 -2.5 -2.5 
C -3.163008 -1.836992 -3.535534 -0.937635 -3.535534 0 
C -3.535534 0.937635 -3.163008 1.836992 -2.5 2.5 
C -1.836992 3.163008 -0.937635 3.535534 0 3.535534 
z
" id="m335af19716" style="stroke:#4856fb;"/>
    </defs>
    <g clip-path="url(#pb4cc7eff26)">
     <use style="fill:#4856fb;stroke:#4856fb;" x="378.11217" xlink:href="#m335af19716" y="471.221157"/>
    </g>
   </g>
   <g id="PathCollection_8">
    <defs>
     <path d="M 0 3.535534 
C 0.937635 3.535534 1.836992 3.163008 2.5 2.5 
C 3.163008 1.836992 3.535534 0.937635 3.535534 0 
C 3.535534 -0.937635 3.163008 -1.836992 2.5 -2.5 
C 1.836992 -3.163008 0.937635 -3.535534 0 -3.535534 
C -0.937635 -3.535534 -1.836992 -3.163008 -2.5 -2.5 
C -3.163008 -1.836992 -3.535534 -0.937635 -3.535534 0 
C -3.535534 0.937635 -3.163008 1.836992 -2.5 2.5 
C -1.836992 3.163008 -0.937635 3.535534 0 3.535534 
z
" id="maa8ea7a301" style="stroke:#3e65fa;"/>
    </defs>
    <g clip-path="url(#pb4cc7eff26)">
     <use style="fill:#3e65fa;stroke:#3e65fa;" x="124.786109" xlink:href="#maa8ea7a301" y="385.60289"/>
    </g>
   </g>
   <g id="PathCollection_9">
    <defs>
     <path d="M 0 3.535534 
C 0.937635 3.535534 1.836992 3.163008 2.5 2.5 
C 3.163008 1.836992 3.535534 0.937635 3.535534 0 
C 3.535534 -0.937635 3.163008 -1.836992 2.5 -2.5 
C 1.836992 -3.163008 0.937635 -3.535534 0 -3.535534 
C -0.937635 -3.535534 -1.836992 -3.163008 -2.5 -2.5 
C -3.163008 -1.836992 -3.535534 -0.937635 -3.535534 0 
C -3.535534 0.937635 -3.163008 1.836992 -2.5 2.5 
C -1.836992 3.163008 -0.937635 3.535534 0 3.535534 
z
" id="m9faa2222f6" style="stroke:#3473f8;"/>
    </defs>
    <g clip-path="url(#pb4cc7eff26)">
     <use style="fill:#3473f8;stroke:#3473f8;" x="143.334555" xlink:href="#m9faa2222f6" y="369.744081"/>
    </g>
   </g>
   <g id="PathCollection_10">
    <defs>
     <path d="M 0 3.535534 
C 0.937635 3.535534 1.836992 3.163008 2.5 2.5 
C 3.163008 1.836992 3.535534 0.937635 3.535534 0 
C 3.535534 -0.937635 3.163008 -1.836992 2.5 -2.5 
C 1.836992 -3.163008 0.937635 -3.535534 0 -3.535534 
C -0.937635 -3.535534 -1.836992 -3.163008 -2.5 -2.5 
C -3.163008 -1.836992 -3.535534 -0.937635 -3.535534 0 
C -3.535534 0.937635 -3.163008 1.836992 -2.5 2.5 
C -1.836992 3.163008 -0.937635 3.535534 0 3.535534 
z
" id="m32dedb936a" style="stroke:#2981f6;"/>
    </defs>
    <g clip-path="url(#pb4cc7eff26)">
     <use style="fill:#2981f6;stroke:#2981f6;" x="162.031451" xlink:href="#m32dedb936a" y="391.251065"/>
    </g>
   </g>
   <g id="PathCollection_11">
    <defs>
     <path d="M 0 3.535534 
C 0.937635 3.535534 1.836992 3.163008 2.5 2.5 
C 3.163008 1.836992 3.535534 0.937635 3.535534 0 
C 3.535534 -0.937635 3.163008 -1.836992 2.5 -2.5 
C 1.836992 -3.163008 0.937635 -3.535534 0 -3.535534 
C -0.937635 -3.535534 -1.836992 -3.163008 -2.5 -2.5 
C -3.163008 -1.836992 -3.535534 -0.937635 -3.535534 0 
C -3.535534 0.937635 -3.163008 1.836992 -2.5 2.5 
C -1.836992 3.163008 -0.937635 3.535534 0 3.535534 
z
" id="mea117856b1" style="stroke:#208ef4;"/>
    </defs>
    <g clip-path="url(#pb4cc7eff26)">
     <use style="fill:#208ef4;stroke:#208ef4;" x="361.383186" xlink:href="#mea117856b1" y="480.344231"/>
    </g>
   </g>
   <g id="PathCollection_12">
    <defs>
     <path d="M 0 3.535534 
C 0.937635 3.535534 1.836992 3.163008 2.5 2.5 
C 3.163008 1.836992 3.535534 0.937635 3.535534 0 
C 3.535534 -0.937635 3.163008 -1.836992 2.5 -2.5 
C 1.836992 -3.163008 0.937635 -3.535534 0 -3.535534 
C -0.937635 -3.535534 -1.836992 -3.163008 -2.5 -2.5 
C -3.163008 -1.836992 -3.535534 -0.937635 -3.535534 0 
C -3.535534 0.937635 -3.163008 1.836992 -2.5 2.5 
C -1.836992 3.163008 -0.937635 3.535534 0 3.535534 
z
" id="m2e177113d5" style="stroke:#169bf2;"/>
    </defs>
    <g clip-path="url(#pb4cc7eff26)">
     <use style="fill:#169bf2;stroke:#169bf2;" x="290.714294" xlink:href="#m2e177113d5" y="492.48"/>
    </g>
   </g>
   <g id="PathCollection_13">
    <defs>
     <path d="M 0 3.535534 
C 0.937635 3.535534 1.836992 3.163008 2.5 2.5 
C 3.163008 1.836992 3.535534 0.937635 3.535534 0 
C 3.535534 -0.937635 3.163008 -1.836992 2.5 -2.5 
C 1.836992 -3.163008 0.937635 -3.535534 0 -3.535534 
C -0.937635 -3.535534 -1.836992 -3.163008 -2.5 -2.5 
C -3.163008 -1.836992 -3.535534 -0.937635 -3.535534 0 
C -3.535534 0.937635 -3.163008 1.836992 -2.5 2.5 
C -1.836992 3.163008 -0.937635 3.535534 0 3.535534 
z
" id="m70bc5f162c" style="stroke:#0ea5ef;"/>
    </defs>
    <g clip-path="url(#pb4cc7eff26)">
     <use style="fill:#0ea5ef;stroke:#0ea5ef;" x="142.49602" xlink:href="#m70bc5f162c" y="425.436818"/>
    </g>
   </g>
   <g id="PathCollection_14">
    <defs>
     <path d="M 0 3.535534 
C 0.937635 3.535534 1.836992 3.163008 2.5 2.5 
C 3.163008 1.836992 3.535534 0.937635 3.535534 0 
C 3.535534 -0.937635 3.163008 -1.836992 2.5 -2.5 
C 1.836992 -3.163008 0.937635 -3.535534 0 -3.535534 
C -0.937635 -3.535534 -1.836992 -3.163008 -2.5 -2.5 
C -3.163008 -1.836992 -3.535534 -0.937635 -3.535534 0 
C -3.535534 0.937635 -3.163008 1.836992 -2.5 2.5 
C -1.836992 3.163008 -0.937635 3.535534 0 3.535534 
z
" id="m6bab9fbfe2" style="stroke:#04b0ed;"/>
    </defs>
    <g clip-path="url(#pb4cc7eff26)">
     <use style="fill:#04b0ed;stroke:#04b0ed;" x="164.764468" xlink:href="#m6bab9fbfe2" y="361.261033"/>
    </g>
   </g>
   <g id="PathCollection_15">
    <defs>
     <path d="M 0 3.535534 
C 0.937635 3.535534 1.836992 3.163008 2.5 2.5 
C 3.163008 1.836992 3.535534 0.937635 3.535534 0 
C 3.535534 -0.937635 3.163008 -1.836992 2.5 -2.5 
C 1.836992 -3.163008 0.937635 -3.535534 0 -3.535534 
C -0.937635 -3.535534 -1.836992 -3.163008 -2.5 -2.5 
C -3.163008 -1.836992 -3.535534 -0.937635 -3.535534 0 
C -3.535534 0.937635 -3.163008 1.836992 -2.5 2.5 
C -1.836992 3.163008 -0.937635 3.535534 0 3.535534 
z
" id="m851b6c3720" style="stroke:#07bbea;"/>
    </defs>
    <g clip-path="url(#pb4cc7eff26)">
     <use style="fill:#07bbea;stroke:#07bbea;" x="394.109152" xlink:href="#m851b6c3720" y="444.17202"/>
    </g>
   </g>
   <g id="PathCollection_16">
    <defs>
     <path d="M 0 3.535534 
C 0.937635 3.535534 1.836992 3.163008 2.5 2.5 
C 3.163008 1.836992 3.535534 0.937635 3.535534 0 
C 3.535534 -0.937635 3.163008 -1.836992 2.5 -2.5 
C 1.836992 -3.163008 0.937635 -3.535534 0 -3.535534 
C -0.937635 -3.535534 -1.836992 -3.163008 -2.5 -2.5 
C -3.163008 -1.836992 -3.535534 -0.937635 -3.535534 0 
C -3.535534 0.937635 -3.163008 1.836992 -2.5 2.5 
C -1.836992 3.163008 -0.937635 3.535534 0 3.535534 
z
" id="m738405a2f4" style="stroke:#10c6e6;"/>
    </defs>
    <g clip-path="url(#pb4cc7eff26)">
     <use style="fill:#10c6e6;stroke:#10c6e6;" x="328.060208" xlink:href="#m738405a2f4" y="457.79409"/>
    </g>
   </g>
   <g id="PathCollection_17">
    <defs>
     <path d="M 0 3.535534 
C 0.937635 3.535534 1.836992 3.163008 2.5 2.5 
C 3.163008 1.836992 3.535534 0.937635 3.535534 0 
C 3.535534 -0.937635 3.163008 -1.836992 2.5 -2.5 
C 1.836992 -3.163008 0.937635 -3.535534 0 -3.535534 
C -0.937635 -3.535534 -1.836992 -3.163008 -2.5 -2.5 
C -3.163008 -1.836992 -3.535534 -0.937635 -3.535534 0 
C -3.535534 0.937635 -3.163008 1.836992 -2.5 2.5 
C -1.836992 3.163008 -0.937635 3.535534 0 3.535534 
z
" id="m7a3e94788d" style="stroke:#1acfe3;"/>
    </defs>
    <g clip-path="url(#pb4cc7eff26)">
     <use style="fill:#1acfe3;stroke:#1acfe3;" x="184.022171" xlink:href="#m7a3e94788d" y="386.341438"/>
    </g>
   </g>
   <g id="PathCollection_18">
    <defs>
     <path d="M 0 3.535534 
C 0.937635 3.535534 1.836992 3.163008 2.5 2.5 
C 3.163008 1.836992 3.535534 0.937635 3.535534 0 
C 3.535534 -0.937635 3.163008 -1.836992 2.5 -2.5 
C 1.836992 -3.163008 0.937635 -3.535534 0 -3.535534 
C -0.937635 -3.535534 -1.836992 -3.163008 -2.5 -2.5 
C -3.163008 -1.836992 -3.535534 -0.937635 -3.535534 0 
C -3.535534 0.937635 -3.163008 1.836992 -2.5 2.5 
C -1.836992 3.163008 -0.937635 3.535534 0 3.535534 
z
" id="mc7ce150ddc" style="stroke:#24d8df;"/>
    </defs>
    <g clip-path="url(#pb4cc7eff26)">
     <use style="fill:#24d8df;stroke:#24d8df;" x="382.098826" xlink:href="#mc7ce150ddc" y="207.497412"/>
    </g>
   </g>
   <g id="PathCollection_19">
    <defs>
     <path d="M 0 3.535534 
C 0.937635 3.535534 1.836992 3.163008 2.5 2.5 
C 3.163008 1.836992 3.535534 0.937635 3.535534 0 
C 3.535534 -0.937635 3.163008 -1.836992 2.5 -2.5 
C 1.836992 -3.163008 0.937635 -3.535534 0 -3.535534 
C -0.937635 -3.535534 -1.836992 -3.163008 -2.5 -2.5 
C -3.163008 -1.836992 -3.535534 -0.937635 -3.535534 0 
C -3.535534 0.937635 -3.163008 1.836992 -2.5 2.5 
C -1.836992 3.163008 -0.937635 3.535534 0 3.535534 
z
" id="m46ad9d8654" style="stroke:#2ddedc;"/>
    </defs>
    <g clip-path="url(#pb4cc7eff26)">
     <use style="fill:#2ddedc;stroke:#2ddedc;" x="410.572263" xlink:href="#m46ad9d8654" y="489.411646"/>
    </g>
   </g>
   <g id="PathCollection_20">
    <defs>
     <path d="M 0 3.535534 
C 0.937635 3.535534 1.836992 3.163008 2.5 2.5 
C 3.163008 1.836992 3.535534 0.937635 3.535534 0 
C 3.535534 -0.937635 3.163008 -1.836992 2.5 -2.5 
C 1.836992 -3.163008 0.937635 -3.535534 0 -3.535534 
C -0.937635 -3.535534 -1.836992 -3.163008 -2.5 -2.5 
C -3.163008 -1.836992 -3.535534 -0.937635 -3.535534 0 
C -3.535534 0.937635 -3.163008 1.836992 -2.5 2.5 
C -1.836992 3.163008 -0.937635 3.535534 0 3.535534 
z
" id="m06fb422028" style="stroke:#37e6d8;"/>
    </defs>
    <g clip-path="url(#pb4cc7eff26)">
     <use style="fill:#37e6d8;stroke:#37e6d8;" x="141.399843" xlink:href="#m06fb422028" y="392.23216"/>
    </g>
   </g>
   <g id="PathCollection_21">
    <defs>
     <path d="M 0 3.535534 
C 0.937635 3.535534 1.836992 3.163008 2.5 2.5 
C 3.163008 1.836992 3.535534 0.937635 3.535534 0 
C 3.535534 -0.937635 3.163008 -1.836992 2.5 -2.5 
C 1.836992 -3.163008 0.937635 -3.535534 0 -3.535534 
C -0.937635 -3.535534 -1.836992 -3.163008 -2.5 -2.5 
C -3.163008 -1.836992 -3.535534 -0.937635 -3.535534 0 
C -3.535534 0.937635 -3.163008 1.836992 -2.5 2.5 
C -1.836992 3.163008 -0.937635 3.535534 0 3.535534 
z
" id="m2ff841a9ed" style="stroke:#40ecd4;"/>
    </defs>
    <g clip-path="url(#pb4cc7eff26)">
     <use style="fill:#40ecd4;stroke:#40ecd4;" x="152.309479" xlink:href="#m2ff841a9ed" y="373.491544"/>
    </g>
   </g>
   <g id="PathCollection_22">
    <defs>
     <path d="M 0 3.535534 
C 0.937635 3.535534 1.836992 3.163008 2.5 2.5 
C 3.163008 1.836992 3.535534 0.937635 3.535534 0 
C 3.535534 -0.937635 3.163008 -1.836992 2.5 -2.5 
C 1.836992 -3.163008 0.937635 -3.535534 0 -3.535534 
C -0.937635 -3.535534 -1.836992 -3.163008 -2.5 -2.5 
C -3.163008 -1.836992 -3.535534 -0.937635 -3.535534 0 
C -3.535534 0.937635 -3.163008 1.836992 -2.5 2.5 
C -1.836992 3.163008 -0.937635 3.535534 0 3.535534 
z
" id="mfa81a12efe" style="stroke:#4af2cf;"/>
    </defs>
    <g clip-path="url(#pb4cc7eff26)">
     <use style="fill:#4af2cf;stroke:#4af2cf;" x="88.232727" xlink:href="#mfa81a12efe" y="402.999355"/>
    </g>
   </g>
   <g id="PathCollection_23">
    <defs>
     <path d="M 0 3.535534 
C 0.937635 3.535534 1.836992 3.163008 2.5 2.5 
C 3.163008 1.836992 3.535534 0.937635 3.535534 0 
C 3.535534 -0.937635 3.163008 -1.836992 2.5 -2.5 
C 1.836992 -3.163008 0.937635 -3.535534 0 -3.535534 
C -0.937635 -3.535534 -1.836992 -3.163008 -2.5 -2.5 
C -3.163008 -1.836992 -3.535534 -0.937635 -3.535534 0 
C -3.535534 0.937635 -3.163008 1.836992 -2.5 2.5 
C -1.836992 3.163008 -0.937635 3.535534 0 3.535534 
z
" id="mdb531059aa" style="stroke:#54f6cb;"/>
    </defs>
    <g clip-path="url(#pb4cc7eff26)">
     <use style="fill:#54f6cb;stroke:#54f6cb;" x="384.279707" xlink:href="#mdb531059aa" y="486.09395"/>
    </g>
   </g>
   <g id="PathCollection_24">
    <defs>
     <path d="M 0 3.535534 
C 0.937635 3.535534 1.836992 3.163008 2.5 2.5 
C 3.163008 1.836992 3.535534 0.937635 3.535534 0 
C 3.535534 -0.937635 3.163008 -1.836992 2.5 -2.5 
C 1.836992 -3.163008 0.937635 -3.535534 0 -3.535534 
C -0.937635 -3.535534 -1.836992 -3.163008 -2.5 -2.5 
C -3.163008 -1.836992 -3.535534 -0.937635 -3.535534 0 
C -3.535534 0.937635 -3.163008 1.836992 -2.5 2.5 
C -1.836992 3.163008 -0.937635 3.535534 0 3.535534 
z
" id="mdaf51e17ed" style="stroke:#5efac6;"/>
    </defs>
    <g clip-path="url(#pb4cc7eff26)">
     <use style="fill:#5efac6;stroke:#5efac6;" x="163.604286" xlink:href="#mdaf51e17ed" y="369.396787"/>
    </g>
   </g>
   <g id="PathCollection_25">
    <defs>
     <path d="M 0 3.535534 
C 0.937635 3.535534 1.836992 3.163008 2.5 2.5 
C 3.163008 1.836992 3.535534 0.937635 3.535534 0 
C 3.535534 -0.937635 3.163008 -1.836992 2.5 -2.5 
C 1.836992 -3.163008 0.937635 -3.535534 0 -3.535534 
C -0.937635 -3.535534 -1.836992 -3.163008 -2.5 -2.5 
C -3.163008 -1.836992 -3.535534 -0.937635 -3.535534 0 
C -3.535534 0.937635 -3.163008 1.836992 -2.5 2.5 
C -1.836992 3.163008 -0.937635 3.535534 0 3.535534 
z
" id="m212c439d32" style="stroke:#66fcc2;"/>
    </defs>
    <g clip-path="url(#pb4cc7eff26)">
     <use style="fill:#66fcc2;stroke:#66fcc2;" x="201.572007" xlink:href="#m212c439d32" y="359.079622"/>
    </g>
   </g>
   <g id="PathCollection_26">
    <defs>
     <path d="M 0 3.535534 
C 0.937635 3.535534 1.836992 3.163008 2.5 2.5 
C 3.163008 1.836992 3.535534 0.937635 3.535534 0 
C 3.535534 -0.937635 3.163008 -1.836992 2.5 -2.5 
C 1.836992 -3.163008 0.937635 -3.535534 0 -3.535534 
C -0.937635 -3.535534 -1.836992 -3.163008 -2.5 -2.5 
C -3.163008 -1.836992 -3.535534 -0.937635 -3.535534 0 
C -3.535534 0.937635 -3.163008 1.836992 -2.5 2.5 
C -1.836992 3.163008 -0.937635 3.535534 0 3.535534 
z
" id="mc12aa8b536" style="stroke:#70febc;"/>
    </defs>
    <g clip-path="url(#pb4cc7eff26)">
     <use style="fill:#70febc;stroke:#70febc;" x="412.887273" xlink:href="#mc12aa8b536" y="412.983828"/>
    </g>
   </g>
   <g id="PathCollection_27">
    <defs>
     <path d="M 0 3.535534 
C 0.937635 3.535534 1.836992 3.163008 2.5 2.5 
C 3.163008 1.836992 3.535534 0.937635 3.535534 0 
C 3.535534 -0.937635 3.163008 -1.836992 2.5 -2.5 
C 1.836992 -3.163008 0.937635 -3.535534 0 -3.535534 
C -0.937635 -3.535534 -1.836992 -3.163008 -2.5 -2.5 
C -3.163008 -1.836992 -3.535534 -0.937635 -3.535534 0 
C -3.535534 0.937635 -3.163008 1.836992 -2.5 2.5 
C -1.836992 3.163008 -0.937635 3.535534 0 3.535534 
z
" id="m796ef9ae96" style="stroke:#7affb7;"/>
    </defs>
    <g clip-path="url(#pb4cc7eff26)">
     <use style="fill:#7affb7;stroke:#7affb7;" x="122.904806" xlink:href="#m796ef9ae96" y="391.166594"/>
    </g>
   </g>
   <g id="PathCollection_28">
    <defs>
     <path d="M 0 3.535534 
C 0.937635 3.535534 1.836992 3.163008 2.5 2.5 
C 3.163008 1.836992 3.535534 0.937635 3.535534 0 
C 3.535534 -0.937635 3.163008 -1.836992 2.5 -2.5 
C 1.836992 -3.163008 0.937635 -3.535534 0 -3.535534 
C -0.937635 -3.535534 -1.836992 -3.163008 -2.5 -2.5 
C -3.163008 -1.836992 -3.535534 -0.937635 -3.535534 0 
C -3.535534 0.937635 -3.163008 1.836992 -2.5 2.5 
C -1.836992 3.163008 -0.937635 3.535534 0 3.535534 
z
" id="m3a9b571f0e" style="stroke:#84ffb2;"/>
    </defs>
    <g clip-path="url(#pb4cc7eff26)">
     <use style="fill:#84ffb2;stroke:#84ffb2;" x="158.493388" xlink:href="#m3a9b571f0e" y="384.097491"/>
    </g>
   </g>
   <g id="PathCollection_29">
    <defs>
     <path d="M 0 3.535534 
C 0.937635 3.535534 1.836992 3.163008 2.5 2.5 
C 3.163008 1.836992 3.535534 0.937635 3.535534 0 
C 3.535534 -0.937635 3.163008 -1.836992 2.5 -2.5 
C 1.836992 -3.163008 0.937635 -3.535534 0 -3.535534 
C -0.937635 -3.535534 -1.836992 -3.163008 -2.5 -2.5 
C -3.163008 -1.836992 -3.535534 -0.937635 -3.535534 0 
C -3.535534 0.937635 -3.163008 1.836992 -2.5 2.5 
C -1.836992 3.163008 -0.937635 3.535534 0 3.535534 
z
" id="mc30badf611" style="stroke:#8efeac;"/>
    </defs>
    <g clip-path="url(#pb4cc7eff26)">
     <use style="fill:#8efeac;stroke:#8efeac;" x="161.037586" xlink:href="#mc30badf611" y="380.062853"/>
    </g>
   </g>
   <g id="PathCollection_30">
    <defs>
     <path d="M 0 3.535534 
C 0.937635 3.535534 1.836992 3.163008 2.5 2.5 
C 3.163008 1.836992 3.535534 0.937635 3.535534 0 
C 3.535534 -0.937635 3.163008 -1.836992 2.5 -2.5 
C 1.836992 -3.163008 0.937635 -3.535534 0 -3.535534 
C -0.937635 -3.535534 -1.836992 -3.163008 -2.5 -2.5 
C -3.163008 -1.836992 -3.535534 -0.937635 -3.535534 0 
C -3.535534 0.937635 -3.163008 1.836992 -2.5 2.5 
C -1.836992 3.163008 -0.937635 3.535534 0 3.535534 
z
" id="m641e280b01" style="stroke:#99fca6;"/>
    </defs>
    <g clip-path="url(#pb4cc7eff26)">
     <use style="fill:#99fca6;stroke:#99fca6;" x="117.172395" xlink:href="#m641e280b01" y="396.027731"/>
    </g>
   </g>
   <g id="PathCollection_31">
    <defs>
     <path d="M 0 3.535534 
C 0.937635 3.535534 1.836992 3.163008 2.5 2.5 
C 3.163008 1.836992 3.535534 0.937635 3.535534 0 
C 3.535534 -0.937635 3.163008 -1.836992 2.5 -2.5 
C 1.836992 -3.163008 0.937635 -3.535534 0 -3.535534 
C -0.937635 -3.535534 -1.836992 -3.163008 -2.5 -2.5 
C -3.163008 -1.836992 -3.535534 -0.937635 -3.535534 0 
C -3.535534 0.937635 -3.163008 1.836992 -2.5 2.5 
C -1.836992 3.163008 -0.937635 3.535534 0 3.535534 
z
" id="m8ba10c3f02" style="stroke:#a0faa1;"/>
    </defs>
    <g clip-path="url(#pb4cc7eff26)">
     <use style="fill:#a0faa1;stroke:#a0faa1;" x="186.425502" xlink:href="#m8ba10c3f02" y="379.093877"/>
    </g>
   </g>
   <g id="PathCollection_32">
    <defs>
     <path d="M 0 3.535534 
C 0.937635 3.535534 1.836992 3.163008 2.5 2.5 
C 3.163008 1.836992 3.535534 0.937635 3.535534 0 
C 3.535534 -0.937635 3.163008 -1.836992 2.5 -2.5 
C 1.836992 -3.163008 0.937635 -3.535534 0 -3.535534 
C -0.937635 -3.535534 -1.836992 -3.163008 -2.5 -2.5 
C -3.163008 -1.836992 -3.535534 -0.937635 -3.535534 0 
C -3.535534 0.937635 -3.163008 1.836992 -2.5 2.5 
C -1.836992 3.163008 -0.937635 3.535534 0 3.535534 
z
" id="md3558d27fd" style="stroke:#abf69b;"/>
    </defs>
    <g clip-path="url(#pb4cc7eff26)">
     <use style="fill:#abf69b;stroke:#abf69b;" x="383.855244" xlink:href="#md3558d27fd" y="123.001248"/>
    </g>
   </g>
   <g id="PathCollection_33">
    <defs>
     <path d="M 0 3.535534 
C 0.937635 3.535534 1.836992 3.163008 2.5 2.5 
C 3.163008 1.836992 3.535534 0.937635 3.535534 0 
C 3.535534 -0.937635 3.163008 -1.836992 2.5 -2.5 
C 1.836992 -3.163008 0.937635 -3.535534 0 -3.535534 
C -0.937635 -3.535534 -1.836992 -3.163008 -2.5 -2.5 
C -3.163008 -1.836992 -3.535534 -0.937635 -3.535534 0 
C -3.535534 0.937635 -3.163008 1.836992 -2.5 2.5 
C -1.836992 3.163008 -0.937635 3.535534 0 3.535534 
z
" id="m55c30d6bdd" style="stroke:#b4f295;"/>
    </defs>
    <g clip-path="url(#pb4cc7eff26)">
     <use style="fill:#b4f295;stroke:#b4f295;" x="215.55433" xlink:href="#m55c30d6bdd" y="365.482246"/>
    </g>
   </g>
   <g id="PathCollection_34">
    <defs>
     <path d="M 0 3.535534 
C 0.937635 3.535534 1.836992 3.163008 2.5 2.5 
C 3.163008 1.836992 3.535534 0.937635 3.535534 0 
C 3.535534 -0.937635 3.163008 -1.836992 2.5 -2.5 
C 1.836992 -3.163008 0.937635 -3.535534 0 -3.535534 
C -0.937635 -3.535534 -1.836992 -3.163008 -2.5 -2.5 
C -3.163008 -1.836992 -3.535534 -0.937635 -3.535534 0 
C -3.535534 0.937635 -3.163008 1.836992 -2.5 2.5 
C -1.836992 3.163008 -0.937635 3.535534 0 3.535534 
z
" id="m09e1f5f534" style="stroke:#beec8e;"/>
    </defs>
    <g clip-path="url(#pb4cc7eff26)">
     <use style="fill:#beec8e;stroke:#beec8e;" x="133.331444" xlink:href="#m09e1f5f534" y="385.932289"/>
    </g>
   </g>
   <g id="PathCollection_35">
    <defs>
     <path d="M 0 3.535534 
C 0.937635 3.535534 1.836992 3.163008 2.5 2.5 
C 3.163008 1.836992 3.535534 0.937635 3.535534 0 
C 3.535534 -0.937635 3.163008 -1.836992 2.5 -2.5 
C 1.836992 -3.163008 0.937635 -3.535534 0 -3.535534 
C -0.937635 -3.535534 -1.836992 -3.163008 -2.5 -2.5 
C -3.163008 -1.836992 -3.535534 -0.937635 -3.535534 0 
C -3.535534 0.937635 -3.163008 1.836992 -2.5 2.5 
C -1.836992 3.163008 -0.937635 3.535534 0 3.535534 
z
" id="mcf7515277f" style="stroke:#c8e688;"/>
    </defs>
    <g clip-path="url(#pb4cc7eff26)">
     <use style="fill:#c8e688;stroke:#c8e688;" x="385.926874" xlink:href="#mcf7515277f" y="450.997794"/>
    </g>
   </g>
   <g id="PathCollection_36">
    <defs>
     <path d="M 0 3.535534 
C 0.937635 3.535534 1.836992 3.163008 2.5 2.5 
C 3.163008 1.836992 3.535534 0.937635 3.535534 0 
C 3.535534 -0.937635 3.163008 -1.836992 2.5 -2.5 
C 1.836992 -3.163008 0.937635 -3.535534 0 -3.535534 
C -0.937635 -3.535534 -1.836992 -3.163008 -2.5 -2.5 
C -3.163008 -1.836992 -3.535534 -0.937635 -3.535534 0 
C -3.535534 0.937635 -3.163008 1.836992 -2.5 2.5 
C -1.836992 3.163008 -0.937635 3.535534 0 3.535534 
z
" id="ma1695294d8" style="stroke:#d2de81;"/>
    </defs>
    <g clip-path="url(#pb4cc7eff26)">
     <use style="fill:#d2de81;stroke:#d2de81;" x="152.100808" xlink:href="#ma1695294d8" y="378.761544"/>
    </g>
   </g>
   <g id="PathCollection_37">
    <defs>
     <path d="M 0 3.535534 
C 0.937635 3.535534 1.836992 3.163008 2.5 2.5 
C 3.163008 1.836992 3.535534 0.937635 3.535534 0 
C 3.535534 -0.937635 3.163008 -1.836992 2.5 -2.5 
C 1.836992 -3.163008 0.937635 -3.535534 0 -3.535534 
C -0.937635 -3.535534 -1.836992 -3.163008 -2.5 -2.5 
C -3.163008 -1.836992 -3.535534 -0.937635 -3.535534 0 
C -3.535534 0.937635 -3.163008 1.836992 -2.5 2.5 
C -1.836992 3.163008 -0.937635 3.535534 0 3.535534 
z
" id="m2282971543" style="stroke:#dbd87b;"/>
    </defs>
    <g clip-path="url(#pb4cc7eff26)">
     <use style="fill:#dbd87b;stroke:#dbd87b;" x="323.831107" xlink:href="#m2282971543" y="480.416108"/>
    </g>
   </g>
   <g id="PathCollection_38">
    <defs>
     <path d="M 0 3.535534 
C 0.937635 3.535534 1.836992 3.163008 2.5 2.5 
C 3.163008 1.836992 3.535534 0.937635 3.535534 0 
C 3.535534 -0.937635 3.163008 -1.836992 2.5 -2.5 
C 1.836992 -3.163008 0.937635 -3.535534 0 -3.535534 
C -0.937635 -3.535534 -1.836992 -3.163008 -2.5 -2.5 
C -3.163008 -1.836992 -3.535534 -0.937635 -3.535534 0 
C -3.535534 0.937635 -3.163008 1.836992 -2.5 2.5 
C -1.836992 3.163008 -0.937635 3.535534 0 3.535534 
z
" id="m42ab04d034" style="stroke:#e4cf74;"/>
    </defs>
    <g clip-path="url(#pb4cc7eff26)">
     <use style="fill:#e4cf74;stroke:#e4cf74;" x="335.703107" xlink:href="#m42ab04d034" y="440.033935"/>
    </g>
   </g>
   <g id="PathCollection_39">
    <defs>
     <path d="M 0 3.535534 
C 0.937635 3.535534 1.836992 3.163008 2.5 2.5 
C 3.163008 1.836992 3.535534 0.937635 3.535534 0 
C 3.535534 -0.937635 3.163008 -1.836992 2.5 -2.5 
C 1.836992 -3.163008 0.937635 -3.535534 0 -3.535534 
C -0.937635 -3.535534 -1.836992 -3.163008 -2.5 -2.5 
C -3.163008 -1.836992 -3.535534 -0.937635 -3.535534 0 
C -3.535534 0.937635 -3.163008 1.836992 -2.5 2.5 
C -1.836992 3.163008 -0.937635 3.535534 0 3.535534 
z
" id="m78916ffa88" style="stroke:#eec66d;"/>
    </defs>
    <g clip-path="url(#pb4cc7eff26)">
     <use style="fill:#eec66d;stroke:#eec66d;" x="364.128041" xlink:href="#m78916ffa88" y="484.100302"/>
    </g>
   </g>
   <g id="PathCollection_40">
    <defs>
     <path d="M 0 3.535534 
C 0.937635 3.535534 1.836992 3.163008 2.5 2.5 
C 3.163008 1.836992 3.535534 0.937635 3.535534 0 
C 3.535534 -0.937635 3.163008 -1.836992 2.5 -2.5 
C 1.836992 -3.163008 0.937635 -3.535534 0 -3.535534 
C -0.937635 -3.535534 -1.836992 -3.163008 -2.5 -2.5 
C -3.163008 -1.836992 -3.535534 -0.937635 -3.535534 0 
C -3.535534 0.937635 -3.163008 1.836992 -2.5 2.5 
C -1.836992 3.163008 -0.937635 3.535534 0 3.535534 
z
" id="m137a2f7a5d" style="stroke:#f9bb66;"/>
    </defs>
    <g clip-path="url(#pb4cc7eff26)">
     <use style="fill:#f9bb66;stroke:#f9bb66;" x="393.765747" xlink:href="#m137a2f7a5d" y="463.940836"/>
    </g>
   </g>
   <g id="PathCollection_41">
    <defs>
     <path d="M 0 3.535534 
C 0.937635 3.535534 1.836992 3.163008 2.5 2.5 
C 3.163008 1.836992 3.535534 0.937635 3.535534 0 
C 3.535534 -0.937635 3.163008 -1.836992 2.5 -2.5 
C 1.836992 -3.163008 0.937635 -3.535534 0 -3.535534 
C -0.937635 -3.535534 -1.836992 -3.163008 -2.5 -2.5 
C -3.163008 -1.836992 -3.535534 -0.937635 -3.535534 0 
C -3.535534 0.937635 -3.163008 1.836992 -2.5 2.5 
C -1.836992 3.163008 -0.937635 3.535534 0 3.535534 
z
" id="ma5b90326f8" style="stroke:#ffb05f;"/>
    </defs>
    <g clip-path="url(#pb4cc7eff26)">
     <use style="fill:#ffb05f;stroke:#ffb05f;" x="331.828989" xlink:href="#ma5b90326f8" y="455.419825"/>
    </g>
   </g>
   <g id="PathCollection_42">
    <defs>
     <path d="M 0 3.535534 
C 0.937635 3.535534 1.836992 3.163008 2.5 2.5 
C 3.163008 1.836992 3.535534 0.937635 3.535534 0 
C 3.535534 -0.937635 3.163008 -1.836992 2.5 -2.5 
C 1.836992 -3.163008 0.937635 -3.535534 0 -3.535534 
C -0.937635 -3.535534 -1.836992 -3.163008 -2.5 -2.5 
C -3.163008 -1.836992 -3.535534 -0.937635 -3.535534 0 
C -3.535534 0.937635 -3.163008 1.836992 -2.5 2.5 
C -1.836992 3.163008 -0.937635 3.535534 0 3.535534 
z
" id="m6e7e7b794e" style="stroke:#ffa558;"/>
    </defs>
    <g clip-path="url(#pb4cc7eff26)">
     <use style="fill:#ffa558;stroke:#ffa558;" x="142.681042" xlink:href="#m6e7e7b794e" y="374.415423"/>
    </g>
   </g>
   <g id="PathCollection_43">
    <defs>
     <path d="M 0 3.535534 
C 0.937635 3.535534 1.836992 3.163008 2.5 2.5 
C 3.163008 1.836992 3.535534 0.937635 3.535534 0 
C 3.535534 -0.937635 3.163008 -1.836992 2.5 -2.5 
C 1.836992 -3.163008 0.937635 -3.535534 0 -3.535534 
C -0.937635 -3.535534 -1.836992 -3.163008 -2.5 -2.5 
C -3.163008 -1.836992 -3.535534 -0.937635 -3.535534 0 
C -3.535534 0.937635 -3.163008 1.836992 -2.5 2.5 
C -1.836992 3.163008 -0.937635 3.535534 0 3.535534 
z
" id="m9e67b6be1f" style="stroke:#ff9b52;"/>
    </defs>
    <g clip-path="url(#pb4cc7eff26)">
     <use style="fill:#ff9b52;stroke:#ff9b52;" x="366.481661" xlink:href="#m9e67b6be1f" y="453.523899"/>
    </g>
   </g>
   <g id="PathCollection_44">
    <defs>
     <path d="M 0 3.535534 
C 0.937635 3.535534 1.836992 3.163008 2.5 2.5 
C 3.163008 1.836992 3.535534 0.937635 3.535534 0 
C 3.535534 -0.937635 3.163008 -1.836992 2.5 -2.5 
C 1.836992 -3.163008 0.937635 -3.535534 0 -3.535534 
C -0.937635 -3.535534 -1.836992 -3.163008 -2.5 -2.5 
C -3.163008 -1.836992 -3.535534 -0.937635 -3.535534 0 
C -3.535534 0.937635 -3.163008 1.836992 -2.5 2.5 
C -1.836992 3.163008 -0.937635 3.535534 0 3.535534 
z
" id="mf3b68b5cb7" style="stroke:#ff8e4a;"/>
    </defs>
    <g clip-path="url(#pb4cc7eff26)">
     <use style="fill:#ff8e4a;stroke:#ff8e4a;" x="282.31909" xlink:href="#mf3b68b5cb7" y="490.909867"/>
    </g>
   </g>
   <g id="PathCollection_45">
    <defs>
     <path d="M 0 3.535534 
C 0.937635 3.535534 1.836992 3.163008 2.5 2.5 
C 3.163008 1.836992 3.535534 0.937635 3.535534 0 
C 3.535534 -0.937635 3.163008 -1.836992 2.5 -2.5 
C 1.836992 -3.163008 0.937635 -3.535534 0 -3.535534 
C -0.937635 -3.535534 -1.836992 -3.163008 -2.5 -2.5 
C -3.163008 -1.836992 -3.535534 -0.937635 -3.535534 0 
C -3.535534 0.937635 -3.163008 1.836992 -2.5 2.5 
C -1.836992 3.163008 -0.937635 3.535534 0 3.535534 
z
" id="m96cd8f6d2b" style="stroke:#ff8143;"/>
    </defs>
    <g clip-path="url(#pb4cc7eff26)">
     <use style="fill:#ff8143;stroke:#ff8143;" x="128.904973" xlink:href="#m96cd8f6d2b" y="453.191187"/>
    </g>
   </g>
   <g id="PathCollection_46">
    <defs>
     <path d="M 0 3.535534 
C 0.937635 3.535534 1.836992 3.163008 2.5 2.5 
C 3.163008 1.836992 3.535534 0.937635 3.535534 0 
C 3.535534 -0.937635 3.163008 -1.836992 2.5 -2.5 
C 1.836992 -3.163008 0.937635 -3.535534 0 -3.535534 
C -0.937635 -3.535534 -1.836992 -3.163008 -2.5 -2.5 
C -3.163008 -1.836992 -3.535534 -0.937635 -3.535534 0 
C -3.535534 0.937635 -3.163008 1.836992 -2.5 2.5 
C -1.836992 3.163008 -0.937635 3.535534 0 3.535534 
z
" id="maa4a7c892f" style="stroke:#ff733b;"/>
    </defs>
    <g clip-path="url(#pb4cc7eff26)">
     <use style="fill:#ff733b;stroke:#ff733b;" x="241.528067" xlink:href="#maa4a7c892f" y="374.046239"/>
    </g>
   </g>
   <g id="PathCollection_47">
    <defs>
     <path d="M 0 3.535534 
C 0.937635 3.535534 1.836992 3.163008 2.5 2.5 
C 3.163008 1.836992 3.535534 0.937635 3.535534 0 
C 3.535534 -0.937635 3.163008 -1.836992 2.5 -2.5 
C 1.836992 -3.163008 0.937635 -3.535534 0 -3.535534 
C -0.937635 -3.535534 -1.836992 -3.163008 -2.5 -2.5 
C -3.163008 -1.836992 -3.535534 -0.937635 -3.535534 0 
C -3.535534 0.937635 -3.163008 1.836992 -2.5 2.5 
C -1.836992 3.163008 -0.937635 3.535534 0 3.535534 
z
" id="m0789f63c3c" style="stroke:#ff6533;"/>
    </defs>
    <g clip-path="url(#pb4cc7eff26)">
     <use style="fill:#ff6533;stroke:#ff6533;" x="133.146184" xlink:href="#m0789f63c3c" y="405.082446"/>
    </g>
   </g>
   <g id="PathCollection_48">
    <defs>
     <path d="M 0 3.535534 
C 0.937635 3.535534 1.836992 3.163008 2.5 2.5 
C 3.163008 1.836992 3.535534 0.937635 3.535534 0 
C 3.535534 -0.937635 3.163008 -1.836992 2.5 -2.5 
C 1.836992 -3.163008 0.937635 -3.535534 0 -3.535534 
C -0.937635 -3.535534 -1.836992 -3.163008 -2.5 -2.5 
C -3.163008 -1.836992 -3.535534 -0.937635 -3.535534 0 
C -3.535534 0.937635 -3.163008 1.836992 -2.5 2.5 
C -1.836992 3.163008 -0.937635 3.535534 0 3.535534 
z
" id="m2658a53dcc" style="stroke:#ff562c;"/>
    </defs>
    <g clip-path="url(#pb4cc7eff26)">
     <use style="fill:#ff562c;stroke:#ff562c;" x="256.295189" xlink:href="#m2658a53dcc" y="388.202515"/>
    </g>
   </g>
   <g id="PathCollection_49">
    <defs>
     <path d="M 0 3.535534 
C 0.937635 3.535534 1.836992 3.163008 2.5 2.5 
C 3.163008 1.836992 3.535534 0.937635 3.535534 0 
C 3.535534 -0.937635 3.163008 -1.836992 2.5 -2.5 
C 1.836992 -3.163008 0.937635 -3.535534 0 -3.535534 
C -0.937635 -3.535534 -1.836992 -3.163008 -2.5 -2.5 
C -3.163008 -1.836992 -3.535534 -0.937635 -3.535534 0 
C -3.535534 0.937635 -3.163008 1.836992 -2.5 2.5 
C -1.836992 3.163008 -0.937635 3.535534 0 3.535534 
z
" id="mea24b6237e" style="stroke:#ff4a26;"/>
    </defs>
    <g clip-path="url(#pb4cc7eff26)">
     <use style="fill:#ff4a26;stroke:#ff4a26;" x="183.338401" xlink:href="#mea24b6237e" y="341.711406"/>
    </g>
   </g>
   <g id="PathCollection_50">
    <defs>
     <path d="M 0 3.535534 
C 0.937635 3.535534 1.836992 3.163008 2.5 2.5 
C 3.163008 1.836992 3.535534 0.937635 3.535534 0 
C 3.535534 -0.937635 3.163008 -1.836992 2.5 -2.5 
C 1.836992 -3.163008 0.937635 -3.535534 0 -3.535534 
C -0.937635 -3.535534 -1.836992 -3.163008 -2.5 -2.5 
C -3.163008 -1.836992 -3.535534 -0.937635 -3.535534 0 
C -3.535534 0.937635 -3.163008 1.836992 -2.5 2.5 
C -1.836992 3.163008 -0.937635 3.535534 0 3.535534 
z
" id="m80d250d453" style="stroke:#ff3b1e;"/>
    </defs>
    <g clip-path="url(#pb4cc7eff26)">
     <use style="fill:#ff3b1e;stroke:#ff3b1e;" x="387.568851" xlink:href="#m80d250d453" y="182.860892"/>
    </g>
   </g>
   <g id="PathCollection_51">
    <defs>
     <path d="M 0 3.535534 
C 0.937635 3.535534 1.836992 3.163008 2.5 2.5 
C 3.163008 1.836992 3.535534 0.937635 3.535534 0 
C 3.535534 -0.937635 3.163008 -1.836992 2.5 -2.5 
C 1.836992 -3.163008 0.937635 -3.535534 0 -3.535534 
C -0.937635 -3.535534 -1.836992 -3.163008 -2.5 -2.5 
C -3.163008 -1.836992 -3.535534 -0.937635 -3.535534 0 
C -3.535534 0.937635 -3.163008 1.836992 -2.5 2.5 
C -1.836992 3.163008 -0.937635 3.535534 0 3.535534 
z
" id="mb69dd4f00b" style="stroke:#ff2c16;"/>
    </defs>
    <g clip-path="url(#pb4cc7eff26)">
     <use style="fill:#ff2c16;stroke:#ff2c16;" x="382.488423" xlink:href="#mb69dd4f00b" y="89.28"/>
    </g>
   </g>
   <g id="PathCollection_52">
    <defs>
     <path d="M 0 3.535534 
C 0.937635 3.535534 1.836992 3.163008 2.5 2.5 
C 3.163008 1.836992 3.535534 0.937635 3.535534 0 
C 3.535534 -0.937635 3.163008 -1.836992 2.5 -2.5 
C 1.836992 -3.163008 0.937635 -3.535534 0 -3.535534 
C -0.937635 -3.535534 -1.836992 -3.163008 -2.5 -2.5 
C -3.163008 -1.836992 -3.535534 -0.937635 -3.535534 0 
C -3.535534 0.937635 -3.163008 1.836992 -2.5 2.5 
C -1.836992 3.163008 -0.937635 3.535534 0 3.535534 
z
" id="m88157177f6" style="stroke:#ff1c0e;"/>
    </defs>
    <g clip-path="url(#pb4cc7eff26)">
     <use style="fill:#ff1c0e;stroke:#ff1c0e;" x="134.893667" xlink:href="#m88157177f6" y="392.802637"/>
    </g>
   </g>
   <g id="PathCollection_53">
    <defs>
     <path d="M 0 3.535534 
C 0.937635 3.535534 1.836992 3.163008 2.5 2.5 
C 3.163008 1.836992 3.535534 0.937635 3.535534 0 
C 3.535534 -0.937635 3.163008 -1.836992 2.5 -2.5 
C 1.836992 -3.163008 0.937635 -3.535534 0 -3.535534 
C -0.937635 -3.535534 -1.836992 -3.163008 -2.5 -2.5 
C -3.163008 -1.836992 -3.535534 -0.937635 -3.535534 0 
C -3.535534 0.937635 -3.163008 1.836992 -2.5 2.5 
C -1.836992 3.163008 -0.937635 3.535534 0 3.535534 
z
" id="m0624d2841d" style="stroke:#ff0d06;"/>
    </defs>
    <g clip-path="url(#pb4cc7eff26)">
     <use style="fill:#ff0d06;stroke:#ff0d06;" x="183.731728" xlink:href="#m0624d2841d" y="377.716475"/>
    </g>
   </g>
   <g id="PathCollection_54">
    <defs>
     <path d="M 0 3.535534 
C 0.937635 3.535534 1.836992 3.163008 2.5 2.5 
C 3.163008 1.836992 3.535534 0.937635 3.535534 0 
C 3.535534 -0.937635 3.163008 -1.836992 2.5 -2.5 
C 1.836992 -3.163008 0.937635 -3.535534 0 -3.535534 
C -0.937635 -3.535534 -1.836992 -3.163008 -2.5 -2.5 
C -3.163008 -1.836992 -3.535534 -0.937635 -3.535534 0 
C -3.535534 0.937635 -3.163008 1.836992 -2.5 2.5 
C -1.836992 3.163008 -0.937635 3.535534 0 3.535534 
z
" id="m46989637a5" style="stroke:#ff0000;"/>
    </defs>
    <g clip-path="url(#pb4cc7eff26)">
     <use style="fill:#ff0000;stroke:#ff0000;" x="291.899919" xlink:href="#m46989637a5" y="351.273682"/>
    </g>
   </g>
   <g id="matplotlib.axis_1">
    <g id="xtick_1">
     <g id="line2d_1">
      <path clip-path="url(#pb4cc7eff26)" d="M 89.87617 512.64 
L 89.87617 69.12 
" style="fill:none;stroke:#b0b0b0;stroke-linecap:square;stroke-width:0.8;"/>
     </g>
     <g id="line2d_2">
      <defs>
       <path d="M 0 0 
L 0 3.5 
" id="ma36d27748f" style="stroke:#000000;stroke-width:0.8;"/>
      </defs>
      <g>
       <use style="stroke:#000000;stroke-width:0.8;" x="89.87617" xlink:href="#ma36d27748f" y="512.64"/>
      </g>
     </g>
     <g id="text_1">
      <!-- −8 -->
      <g transform="translate(82.505077 527.238438)scale(0.1 -0.1)">
       <defs>
        <path d="M 678 2272 
L 4684 2272 
L 4684 1741 
L 678 1741 
L 678 2272 
z
" id="DejaVuSans-2212" transform="scale(0.015625)"/>
        <path d="M 2034 2216 
Q 1584 2216 1326 1975 
Q 1069 1734 1069 1313 
Q 1069 891 1326 650 
Q 1584 409 2034 409 
Q 2484 409 2743 651 
Q 3003 894 3003 1313 
Q 3003 1734 2745 1975 
Q 2488 2216 2034 2216 
z
M 1403 2484 
Q 997 2584 770 2862 
Q 544 3141 544 3541 
Q 544 4100 942 4425 
Q 1341 4750 2034 4750 
Q 2731 4750 3128 4425 
Q 3525 4100 3525 3541 
Q 3525 3141 3298 2862 
Q 3072 2584 2669 2484 
Q 3125 2378 3379 2068 
Q 3634 1759 3634 1313 
Q 3634 634 3220 271 
Q 2806 -91 2034 -91 
Q 1263 -91 848 271 
Q 434 634 434 1313 
Q 434 1759 690 2068 
Q 947 2378 1403 2484 
z
M 1172 3481 
Q 1172 3119 1398 2916 
Q 1625 2713 2034 2713 
Q 2441 2713 2670 2916 
Q 2900 3119 2900 3481 
Q 2900 3844 2670 4047 
Q 2441 4250 2034 4250 
Q 1625 4250 1398 4047 
Q 1172 3844 1172 3481 
z
" id="DejaVuSans-38" transform="scale(0.015625)"/>
       </defs>
       <use xlink:href="#DejaVuSans-2212"/>
       <use x="83.789062" xlink:href="#DejaVuSans-38"/>
      </g>
     </g>
    </g>
    <g id="xtick_2">
     <g id="line2d_3">
      <path clip-path="url(#pb4cc7eff26)" d="M 129.68016 512.64 
L 129.68016 69.12 
" style="fill:none;stroke:#b0b0b0;stroke-linecap:square;stroke-width:0.8;"/>
     </g>
     <g id="line2d_4">
      <g>
       <use style="stroke:#000000;stroke-width:0.8;" x="129.68016" xlink:href="#ma36d27748f" y="512.64"/>
      </g>
     </g>
     <g id="text_2">
      <!-- −6 -->
      <g transform="translate(122.309066 527.238438)scale(0.1 -0.1)">
       <defs>
        <path d="M 2113 2584 
Q 1688 2584 1439 2293 
Q 1191 2003 1191 1497 
Q 1191 994 1439 701 
Q 1688 409 2113 409 
Q 2538 409 2786 701 
Q 3034 994 3034 1497 
Q 3034 2003 2786 2293 
Q 2538 2584 2113 2584 
z
M 3366 4563 
L 3366 3988 
Q 3128 4100 2886 4159 
Q 2644 4219 2406 4219 
Q 1781 4219 1451 3797 
Q 1122 3375 1075 2522 
Q 1259 2794 1537 2939 
Q 1816 3084 2150 3084 
Q 2853 3084 3261 2657 
Q 3669 2231 3669 1497 
Q 3669 778 3244 343 
Q 2819 -91 2113 -91 
Q 1303 -91 875 529 
Q 447 1150 447 2328 
Q 447 3434 972 4092 
Q 1497 4750 2381 4750 
Q 2619 4750 2861 4703 
Q 3103 4656 3366 4563 
z
" id="DejaVuSans-36" transform="scale(0.015625)"/>
       </defs>
       <use xlink:href="#DejaVuSans-2212"/>
       <use x="83.789062" xlink:href="#DejaVuSans-36"/>
      </g>
     </g>
    </g>
    <g id="xtick_3">
     <g id="line2d_5">
      <path clip-path="url(#pb4cc7eff26)" d="M 169.48415 512.64 
L 169.48415 69.12 
" style="fill:none;stroke:#b0b0b0;stroke-linecap:square;stroke-width:0.8;"/>
     </g>
     <g id="line2d_6">
      <g>
       <use style="stroke:#000000;stroke-width:0.8;" x="169.48415" xlink:href="#ma36d27748f" y="512.64"/>
      </g>
     </g>
     <g id="text_3">
      <!-- −4 -->
      <g transform="translate(162.113056 527.238438)scale(0.1 -0.1)">
       <defs>
        <path d="M 2419 4116 
L 825 1625 
L 2419 1625 
L 2419 4116 
z
M 2253 4666 
L 3047 4666 
L 3047 1625 
L 3713 1625 
L 3713 1100 
L 3047 1100 
L 3047 0 
L 2419 0 
L 2419 1100 
L 313 1100 
L 313 1709 
L 2253 4666 
z
" id="DejaVuSans-34" transform="scale(0.015625)"/>
       </defs>
       <use xlink:href="#DejaVuSans-2212"/>
       <use x="83.789062" xlink:href="#DejaVuSans-34"/>
      </g>
     </g>
    </g>
    <g id="xtick_4">
     <g id="line2d_7">
      <path clip-path="url(#pb4cc7eff26)" d="M 209.288139 512.64 
L 209.288139 69.12 
" style="fill:none;stroke:#b0b0b0;stroke-linecap:square;stroke-width:0.8;"/>
     </g>
     <g id="line2d_8">
      <g>
       <use style="stroke:#000000;stroke-width:0.8;" x="209.288139" xlink:href="#ma36d27748f" y="512.64"/>
      </g>
     </g>
     <g id="text_4">
      <!-- −2 -->
      <g transform="translate(201.917045 527.238438)scale(0.1 -0.1)">
       <defs>
        <path d="M 1228 531 
L 3431 531 
L 3431 0 
L 469 0 
L 469 531 
Q 828 903 1448 1529 
Q 2069 2156 2228 2338 
Q 2531 2678 2651 2914 
Q 2772 3150 2772 3378 
Q 2772 3750 2511 3984 
Q 2250 4219 1831 4219 
Q 1534 4219 1204 4116 
Q 875 4013 500 3803 
L 500 4441 
Q 881 4594 1212 4672 
Q 1544 4750 1819 4750 
Q 2544 4750 2975 4387 
Q 3406 4025 3406 3419 
Q 3406 3131 3298 2873 
Q 3191 2616 2906 2266 
Q 2828 2175 2409 1742 
Q 1991 1309 1228 531 
z
" id="DejaVuSans-32" transform="scale(0.015625)"/>
       </defs>
       <use xlink:href="#DejaVuSans-2212"/>
       <use x="83.789062" xlink:href="#DejaVuSans-32"/>
      </g>
     </g>
    </g>
    <g id="xtick_5">
     <g id="line2d_9">
      <path clip-path="url(#pb4cc7eff26)" d="M 249.092129 512.64 
L 249.092129 69.12 
" style="fill:none;stroke:#b0b0b0;stroke-linecap:square;stroke-width:0.8;"/>
     </g>
     <g id="line2d_10">
      <g>
       <use style="stroke:#000000;stroke-width:0.8;" x="249.092129" xlink:href="#ma36d27748f" y="512.64"/>
      </g>
     </g>
     <g id="text_5">
      <!-- 0 -->
      <g transform="translate(245.910879 527.238438)scale(0.1 -0.1)">
       <defs>
        <path d="M 2034 4250 
Q 1547 4250 1301 3770 
Q 1056 3291 1056 2328 
Q 1056 1369 1301 889 
Q 1547 409 2034 409 
Q 2525 409 2770 889 
Q 3016 1369 3016 2328 
Q 3016 3291 2770 3770 
Q 2525 4250 2034 4250 
z
M 2034 4750 
Q 2819 4750 3233 4129 
Q 3647 3509 3647 2328 
Q 3647 1150 3233 529 
Q 2819 -91 2034 -91 
Q 1250 -91 836 529 
Q 422 1150 422 2328 
Q 422 3509 836 4129 
Q 1250 4750 2034 4750 
z
" id="DejaVuSans-30" transform="scale(0.015625)"/>
       </defs>
       <use xlink:href="#DejaVuSans-30"/>
      </g>
     </g>
    </g>
    <g id="xtick_6">
     <g id="line2d_11">
      <path clip-path="url(#pb4cc7eff26)" d="M 288.896118 512.64 
L 288.896118 69.12 
" style="fill:none;stroke:#b0b0b0;stroke-linecap:square;stroke-width:0.8;"/>
     </g>
     <g id="line2d_12">
      <g>
       <use style="stroke:#000000;stroke-width:0.8;" x="288.896118" xlink:href="#ma36d27748f" y="512.64"/>
      </g>
     </g>
     <g id="text_6">
      <!-- 2 -->
      <g transform="translate(285.714868 527.238438)scale(0.1 -0.1)">
       <use xlink:href="#DejaVuSans-32"/>
      </g>
     </g>
    </g>
    <g id="xtick_7">
     <g id="line2d_13">
      <path clip-path="url(#pb4cc7eff26)" d="M 328.700108 512.64 
L 328.700108 69.12 
" style="fill:none;stroke:#b0b0b0;stroke-linecap:square;stroke-width:0.8;"/>
     </g>
     <g id="line2d_14">
      <g>
       <use style="stroke:#000000;stroke-width:0.8;" x="328.700108" xlink:href="#ma36d27748f" y="512.64"/>
      </g>
     </g>
     <g id="text_7">
      <!-- 4 -->
      <g transform="translate(325.518858 527.238438)scale(0.1 -0.1)">
       <use xlink:href="#DejaVuSans-34"/>
      </g>
     </g>
    </g>
    <g id="xtick_8">
     <g id="line2d_15">
      <path clip-path="url(#pb4cc7eff26)" d="M 368.504098 512.64 
L 368.504098 69.12 
" style="fill:none;stroke:#b0b0b0;stroke-linecap:square;stroke-width:0.8;"/>
     </g>
     <g id="line2d_16">
      <g>
       <use style="stroke:#000000;stroke-width:0.8;" x="368.504098" xlink:href="#ma36d27748f" y="512.64"/>
      </g>
     </g>
     <g id="text_8">
      <!-- 6 -->
      <g transform="translate(365.322848 527.238438)scale(0.1 -0.1)">
       <use xlink:href="#DejaVuSans-36"/>
      </g>
     </g>
    </g>
    <g id="xtick_9">
     <g id="line2d_17">
      <path clip-path="url(#pb4cc7eff26)" d="M 408.308087 512.64 
L 408.308087 69.12 
" style="fill:none;stroke:#b0b0b0;stroke-linecap:square;stroke-width:0.8;"/>
     </g>
     <g id="line2d_18">
      <g>
       <use style="stroke:#000000;stroke-width:0.8;" x="408.308087" xlink:href="#ma36d27748f" y="512.64"/>
      </g>
     </g>
     <g id="text_9">
      <!-- 8 -->
      <g transform="translate(405.126837 527.238438)scale(0.1 -0.1)">
       <use xlink:href="#DejaVuSans-38"/>
      </g>
     </g>
    </g>
    <g id="text_10">
     <!-- PC1 -->
     <g transform="translate(236.02875 544.715781)scale(0.15 -0.15)">
      <defs>
       <path d="M 1259 4147 
L 1259 2394 
L 2053 2394 
Q 2494 2394 2734 2622 
Q 2975 2850 2975 3272 
Q 2975 3691 2734 3919 
Q 2494 4147 2053 4147 
L 1259 4147 
z
M 628 4666 
L 2053 4666 
Q 2838 4666 3239 4311 
Q 3641 3956 3641 3272 
Q 3641 2581 3239 2228 
Q 2838 1875 2053 1875 
L 1259 1875 
L 1259 0 
L 628 0 
L 628 4666 
z
" id="DejaVuSans-50" transform="scale(0.015625)"/>
       <path d="M 4122 4306 
L 4122 3641 
Q 3803 3938 3442 4084 
Q 3081 4231 2675 4231 
Q 1875 4231 1450 3742 
Q 1025 3253 1025 2328 
Q 1025 1406 1450 917 
Q 1875 428 2675 428 
Q 3081 428 3442 575 
Q 3803 722 4122 1019 
L 4122 359 
Q 3791 134 3420 21 
Q 3050 -91 2638 -91 
Q 1578 -91 968 557 
Q 359 1206 359 2328 
Q 359 3453 968 4101 
Q 1578 4750 2638 4750 
Q 3056 4750 3426 4639 
Q 3797 4528 4122 4306 
z
" id="DejaVuSans-43" transform="scale(0.015625)"/>
       <path d="M 794 531 
L 1825 531 
L 1825 4091 
L 703 3866 
L 703 4441 
L 1819 4666 
L 2450 4666 
L 2450 531 
L 3481 531 
L 3481 0 
L 794 0 
L 794 531 
z
" id="DejaVuSans-31" transform="scale(0.015625)"/>
      </defs>
      <use xlink:href="#DejaVuSans-50"/>
      <use x="60.302734" xlink:href="#DejaVuSans-43"/>
      <use x="130.126953" xlink:href="#DejaVuSans-31"/>
     </g>
    </g>
   </g>
   <g id="matplotlib.axis_2">
    <g id="ytick_1">
     <g id="line2d_19">
      <path clip-path="url(#pb4cc7eff26)" d="M 72 489.679108 
L 429.12 489.679108 
" style="fill:none;stroke:#b0b0b0;stroke-linecap:square;stroke-width:0.8;"/>
     </g>
     <g id="line2d_20">
      <defs>
       <path d="M 0 0 
L -3.5 0 
" id="m70a9b08fd0" style="stroke:#000000;stroke-width:0.8;"/>
      </defs>
      <g>
       <use style="stroke:#000000;stroke-width:0.8;" x="72" xlink:href="#m70a9b08fd0" y="489.679108"/>
      </g>
     </g>
     <g id="text_11">
      <!-- −4 -->
      <g transform="translate(50.257812 493.478327)scale(0.1 -0.1)">
       <use xlink:href="#DejaVuSans-2212"/>
       <use x="83.789062" xlink:href="#DejaVuSans-34"/>
      </g>
     </g>
    </g>
    <g id="ytick_2">
     <g id="line2d_21">
      <path clip-path="url(#pb4cc7eff26)" d="M 72 439.365055 
L 429.12 439.365055 
" style="fill:none;stroke:#b0b0b0;stroke-linecap:square;stroke-width:0.8;"/>
     </g>
     <g id="line2d_22">
      <g>
       <use style="stroke:#000000;stroke-width:0.8;" x="72" xlink:href="#m70a9b08fd0" y="439.365055"/>
      </g>
     </g>
     <g id="text_12">
      <!-- −2 -->
      <g transform="translate(50.257812 443.164274)scale(0.1 -0.1)">
       <use xlink:href="#DejaVuSans-2212"/>
       <use x="83.789062" xlink:href="#DejaVuSans-32"/>
      </g>
     </g>
    </g>
    <g id="ytick_3">
     <g id="line2d_23">
      <path clip-path="url(#pb4cc7eff26)" d="M 72 389.051002 
L 429.12 389.051002 
" style="fill:none;stroke:#b0b0b0;stroke-linecap:square;stroke-width:0.8;"/>
     </g>
     <g id="line2d_24">
      <g>
       <use style="stroke:#000000;stroke-width:0.8;" x="72" xlink:href="#m70a9b08fd0" y="389.051002"/>
      </g>
     </g>
     <g id="text_13">
      <!-- 0 -->
      <g transform="translate(58.6375 392.85022)scale(0.1 -0.1)">
       <use xlink:href="#DejaVuSans-30"/>
      </g>
     </g>
    </g>
    <g id="ytick_4">
     <g id="line2d_25">
      <path clip-path="url(#pb4cc7eff26)" d="M 72 338.736948 
L 429.12 338.736948 
" style="fill:none;stroke:#b0b0b0;stroke-linecap:square;stroke-width:0.8;"/>
     </g>
     <g id="line2d_26">
      <g>
       <use style="stroke:#000000;stroke-width:0.8;" x="72" xlink:href="#m70a9b08fd0" y="338.736948"/>
      </g>
     </g>
     <g id="text_14">
      <!-- 2 -->
      <g transform="translate(58.6375 342.536167)scale(0.1 -0.1)">
       <use xlink:href="#DejaVuSans-32"/>
      </g>
     </g>
    </g>
    <g id="ytick_5">
     <g id="line2d_27">
      <path clip-path="url(#pb4cc7eff26)" d="M 72 288.422895 
L 429.12 288.422895 
" style="fill:none;stroke:#b0b0b0;stroke-linecap:square;stroke-width:0.8;"/>
     </g>
     <g id="line2d_28">
      <g>
       <use style="stroke:#000000;stroke-width:0.8;" x="72" xlink:href="#m70a9b08fd0" y="288.422895"/>
      </g>
     </g>
     <g id="text_15">
      <!-- 4 -->
      <g transform="translate(58.6375 292.222114)scale(0.1 -0.1)">
       <use xlink:href="#DejaVuSans-34"/>
      </g>
     </g>
    </g>
    <g id="ytick_6">
     <g id="line2d_29">
      <path clip-path="url(#pb4cc7eff26)" d="M 72 238.108842 
L 429.12 238.108842 
" style="fill:none;stroke:#b0b0b0;stroke-linecap:square;stroke-width:0.8;"/>
     </g>
     <g id="line2d_30">
      <g>
       <use style="stroke:#000000;stroke-width:0.8;" x="72" xlink:href="#m70a9b08fd0" y="238.108842"/>
      </g>
     </g>
     <g id="text_16">
      <!-- 6 -->
      <g transform="translate(58.6375 241.908061)scale(0.1 -0.1)">
       <use xlink:href="#DejaVuSans-36"/>
      </g>
     </g>
    </g>
    <g id="ytick_7">
     <g id="line2d_31">
      <path clip-path="url(#pb4cc7eff26)" d="M 72 187.794789 
L 429.12 187.794789 
" style="fill:none;stroke:#b0b0b0;stroke-linecap:square;stroke-width:0.8;"/>
     </g>
     <g id="line2d_32">
      <g>
       <use style="stroke:#000000;stroke-width:0.8;" x="72" xlink:href="#m70a9b08fd0" y="187.794789"/>
      </g>
     </g>
     <g id="text_17">
      <!-- 8 -->
      <g transform="translate(58.6375 191.594007)scale(0.1 -0.1)">
       <use xlink:href="#DejaVuSans-38"/>
      </g>
     </g>
    </g>
    <g id="ytick_8">
     <g id="line2d_33">
      <path clip-path="url(#pb4cc7eff26)" d="M 72 137.480735 
L 429.12 137.480735 
" style="fill:none;stroke:#b0b0b0;stroke-linecap:square;stroke-width:0.8;"/>
     </g>
     <g id="line2d_34">
      <g>
       <use style="stroke:#000000;stroke-width:0.8;" x="72" xlink:href="#m70a9b08fd0" y="137.480735"/>
      </g>
     </g>
     <g id="text_18">
      <!-- 10 -->
      <g transform="translate(52.275 141.279954)scale(0.1 -0.1)">
       <use xlink:href="#DejaVuSans-31"/>
       <use x="63.623047" xlink:href="#DejaVuSans-30"/>
      </g>
     </g>
    </g>
    <g id="ytick_9">
     <g id="line2d_35">
      <path clip-path="url(#pb4cc7eff26)" d="M 72 87.166682 
L 429.12 87.166682 
" style="fill:none;stroke:#b0b0b0;stroke-linecap:square;stroke-width:0.8;"/>
     </g>
     <g id="line2d_36">
      <g>
       <use style="stroke:#000000;stroke-width:0.8;" x="72" xlink:href="#m70a9b08fd0" y="87.166682"/>
      </g>
     </g>
     <g id="text_19">
      <!-- 12 -->
      <g transform="translate(52.275 90.965901)scale(0.1 -0.1)">
       <use xlink:href="#DejaVuSans-31"/>
       <use x="63.623047" xlink:href="#DejaVuSans-32"/>
      </g>
     </g>
    </g>
    <g id="text_20">
     <!-- PC2 -->
     <g transform="translate(43.138281 305.41125)rotate(-90)scale(0.15 -0.15)">
      <use xlink:href="#DejaVuSans-50"/>
      <use x="60.302734" xlink:href="#DejaVuSans-43"/>
      <use x="130.126953" xlink:href="#DejaVuSans-32"/>
     </g>
    </g>
   </g>
   <g id="patch_3">
    <path d="M 72 512.64 
L 72 69.12 
" style="fill:none;stroke:#000000;stroke-linecap:square;stroke-linejoin:miter;stroke-width:0.8;"/>
   </g>
   <g id="patch_4">
    <path d="M 429.12 512.64 
L 429.12 69.12 
" style="fill:none;stroke:#000000;stroke-linecap:square;stroke-linejoin:miter;stroke-width:0.8;"/>
   </g>
   <g id="patch_5">
    <path d="M 72 512.64 
L 429.12 512.64 
" style="fill:none;stroke:#000000;stroke-linecap:square;stroke-linejoin:miter;stroke-width:0.8;"/>
   </g>
   <g id="patch_6">
    <path d="M 72 69.12 
L 429.12 69.12 
" style="fill:none;stroke:#000000;stroke-linecap:square;stroke-linejoin:miter;stroke-width:0.8;"/>
   </g>
   <g id="legend_1">
    <g id="patch_7">
     <path d="M 436.12 688.689375 
L 554.60125 688.689375 
Q 556.60125 688.689375 556.60125 686.689375 
L 556.60125 -104.929375 
Q 556.60125 -106.929375 554.60125 -106.929375 
L 436.12 -106.929375 
Q 434.12 -106.929375 434.12 -104.929375 
L 434.12 686.689375 
Q 434.12 688.689375 436.12 688.689375 
z
" style="fill:#ffffff;opacity:0.8;stroke:#cccccc;stroke-linejoin:miter;"/>
    </g>
    <g id="PathCollection_55">
     <g/>
    </g>
    <g id="text_21">
     <!-- mlh-1 -->
     <g transform="translate(466.12 -95.330938)scale(0.1 -0.1)">
      <defs>
       <path d="M 3328 2828 
Q 3544 3216 3844 3400 
Q 4144 3584 4550 3584 
Q 5097 3584 5394 3201 
Q 5691 2819 5691 2113 
L 5691 0 
L 5113 0 
L 5113 2094 
Q 5113 2597 4934 2840 
Q 4756 3084 4391 3084 
Q 3944 3084 3684 2787 
Q 3425 2491 3425 1978 
L 3425 0 
L 2847 0 
L 2847 2094 
Q 2847 2600 2669 2842 
Q 2491 3084 2119 3084 
Q 1678 3084 1418 2786 
Q 1159 2488 1159 1978 
L 1159 0 
L 581 0 
L 581 3500 
L 1159 3500 
L 1159 2956 
Q 1356 3278 1631 3431 
Q 1906 3584 2284 3584 
Q 2666 3584 2933 3390 
Q 3200 3197 3328 2828 
z
" id="DejaVuSans-6d" transform="scale(0.015625)"/>
       <path d="M 603 4863 
L 1178 4863 
L 1178 0 
L 603 0 
L 603 4863 
z
" id="DejaVuSans-6c" transform="scale(0.015625)"/>
       <path d="M 3513 2113 
L 3513 0 
L 2938 0 
L 2938 2094 
Q 2938 2591 2744 2837 
Q 2550 3084 2163 3084 
Q 1697 3084 1428 2787 
Q 1159 2491 1159 1978 
L 1159 0 
L 581 0 
L 581 4863 
L 1159 4863 
L 1159 2956 
Q 1366 3272 1645 3428 
Q 1925 3584 2291 3584 
Q 2894 3584 3203 3211 
Q 3513 2838 3513 2113 
z
" id="DejaVuSans-68" transform="scale(0.015625)"/>
       <path d="M 313 2009 
L 1997 2009 
L 1997 1497 
L 313 1497 
L 313 2009 
z
" id="DejaVuSans-2d" transform="scale(0.015625)"/>
      </defs>
      <use xlink:href="#DejaVuSans-6d"/>
      <use x="97.412109" xlink:href="#DejaVuSans-6c"/>
      <use x="125.195312" xlink:href="#DejaVuSans-68"/>
      <use x="188.574219" xlink:href="#DejaVuSans-2d"/>
      <use x="224.658203" xlink:href="#DejaVuSans-31"/>
     </g>
    </g>
    <g id="PathCollection_56">
     <g/>
    </g>
    <g id="text_22">
     <!-- bub-3 (ok3437) -->
     <g transform="translate(466.12 -80.652813)scale(0.1 -0.1)">
      <defs>
       <path d="M 3116 1747 
Q 3116 2381 2855 2742 
Q 2594 3103 2138 3103 
Q 1681 3103 1420 2742 
Q 1159 2381 1159 1747 
Q 1159 1113 1420 752 
Q 1681 391 2138 391 
Q 2594 391 2855 752 
Q 3116 1113 3116 1747 
z
M 1159 2969 
Q 1341 3281 1617 3432 
Q 1894 3584 2278 3584 
Q 2916 3584 3314 3078 
Q 3713 2572 3713 1747 
Q 3713 922 3314 415 
Q 2916 -91 2278 -91 
Q 1894 -91 1617 61 
Q 1341 213 1159 525 
L 1159 0 
L 581 0 
L 581 4863 
L 1159 4863 
L 1159 2969 
z
" id="DejaVuSans-62" transform="scale(0.015625)"/>
       <path d="M 544 1381 
L 544 3500 
L 1119 3500 
L 1119 1403 
Q 1119 906 1312 657 
Q 1506 409 1894 409 
Q 2359 409 2629 706 
Q 2900 1003 2900 1516 
L 2900 3500 
L 3475 3500 
L 3475 0 
L 2900 0 
L 2900 538 
Q 2691 219 2414 64 
Q 2138 -91 1772 -91 
Q 1169 -91 856 284 
Q 544 659 544 1381 
z
M 1991 3584 
L 1991 3584 
z
" id="DejaVuSans-75" transform="scale(0.015625)"/>
       <path d="M 2597 2516 
Q 3050 2419 3304 2112 
Q 3559 1806 3559 1356 
Q 3559 666 3084 287 
Q 2609 -91 1734 -91 
Q 1441 -91 1130 -33 
Q 819 25 488 141 
L 488 750 
Q 750 597 1062 519 
Q 1375 441 1716 441 
Q 2309 441 2620 675 
Q 2931 909 2931 1356 
Q 2931 1769 2642 2001 
Q 2353 2234 1838 2234 
L 1294 2234 
L 1294 2753 
L 1863 2753 
Q 2328 2753 2575 2939 
Q 2822 3125 2822 3475 
Q 2822 3834 2567 4026 
Q 2313 4219 1838 4219 
Q 1578 4219 1281 4162 
Q 984 4106 628 3988 
L 628 4550 
Q 988 4650 1302 4700 
Q 1616 4750 1894 4750 
Q 2613 4750 3031 4423 
Q 3450 4097 3450 3541 
Q 3450 3153 3228 2886 
Q 3006 2619 2597 2516 
z
" id="DejaVuSans-33" transform="scale(0.015625)"/>
       <path id="DejaVuSans-20" transform="scale(0.015625)"/>
       <path d="M 1984 4856 
Q 1566 4138 1362 3434 
Q 1159 2731 1159 2009 
Q 1159 1288 1364 580 
Q 1569 -128 1984 -844 
L 1484 -844 
Q 1016 -109 783 600 
Q 550 1309 550 2009 
Q 550 2706 781 3412 
Q 1013 4119 1484 4856 
L 1984 4856 
z
" id="DejaVuSans-28" transform="scale(0.015625)"/>
       <path d="M 1959 3097 
Q 1497 3097 1228 2736 
Q 959 2375 959 1747 
Q 959 1119 1226 758 
Q 1494 397 1959 397 
Q 2419 397 2687 759 
Q 2956 1122 2956 1747 
Q 2956 2369 2687 2733 
Q 2419 3097 1959 3097 
z
M 1959 3584 
Q 2709 3584 3137 3096 
Q 3566 2609 3566 1747 
Q 3566 888 3137 398 
Q 2709 -91 1959 -91 
Q 1206 -91 779 398 
Q 353 888 353 1747 
Q 353 2609 779 3096 
Q 1206 3584 1959 3584 
z
" id="DejaVuSans-6f" transform="scale(0.015625)"/>
       <path d="M 581 4863 
L 1159 4863 
L 1159 1991 
L 2875 3500 
L 3609 3500 
L 1753 1863 
L 3688 0 
L 2938 0 
L 1159 1709 
L 1159 0 
L 581 0 
L 581 4863 
z
" id="DejaVuSans-6b" transform="scale(0.015625)"/>
       <path d="M 525 4666 
L 3525 4666 
L 3525 4397 
L 1831 0 
L 1172 0 
L 2766 4134 
L 525 4134 
L 525 4666 
z
" id="DejaVuSans-37" transform="scale(0.015625)"/>
       <path d="M 513 4856 
L 1013 4856 
Q 1481 4119 1714 3412 
Q 1947 2706 1947 2009 
Q 1947 1309 1714 600 
Q 1481 -109 1013 -844 
L 513 -844 
Q 928 -128 1133 580 
Q 1338 1288 1338 2009 
Q 1338 2731 1133 3434 
Q 928 4138 513 4856 
z
" id="DejaVuSans-29" transform="scale(0.015625)"/>
      </defs>
      <use xlink:href="#DejaVuSans-62"/>
      <use x="63.476562" xlink:href="#DejaVuSans-75"/>
      <use x="126.855469" xlink:href="#DejaVuSans-62"/>
      <use x="190.332031" xlink:href="#DejaVuSans-2d"/>
      <use x="226.416016" xlink:href="#DejaVuSans-33"/>
      <use x="290.039062" xlink:href="#DejaVuSans-20"/>
      <use x="321.826172" xlink:href="#DejaVuSans-28"/>
      <use x="360.839844" xlink:href="#DejaVuSans-6f"/>
      <use x="422.021484" xlink:href="#DejaVuSans-6b"/>
      <use x="479.931641" xlink:href="#DejaVuSans-33"/>
      <use x="543.554688" xlink:href="#DejaVuSans-34"/>
      <use x="607.177734" xlink:href="#DejaVuSans-33"/>
      <use x="670.800781" xlink:href="#DejaVuSans-37"/>
      <use x="734.423828" xlink:href="#DejaVuSans-29"/>
     </g>
    </g>
    <g id="PathCollection_57">
     <g/>
    </g>
    <g id="text_23">
     <!-- apn-1 -->
     <g transform="translate(466.12 -65.974688)scale(0.1 -0.1)">
      <defs>
       <path d="M 2194 1759 
Q 1497 1759 1228 1600 
Q 959 1441 959 1056 
Q 959 750 1161 570 
Q 1363 391 1709 391 
Q 2188 391 2477 730 
Q 2766 1069 2766 1631 
L 2766 1759 
L 2194 1759 
z
M 3341 1997 
L 3341 0 
L 2766 0 
L 2766 531 
Q 2569 213 2275 61 
Q 1981 -91 1556 -91 
Q 1019 -91 701 211 
Q 384 513 384 1019 
Q 384 1609 779 1909 
Q 1175 2209 1959 2209 
L 2766 2209 
L 2766 2266 
Q 2766 2663 2505 2880 
Q 2244 3097 1772 3097 
Q 1472 3097 1187 3025 
Q 903 2953 641 2809 
L 641 3341 
Q 956 3463 1253 3523 
Q 1550 3584 1831 3584 
Q 2591 3584 2966 3190 
Q 3341 2797 3341 1997 
z
" id="DejaVuSans-61" transform="scale(0.015625)"/>
       <path d="M 1159 525 
L 1159 -1331 
L 581 -1331 
L 581 3500 
L 1159 3500 
L 1159 2969 
Q 1341 3281 1617 3432 
Q 1894 3584 2278 3584 
Q 2916 3584 3314 3078 
Q 3713 2572 3713 1747 
Q 3713 922 3314 415 
Q 2916 -91 2278 -91 
Q 1894 -91 1617 61 
Q 1341 213 1159 525 
z
M 3116 1747 
Q 3116 2381 2855 2742 
Q 2594 3103 2138 3103 
Q 1681 3103 1420 2742 
Q 1159 2381 1159 1747 
Q 1159 1113 1420 752 
Q 1681 391 2138 391 
Q 2594 391 2855 752 
Q 3116 1113 3116 1747 
z
" id="DejaVuSans-70" transform="scale(0.015625)"/>
       <path d="M 3513 2113 
L 3513 0 
L 2938 0 
L 2938 2094 
Q 2938 2591 2744 2837 
Q 2550 3084 2163 3084 
Q 1697 3084 1428 2787 
Q 1159 2491 1159 1978 
L 1159 0 
L 581 0 
L 581 3500 
L 1159 3500 
L 1159 2956 
Q 1366 3272 1645 3428 
Q 1925 3584 2291 3584 
Q 2894 3584 3203 3211 
Q 3513 2838 3513 2113 
z
" id="DejaVuSans-6e" transform="scale(0.015625)"/>
      </defs>
      <use xlink:href="#DejaVuSans-61"/>
      <use x="61.279297" xlink:href="#DejaVuSans-70"/>
      <use x="124.755859" xlink:href="#DejaVuSans-6e"/>
      <use x="188.134766" xlink:href="#DejaVuSans-2d"/>
      <use x="224.21875" xlink:href="#DejaVuSans-31"/>
     </g>
    </g>
    <g id="PathCollection_58">
     <g/>
    </g>
    <g id="text_24">
     <!-- polk-1 -->
     <g transform="translate(466.12 -51.296563)scale(0.1 -0.1)">
      <use xlink:href="#DejaVuSans-70"/>
      <use x="63.476562" xlink:href="#DejaVuSans-6f"/>
      <use x="124.658203" xlink:href="#DejaVuSans-6c"/>
      <use x="152.441406" xlink:href="#DejaVuSans-6b"/>
      <use x="210.351562" xlink:href="#DejaVuSans-2d"/>
      <use x="246.435547" xlink:href="#DejaVuSans-31"/>
     </g>
    </g>
    <g id="PathCollection_59">
     <g/>
    </g>
    <g id="text_25">
     <!-- pole-4 -->
     <g transform="translate(466.12 -36.618438)scale(0.1 -0.1)">
      <defs>
       <path d="M 3597 1894 
L 3597 1613 
L 953 1613 
Q 991 1019 1311 708 
Q 1631 397 2203 397 
Q 2534 397 2845 478 
Q 3156 559 3463 722 
L 3463 178 
Q 3153 47 2828 -22 
Q 2503 -91 2169 -91 
Q 1331 -91 842 396 
Q 353 884 353 1716 
Q 353 2575 817 3079 
Q 1281 3584 2069 3584 
Q 2775 3584 3186 3129 
Q 3597 2675 3597 1894 
z
M 3022 2063 
Q 3016 2534 2758 2815 
Q 2500 3097 2075 3097 
Q 1594 3097 1305 2825 
Q 1016 2553 972 2059 
L 3022 2063 
z
" id="DejaVuSans-65" transform="scale(0.015625)"/>
      </defs>
      <use xlink:href="#DejaVuSans-70"/>
      <use x="63.476562" xlink:href="#DejaVuSans-6f"/>
      <use x="124.658203" xlink:href="#DejaVuSans-6c"/>
      <use x="152.441406" xlink:href="#DejaVuSans-65"/>
      <use x="213.964844" xlink:href="#DejaVuSans-2d"/>
      <use x="250.048828" xlink:href="#DejaVuSans-34"/>
     </g>
    </g>
    <g id="PathCollection_60">
     <g/>
    </g>
    <g id="text_26">
     <!-- rif-1 -->
     <g transform="translate(466.12 -21.940313)scale(0.1 -0.1)">
      <defs>
       <path d="M 2631 2963 
Q 2534 3019 2420 3045 
Q 2306 3072 2169 3072 
Q 1681 3072 1420 2755 
Q 1159 2438 1159 1844 
L 1159 0 
L 581 0 
L 581 3500 
L 1159 3500 
L 1159 2956 
Q 1341 3275 1631 3429 
Q 1922 3584 2338 3584 
Q 2397 3584 2469 3576 
Q 2541 3569 2628 3553 
L 2631 2963 
z
" id="DejaVuSans-72" transform="scale(0.015625)"/>
       <path d="M 603 3500 
L 1178 3500 
L 1178 0 
L 603 0 
L 603 3500 
z
M 603 4863 
L 1178 4863 
L 1178 4134 
L 603 4134 
L 603 4863 
z
" id="DejaVuSans-69" transform="scale(0.015625)"/>
       <path d="M 2375 4863 
L 2375 4384 
L 1825 4384 
Q 1516 4384 1395 4259 
Q 1275 4134 1275 3809 
L 1275 3500 
L 2222 3500 
L 2222 3053 
L 1275 3053 
L 1275 0 
L 697 0 
L 697 3053 
L 147 3053 
L 147 3500 
L 697 3500 
L 697 3744 
Q 697 4328 969 4595 
Q 1241 4863 1831 4863 
L 2375 4863 
z
" id="DejaVuSans-66" transform="scale(0.015625)"/>
      </defs>
      <use xlink:href="#DejaVuSans-72"/>
      <use x="41.113281" xlink:href="#DejaVuSans-69"/>
      <use x="68.896484" xlink:href="#DejaVuSans-66"/>
      <use x="98.601562" xlink:href="#DejaVuSans-2d"/>
      <use x="134.685547" xlink:href="#DejaVuSans-31"/>
     </g>
    </g>
    <g id="PathCollection_61">
     <g/>
    </g>
    <g id="text_27">
     <!-- rfs-1 -->
     <g transform="translate(466.12 -7.262188)scale(0.1 -0.1)">
      <defs>
       <path d="M 2834 3397 
L 2834 2853 
Q 2591 2978 2328 3040 
Q 2066 3103 1784 3103 
Q 1356 3103 1142 2972 
Q 928 2841 928 2578 
Q 928 2378 1081 2264 
Q 1234 2150 1697 2047 
L 1894 2003 
Q 2506 1872 2764 1633 
Q 3022 1394 3022 966 
Q 3022 478 2636 193 
Q 2250 -91 1575 -91 
Q 1294 -91 989 -36 
Q 684 19 347 128 
L 347 722 
Q 666 556 975 473 
Q 1284 391 1588 391 
Q 1994 391 2212 530 
Q 2431 669 2431 922 
Q 2431 1156 2273 1281 
Q 2116 1406 1581 1522 
L 1381 1569 
Q 847 1681 609 1914 
Q 372 2147 372 2553 
Q 372 3047 722 3315 
Q 1072 3584 1716 3584 
Q 2034 3584 2315 3537 
Q 2597 3491 2834 3397 
z
" id="DejaVuSans-73" transform="scale(0.015625)"/>
      </defs>
      <use xlink:href="#DejaVuSans-72"/>
      <use x="41.113281" xlink:href="#DejaVuSans-66"/>
      <use x="76.318359" xlink:href="#DejaVuSans-73"/>
      <use x="128.417969" xlink:href="#DejaVuSans-2d"/>
      <use x="164.501953" xlink:href="#DejaVuSans-31"/>
     </g>
    </g>
    <g id="PathCollection_62">
     <g>
      <use style="fill:#3e65fa;stroke:#3e65fa;" x="448.12" xlink:href="#maa8ea7a301" y="4.790937"/>
     </g>
    </g>
    <g id="text_28">
     <!-- parp-1 -->
     <g transform="translate(466.12 7.415937)scale(0.1 -0.1)">
      <use xlink:href="#DejaVuSans-70"/>
      <use x="63.476562" xlink:href="#DejaVuSans-61"/>
      <use x="124.755859" xlink:href="#DejaVuSans-72"/>
      <use x="165.869141" xlink:href="#DejaVuSans-70"/>
      <use x="229.345703" xlink:href="#DejaVuSans-2d"/>
      <use x="265.429688" xlink:href="#DejaVuSans-31"/>
     </g>
    </g>
    <g id="PathCollection_63">
     <g>
      <use style="fill:#3473f8;stroke:#3473f8;" x="448.12" xlink:href="#m9faa2222f6" y="19.469062"/>
     </g>
    </g>
    <g id="text_29">
     <!-- parp-2 -->
     <g transform="translate(466.12 22.094062)scale(0.1 -0.1)">
      <use xlink:href="#DejaVuSans-70"/>
      <use x="63.476562" xlink:href="#DejaVuSans-61"/>
      <use x="124.755859" xlink:href="#DejaVuSans-72"/>
      <use x="165.869141" xlink:href="#DejaVuSans-70"/>
      <use x="229.345703" xlink:href="#DejaVuSans-2d"/>
      <use x="265.429688" xlink:href="#DejaVuSans-32"/>
     </g>
    </g>
    <g id="PathCollection_64">
     <g>
      <use style="fill:#2981f6;stroke:#2981f6;" x="448.12" xlink:href="#m32dedb936a" y="34.147187"/>
     </g>
    </g>
    <g id="text_30">
     <!-- slx-1 -->
     <g transform="translate(466.12 36.772187)scale(0.1 -0.1)">
      <defs>
       <path d="M 3513 3500 
L 2247 1797 
L 3578 0 
L 2900 0 
L 1881 1375 
L 863 0 
L 184 0 
L 1544 1831 
L 300 3500 
L 978 3500 
L 1906 2253 
L 2834 3500 
L 3513 3500 
z
" id="DejaVuSans-78" transform="scale(0.015625)"/>
      </defs>
      <use xlink:href="#DejaVuSans-73"/>
      <use x="52.099609" xlink:href="#DejaVuSans-6c"/>
      <use x="79.882812" xlink:href="#DejaVuSans-78"/>
      <use x="139.0625" xlink:href="#DejaVuSans-2d"/>
      <use x="175.146484" xlink:href="#DejaVuSans-31"/>
     </g>
    </g>
    <g id="PathCollection_65">
     <g>
      <use style="fill:#208ef4;stroke:#208ef4;" x="448.12" xlink:href="#mea117856b1" y="48.825312"/>
     </g>
    </g>
    <g id="text_31">
     <!-- rad-54B (gt3308) -->
     <g transform="translate(466.12 51.450312)scale(0.1 -0.1)">
      <defs>
       <path d="M 2906 2969 
L 2906 4863 
L 3481 4863 
L 3481 0 
L 2906 0 
L 2906 525 
Q 2725 213 2448 61 
Q 2172 -91 1784 -91 
Q 1150 -91 751 415 
Q 353 922 353 1747 
Q 353 2572 751 3078 
Q 1150 3584 1784 3584 
Q 2172 3584 2448 3432 
Q 2725 3281 2906 2969 
z
M 947 1747 
Q 947 1113 1208 752 
Q 1469 391 1925 391 
Q 2381 391 2643 752 
Q 2906 1113 2906 1747 
Q 2906 2381 2643 2742 
Q 2381 3103 1925 3103 
Q 1469 3103 1208 2742 
Q 947 2381 947 1747 
z
" id="DejaVuSans-64" transform="scale(0.015625)"/>
       <path d="M 691 4666 
L 3169 4666 
L 3169 4134 
L 1269 4134 
L 1269 2991 
Q 1406 3038 1543 3061 
Q 1681 3084 1819 3084 
Q 2600 3084 3056 2656 
Q 3513 2228 3513 1497 
Q 3513 744 3044 326 
Q 2575 -91 1722 -91 
Q 1428 -91 1123 -41 
Q 819 9 494 109 
L 494 744 
Q 775 591 1075 516 
Q 1375 441 1709 441 
Q 2250 441 2565 725 
Q 2881 1009 2881 1497 
Q 2881 1984 2565 2268 
Q 2250 2553 1709 2553 
Q 1456 2553 1204 2497 
Q 953 2441 691 2322 
L 691 4666 
z
" id="DejaVuSans-35" transform="scale(0.015625)"/>
       <path d="M 1259 2228 
L 1259 519 
L 2272 519 
Q 2781 519 3026 730 
Q 3272 941 3272 1375 
Q 3272 1813 3026 2020 
Q 2781 2228 2272 2228 
L 1259 2228 
z
M 1259 4147 
L 1259 2741 
L 2194 2741 
Q 2656 2741 2882 2914 
Q 3109 3088 3109 3444 
Q 3109 3797 2882 3972 
Q 2656 4147 2194 4147 
L 1259 4147 
z
M 628 4666 
L 2241 4666 
Q 2963 4666 3353 4366 
Q 3744 4066 3744 3513 
Q 3744 3084 3544 2831 
Q 3344 2578 2956 2516 
Q 3422 2416 3680 2098 
Q 3938 1781 3938 1306 
Q 3938 681 3513 340 
Q 3088 0 2303 0 
L 628 0 
L 628 4666 
z
" id="DejaVuSans-42" transform="scale(0.015625)"/>
       <path d="M 2906 1791 
Q 2906 2416 2648 2759 
Q 2391 3103 1925 3103 
Q 1463 3103 1205 2759 
Q 947 2416 947 1791 
Q 947 1169 1205 825 
Q 1463 481 1925 481 
Q 2391 481 2648 825 
Q 2906 1169 2906 1791 
z
M 3481 434 
Q 3481 -459 3084 -895 
Q 2688 -1331 1869 -1331 
Q 1566 -1331 1297 -1286 
Q 1028 -1241 775 -1147 
L 775 -588 
Q 1028 -725 1275 -790 
Q 1522 -856 1778 -856 
Q 2344 -856 2625 -561 
Q 2906 -266 2906 331 
L 2906 616 
Q 2728 306 2450 153 
Q 2172 0 1784 0 
Q 1141 0 747 490 
Q 353 981 353 1791 
Q 353 2603 747 3093 
Q 1141 3584 1784 3584 
Q 2172 3584 2450 3431 
Q 2728 3278 2906 2969 
L 2906 3500 
L 3481 3500 
L 3481 434 
z
" id="DejaVuSans-67" transform="scale(0.015625)"/>
       <path d="M 1172 4494 
L 1172 3500 
L 2356 3500 
L 2356 3053 
L 1172 3053 
L 1172 1153 
Q 1172 725 1289 603 
Q 1406 481 1766 481 
L 2356 481 
L 2356 0 
L 1766 0 
Q 1100 0 847 248 
Q 594 497 594 1153 
L 594 3053 
L 172 3053 
L 172 3500 
L 594 3500 
L 594 4494 
L 1172 4494 
z
" id="DejaVuSans-74" transform="scale(0.015625)"/>
      </defs>
      <use xlink:href="#DejaVuSans-72"/>
      <use x="41.113281" xlink:href="#DejaVuSans-61"/>
      <use x="102.392578" xlink:href="#DejaVuSans-64"/>
      <use x="165.869141" xlink:href="#DejaVuSans-2d"/>
      <use x="201.953125" xlink:href="#DejaVuSans-35"/>
      <use x="265.576172" xlink:href="#DejaVuSans-34"/>
      <use x="329.199219" xlink:href="#DejaVuSans-42"/>
      <use x="397.802734" xlink:href="#DejaVuSans-20"/>
      <use x="429.589844" xlink:href="#DejaVuSans-28"/>
      <use x="468.603516" xlink:href="#DejaVuSans-67"/>
      <use x="532.080078" xlink:href="#DejaVuSans-74"/>
      <use x="571.289062" xlink:href="#DejaVuSans-33"/>
      <use x="634.912109" xlink:href="#DejaVuSans-33"/>
      <use x="698.535156" xlink:href="#DejaVuSans-30"/>
      <use x="762.158203" xlink:href="#DejaVuSans-38"/>
      <use x="825.78125" xlink:href="#DejaVuSans-29"/>
     </g>
    </g>
    <g id="PathCollection_66">
     <g>
      <use style="fill:#169bf2;stroke:#169bf2;" x="448.12" xlink:href="#m2e177113d5" y="63.503437"/>
     </g>
    </g>
    <g id="text_32">
     <!-- smc-6 -->
     <g transform="translate(466.12 66.128437)scale(0.1 -0.1)">
      <defs>
       <path d="M 3122 3366 
L 3122 2828 
Q 2878 2963 2633 3030 
Q 2388 3097 2138 3097 
Q 1578 3097 1268 2742 
Q 959 2388 959 1747 
Q 959 1106 1268 751 
Q 1578 397 2138 397 
Q 2388 397 2633 464 
Q 2878 531 3122 666 
L 3122 134 
Q 2881 22 2623 -34 
Q 2366 -91 2075 -91 
Q 1284 -91 818 406 
Q 353 903 353 1747 
Q 353 2603 823 3093 
Q 1294 3584 2113 3584 
Q 2378 3584 2631 3529 
Q 2884 3475 3122 3366 
z
" id="DejaVuSans-63" transform="scale(0.015625)"/>
      </defs>
      <use xlink:href="#DejaVuSans-73"/>
      <use x="52.099609" xlink:href="#DejaVuSans-6d"/>
      <use x="149.511719" xlink:href="#DejaVuSans-63"/>
      <use x="204.492188" xlink:href="#DejaVuSans-2d"/>
      <use x="240.576172" xlink:href="#DejaVuSans-36"/>
     </g>
    </g>
    <g id="PathCollection_67">
     <g>
      <use style="fill:#0ea5ef;stroke:#0ea5ef;" x="448.12" xlink:href="#m70bc5f162c" y="78.181562"/>
     </g>
    </g>
    <g id="text_33">
     <!-- rev-3 -->
     <g transform="translate(466.12 80.806562)scale(0.1 -0.1)">
      <defs>
       <path d="M 191 3500 
L 800 3500 
L 1894 563 
L 2988 3500 
L 3597 3500 
L 2284 0 
L 1503 0 
L 191 3500 
z
" id="DejaVuSans-76" transform="scale(0.015625)"/>
      </defs>
      <use xlink:href="#DejaVuSans-72"/>
      <use x="38.863281" xlink:href="#DejaVuSans-65"/>
      <use x="100.386719" xlink:href="#DejaVuSans-76"/>
      <use x="156.941406" xlink:href="#DejaVuSans-2d"/>
      <use x="193.025391" xlink:href="#DejaVuSans-33"/>
     </g>
    </g>
    <g id="PathCollection_68">
     <g>
      <use style="fill:#04b0ed;stroke:#04b0ed;" x="448.12" xlink:href="#m6bab9fbfe2" y="92.859687"/>
     </g>
    </g>
    <g id="text_34">
     <!-- brd-1 -->
     <g transform="translate(466.12 95.484687)scale(0.1 -0.1)">
      <use xlink:href="#DejaVuSans-62"/>
      <use x="63.476562" xlink:href="#DejaVuSans-72"/>
      <use x="102.839844" xlink:href="#DejaVuSans-64"/>
      <use x="166.316406" xlink:href="#DejaVuSans-2d"/>
      <use x="202.400391" xlink:href="#DejaVuSans-31"/>
     </g>
    </g>
    <g id="PathCollection_69">
     <g>
      <use style="fill:#07bbea;stroke:#07bbea;" x="448.12" xlink:href="#m851b6c3720" y="107.537812"/>
     </g>
    </g>
    <g id="text_35">
     <!-- rad-51 -->
     <g transform="translate(466.12 110.162812)scale(0.1 -0.1)">
      <use xlink:href="#DejaVuSans-72"/>
      <use x="41.113281" xlink:href="#DejaVuSans-61"/>
      <use x="102.392578" xlink:href="#DejaVuSans-64"/>
      <use x="165.869141" xlink:href="#DejaVuSans-2d"/>
      <use x="201.953125" xlink:href="#DejaVuSans-35"/>
      <use x="265.576172" xlink:href="#DejaVuSans-31"/>
     </g>
    </g>
    <g id="PathCollection_70">
     <g>
      <use style="fill:#10c6e6;stroke:#10c6e6;" x="448.12" xlink:href="#m738405a2f4" y="122.215937"/>
     </g>
    </g>
    <g id="text_36">
     <!-- mus-81 -->
     <g transform="translate(466.12 124.840937)scale(0.1 -0.1)">
      <use xlink:href="#DejaVuSans-6d"/>
      <use x="97.412109" xlink:href="#DejaVuSans-75"/>
      <use x="160.791016" xlink:href="#DejaVuSans-73"/>
      <use x="212.890625" xlink:href="#DejaVuSans-2d"/>
      <use x="248.974609" xlink:href="#DejaVuSans-38"/>
      <use x="312.597656" xlink:href="#DejaVuSans-31"/>
     </g>
    </g>
    <g id="PathCollection_71">
     <g>
      <use style="fill:#1acfe3;stroke:#1acfe3;" x="448.12" xlink:href="#m7a3e94788d" y="136.894062"/>
     </g>
    </g>
    <g id="text_37">
     <!-- wrn-1 -->
     <g transform="translate(466.12 139.519062)scale(0.1 -0.1)">
      <defs>
       <path d="M 269 3500 
L 844 3500 
L 1563 769 
L 2278 3500 
L 2956 3500 
L 3675 769 
L 4391 3500 
L 4966 3500 
L 4050 0 
L 3372 0 
L 2619 2869 
L 1863 0 
L 1184 0 
L 269 3500 
z
" id="DejaVuSans-77" transform="scale(0.015625)"/>
      </defs>
      <use xlink:href="#DejaVuSans-77"/>
      <use x="81.787109" xlink:href="#DejaVuSans-72"/>
      <use x="121.150391" xlink:href="#DejaVuSans-6e"/>
      <use x="184.529297" xlink:href="#DejaVuSans-2d"/>
      <use x="220.613281" xlink:href="#DejaVuSans-31"/>
     </g>
    </g>
    <g id="PathCollection_72">
     <g>
      <use style="fill:#24d8df;stroke:#24d8df;" x="448.12" xlink:href="#mc7ce150ddc" y="151.572187"/>
     </g>
    </g>
    <g id="text_38">
     <!-- smg-1 -->
     <g transform="translate(466.12 154.197187)scale(0.1 -0.1)">
      <use xlink:href="#DejaVuSans-73"/>
      <use x="52.099609" xlink:href="#DejaVuSans-6d"/>
      <use x="149.511719" xlink:href="#DejaVuSans-67"/>
      <use x="212.988281" xlink:href="#DejaVuSans-2d"/>
      <use x="249.072266" xlink:href="#DejaVuSans-31"/>
     </g>
    </g>
    <g id="PathCollection_73">
     <g>
      <use style="fill:#2ddedc;stroke:#2ddedc;" x="448.12" xlink:href="#m46ad9d8654" y="166.250312"/>
     </g>
    </g>
    <g id="text_39">
     <!-- bub-3 (gt2000) -->
     <g transform="translate(466.12 168.875312)scale(0.1 -0.1)">
      <use xlink:href="#DejaVuSans-62"/>
      <use x="63.476562" xlink:href="#DejaVuSans-75"/>
      <use x="126.855469" xlink:href="#DejaVuSans-62"/>
      <use x="190.332031" xlink:href="#DejaVuSans-2d"/>
      <use x="226.416016" xlink:href="#DejaVuSans-33"/>
      <use x="290.039062" xlink:href="#DejaVuSans-20"/>
      <use x="321.826172" xlink:href="#DejaVuSans-28"/>
      <use x="360.839844" xlink:href="#DejaVuSans-67"/>
      <use x="424.316406" xlink:href="#DejaVuSans-74"/>
      <use x="463.525391" xlink:href="#DejaVuSans-32"/>
      <use x="527.148438" xlink:href="#DejaVuSans-30"/>
      <use x="590.771484" xlink:href="#DejaVuSans-30"/>
      <use x="654.394531" xlink:href="#DejaVuSans-30"/>
      <use x="718.017578" xlink:href="#DejaVuSans-29"/>
     </g>
    </g>
    <g id="PathCollection_74">
     <g>
      <use style="fill:#37e6d8;stroke:#37e6d8;" x="448.12" xlink:href="#m06fb422028" y="180.928437"/>
     </g>
    </g>
    <g id="text_40">
     <!-- N2 -->
     <g transform="translate(466.12 183.553437)scale(0.1 -0.1)">
      <defs>
       <path d="M 628 4666 
L 1478 4666 
L 3547 763 
L 3547 4666 
L 4159 4666 
L 4159 0 
L 3309 0 
L 1241 3903 
L 1241 0 
L 628 0 
L 628 4666 
z
" id="DejaVuSans-4e" transform="scale(0.015625)"/>
      </defs>
      <use xlink:href="#DejaVuSans-4e"/>
      <use x="74.804688" xlink:href="#DejaVuSans-32"/>
     </g>
    </g>
    <g id="PathCollection_75">
     <g>
      <use style="fill:#40ecd4;stroke:#40ecd4;" x="448.12" xlink:href="#m2ff841a9ed" y="195.606562"/>
     </g>
    </g>
    <g id="text_41">
     <!-- helq-1 -->
     <g transform="translate(466.12 198.231562)scale(0.1 -0.1)">
      <defs>
       <path d="M 947 1747 
Q 947 1113 1208 752 
Q 1469 391 1925 391 
Q 2381 391 2643 752 
Q 2906 1113 2906 1747 
Q 2906 2381 2643 2742 
Q 2381 3103 1925 3103 
Q 1469 3103 1208 2742 
Q 947 2381 947 1747 
z
M 2906 525 
Q 2725 213 2448 61 
Q 2172 -91 1784 -91 
Q 1150 -91 751 415 
Q 353 922 353 1747 
Q 353 2572 751 3078 
Q 1150 3584 1784 3584 
Q 2172 3584 2448 3432 
Q 2725 3281 2906 2969 
L 2906 3500 
L 3481 3500 
L 3481 -1331 
L 2906 -1331 
L 2906 525 
z
" id="DejaVuSans-71" transform="scale(0.015625)"/>
      </defs>
      <use xlink:href="#DejaVuSans-68"/>
      <use x="63.378906" xlink:href="#DejaVuSans-65"/>
      <use x="124.902344" xlink:href="#DejaVuSans-6c"/>
      <use x="152.685547" xlink:href="#DejaVuSans-71"/>
      <use x="216.162109" xlink:href="#DejaVuSans-2d"/>
      <use x="252.246094" xlink:href="#DejaVuSans-31"/>
     </g>
    </g>
    <g id="PathCollection_76">
     <g>
      <use style="fill:#4af2cf;stroke:#4af2cf;" x="448.12" xlink:href="#mfa81a12efe" y="210.284687"/>
     </g>
    </g>
    <g id="text_42">
     <!-- agt-1 -->
     <g transform="translate(466.12 212.909687)scale(0.1 -0.1)">
      <use xlink:href="#DejaVuSans-61"/>
      <use x="61.279297" xlink:href="#DejaVuSans-67"/>
      <use x="124.755859" xlink:href="#DejaVuSans-74"/>
      <use x="163.964844" xlink:href="#DejaVuSans-2d"/>
      <use x="200.048828" xlink:href="#DejaVuSans-31"/>
     </g>
    </g>
    <g id="PathCollection_77">
     <g>
      <use style="fill:#54f6cb;stroke:#54f6cb;" x="448.12" xlink:href="#mdb531059aa" y="224.962812"/>
     </g>
    </g>
    <g id="text_43">
     <!-- fncm-1 -->
     <g transform="translate(466.12 227.587812)scale(0.1 -0.1)">
      <use xlink:href="#DejaVuSans-66"/>
      <use x="35.205078" xlink:href="#DejaVuSans-6e"/>
      <use x="98.583984" xlink:href="#DejaVuSans-63"/>
      <use x="153.564453" xlink:href="#DejaVuSans-6d"/>
      <use x="250.976562" xlink:href="#DejaVuSans-2d"/>
      <use x="287.060547" xlink:href="#DejaVuSans-31"/>
     </g>
    </g>
    <g id="PathCollection_78">
     <g>
      <use style="fill:#5efac6;stroke:#5efac6;" x="448.12" xlink:href="#mdaf51e17ed" y="239.640937"/>
     </g>
    </g>
    <g id="text_44">
     <!-- him-6 -->
     <g transform="translate(466.12 242.265937)scale(0.1 -0.1)">
      <use xlink:href="#DejaVuSans-68"/>
      <use x="63.378906" xlink:href="#DejaVuSans-69"/>
      <use x="91.162109" xlink:href="#DejaVuSans-6d"/>
      <use x="188.574219" xlink:href="#DejaVuSans-2d"/>
      <use x="224.658203" xlink:href="#DejaVuSans-36"/>
     </g>
    </g>
    <g id="PathCollection_79">
     <g>
      <use style="fill:#66fcc2;stroke:#66fcc2;" x="448.12" xlink:href="#m212c439d32" y="254.319062"/>
     </g>
    </g>
    <g id="text_45">
     <!-- xpa-1 -->
     <g transform="translate(466.12 256.944062)scale(0.1 -0.1)">
      <use xlink:href="#DejaVuSans-78"/>
      <use x="59.179688" xlink:href="#DejaVuSans-70"/>
      <use x="122.65625" xlink:href="#DejaVuSans-61"/>
      <use x="183.935547" xlink:href="#DejaVuSans-2d"/>
      <use x="220.019531" xlink:href="#DejaVuSans-31"/>
     </g>
    </g>
    <g id="PathCollection_80">
     <g>
      <use style="fill:#70febc;stroke:#70febc;" x="448.12" xlink:href="#mc12aa8b536" y="268.997187"/>
     </g>
    </g>
    <g id="text_46">
     <!-- rad-54B (gt3312) -->
     <g transform="translate(466.12 271.622187)scale(0.1 -0.1)">
      <use xlink:href="#DejaVuSans-72"/>
      <use x="41.113281" xlink:href="#DejaVuSans-61"/>
      <use x="102.392578" xlink:href="#DejaVuSans-64"/>
      <use x="165.869141" xlink:href="#DejaVuSans-2d"/>
      <use x="201.953125" xlink:href="#DejaVuSans-35"/>
      <use x="265.576172" xlink:href="#DejaVuSans-34"/>
      <use x="329.199219" xlink:href="#DejaVuSans-42"/>
      <use x="397.802734" xlink:href="#DejaVuSans-20"/>
      <use x="429.589844" xlink:href="#DejaVuSans-28"/>
      <use x="468.603516" xlink:href="#DejaVuSans-67"/>
      <use x="532.080078" xlink:href="#DejaVuSans-74"/>
      <use x="571.289062" xlink:href="#DejaVuSans-33"/>
      <use x="634.912109" xlink:href="#DejaVuSans-33"/>
      <use x="698.535156" xlink:href="#DejaVuSans-31"/>
      <use x="762.158203" xlink:href="#DejaVuSans-32"/>
      <use x="825.78125" xlink:href="#DejaVuSans-29"/>
     </g>
    </g>
    <g id="PathCollection_81">
     <g>
      <use style="fill:#7affb7;stroke:#7affb7;" x="448.12" xlink:href="#m796ef9ae96" y="283.675312"/>
     </g>
    </g>
    <g id="text_47">
     <!-- ung-1 -->
     <g transform="translate(466.12 286.300312)scale(0.1 -0.1)">
      <use xlink:href="#DejaVuSans-75"/>
      <use x="63.378906" xlink:href="#DejaVuSans-6e"/>
      <use x="126.757812" xlink:href="#DejaVuSans-67"/>
      <use x="190.234375" xlink:href="#DejaVuSans-2d"/>
      <use x="226.318359" xlink:href="#DejaVuSans-31"/>
     </g>
    </g>
    <g id="PathCollection_82">
     <g>
      <use style="fill:#84ffb2;stroke:#84ffb2;" x="448.12" xlink:href="#m3a9b571f0e" y="298.353437"/>
     </g>
    </g>
    <g id="text_48">
     <!-- rcq-5 -->
     <g transform="translate(466.12 300.978437)scale(0.1 -0.1)">
      <use xlink:href="#DejaVuSans-72"/>
      <use x="38.863281" xlink:href="#DejaVuSans-63"/>
      <use x="93.84375" xlink:href="#DejaVuSans-71"/>
      <use x="157.320312" xlink:href="#DejaVuSans-2d"/>
      <use x="193.404297" xlink:href="#DejaVuSans-35"/>
     </g>
    </g>
    <g id="PathCollection_83">
     <g>
      <use style="fill:#8efeac;stroke:#8efeac;" x="448.12" xlink:href="#mc30badf611" y="313.031562"/>
     </g>
    </g>
    <g id="text_49">
     <!-- exo-3 -->
     <g transform="translate(466.12 315.656562)scale(0.1 -0.1)">
      <use xlink:href="#DejaVuSans-65"/>
      <use x="59.773438" xlink:href="#DejaVuSans-78"/>
      <use x="115.828125" xlink:href="#DejaVuSans-6f"/>
      <use x="178.884766" xlink:href="#DejaVuSans-2d"/>
      <use x="214.96875" xlink:href="#DejaVuSans-33"/>
     </g>
    </g>
    <g id="PathCollection_84">
     <g>
      <use style="fill:#99fca6;stroke:#99fca6;" x="448.12" xlink:href="#m641e280b01" y="327.709687"/>
     </g>
    </g>
    <g id="text_50">
     <!-- ndx-4 -->
     <g transform="translate(466.12 330.334687)scale(0.1 -0.1)">
      <use xlink:href="#DejaVuSans-6e"/>
      <use x="63.378906" xlink:href="#DejaVuSans-64"/>
      <use x="126.855469" xlink:href="#DejaVuSans-78"/>
      <use x="186.035156" xlink:href="#DejaVuSans-2d"/>
      <use x="222.119141" xlink:href="#DejaVuSans-34"/>
     </g>
    </g>
    <g id="PathCollection_85">
     <g>
      <use style="fill:#a0faa1;stroke:#a0faa1;" x="448.12" xlink:href="#m8ba10c3f02" y="342.387812"/>
     </g>
    </g>
    <g id="text_51">
     <!-- polq-1 -->
     <g transform="translate(466.12 345.012812)scale(0.1 -0.1)">
      <use xlink:href="#DejaVuSans-70"/>
      <use x="63.476562" xlink:href="#DejaVuSans-6f"/>
      <use x="124.658203" xlink:href="#DejaVuSans-6c"/>
      <use x="152.441406" xlink:href="#DejaVuSans-71"/>
      <use x="215.917969" xlink:href="#DejaVuSans-2d"/>
      <use x="252.001953" xlink:href="#DejaVuSans-31"/>
     </g>
    </g>
    <g id="PathCollection_86">
     <g>
      <use style="fill:#abf69b;stroke:#abf69b;" x="448.12" xlink:href="#md3558d27fd" y="357.065937"/>
     </g>
    </g>
    <g id="text_52">
     <!-- cku-80 -->
     <g transform="translate(466.12 359.690937)scale(0.1 -0.1)">
      <use xlink:href="#DejaVuSans-63"/>
      <use x="54.980469" xlink:href="#DejaVuSans-6b"/>
      <use x="109.765625" xlink:href="#DejaVuSans-75"/>
      <use x="173.144531" xlink:href="#DejaVuSans-2d"/>
      <use x="209.228516" xlink:href="#DejaVuSans-38"/>
      <use x="272.851562" xlink:href="#DejaVuSans-30"/>
     </g>
    </g>
    <g id="PathCollection_87">
     <g>
      <use style="fill:#b4f295;stroke:#b4f295;" x="448.12" xlink:href="#m55c30d6bdd" y="371.744062"/>
     </g>
    </g>
    <g id="text_53">
     <!-- rev-1 -->
     <g transform="translate(466.12 374.369062)scale(0.1 -0.1)">
      <use xlink:href="#DejaVuSans-72"/>
      <use x="38.863281" xlink:href="#DejaVuSans-65"/>
      <use x="100.386719" xlink:href="#DejaVuSans-76"/>
      <use x="156.941406" xlink:href="#DejaVuSans-2d"/>
      <use x="193.025391" xlink:href="#DejaVuSans-31"/>
     </g>
    </g>
    <g id="PathCollection_88">
     <g>
      <use style="fill:#beec8e;stroke:#beec8e;" x="448.12" xlink:href="#m09e1f5f534" y="386.422187"/>
     </g>
    </g>
    <g id="text_54">
     <!-- agt-2 -->
     <g transform="translate(466.12 389.047187)scale(0.1 -0.1)">
      <use xlink:href="#DejaVuSans-61"/>
      <use x="61.279297" xlink:href="#DejaVuSans-67"/>
      <use x="124.755859" xlink:href="#DejaVuSans-74"/>
      <use x="163.964844" xlink:href="#DejaVuSans-2d"/>
      <use x="200.048828" xlink:href="#DejaVuSans-32"/>
     </g>
    </g>
    <g id="PathCollection_89">
     <g>
      <use style="fill:#c8e688;stroke:#c8e688;" x="448.12" xlink:href="#mcf7515277f" y="401.100312"/>
     </g>
    </g>
    <g id="text_55">
     <!-- fnci-1 -->
     <g transform="translate(466.12 403.725312)scale(0.1 -0.1)">
      <use xlink:href="#DejaVuSans-66"/>
      <use x="35.205078" xlink:href="#DejaVuSans-6e"/>
      <use x="98.583984" xlink:href="#DejaVuSans-63"/>
      <use x="153.564453" xlink:href="#DejaVuSans-69"/>
      <use x="181.347656" xlink:href="#DejaVuSans-2d"/>
      <use x="217.431641" xlink:href="#DejaVuSans-31"/>
     </g>
    </g>
    <g id="PathCollection_90">
     <g>
      <use style="fill:#d2de81;stroke:#d2de81;" x="448.12" xlink:href="#ma1695294d8" y="415.778437"/>
     </g>
    </g>
    <g id="text_56">
     <!-- fan-1 -->
     <g transform="translate(466.12 418.403437)scale(0.1 -0.1)">
      <use xlink:href="#DejaVuSans-66"/>
      <use x="35.205078" xlink:href="#DejaVuSans-61"/>
      <use x="96.484375" xlink:href="#DejaVuSans-6e"/>
      <use x="159.863281" xlink:href="#DejaVuSans-2d"/>
      <use x="195.947266" xlink:href="#DejaVuSans-31"/>
     </g>
    </g>
    <g id="PathCollection_91">
     <g>
      <use style="fill:#dbd87b;stroke:#dbd87b;" x="448.12" xlink:href="#m2282971543" y="430.456563"/>
     </g>
    </g>
    <g id="text_57">
     <!-- dog-1 -->
     <g transform="translate(466.12 433.081563)scale(0.1 -0.1)">
      <use xlink:href="#DejaVuSans-64"/>
      <use x="63.476562" xlink:href="#DejaVuSans-6f"/>
      <use x="124.658203" xlink:href="#DejaVuSans-67"/>
      <use x="188.134766" xlink:href="#DejaVuSans-2d"/>
      <use x="224.21875" xlink:href="#DejaVuSans-31"/>
     </g>
    </g>
    <g id="PathCollection_92">
     <g>
      <use style="fill:#e4cf74;stroke:#e4cf74;" x="448.12" xlink:href="#m42ab04d034" y="445.134688"/>
     </g>
    </g>
    <g id="text_58">
     <!-- lem-3 -->
     <g transform="translate(466.12 447.759688)scale(0.1 -0.1)">
      <use xlink:href="#DejaVuSans-6c"/>
      <use x="27.783203" xlink:href="#DejaVuSans-65"/>
      <use x="89.306641" xlink:href="#DejaVuSans-6d"/>
      <use x="186.71875" xlink:href="#DejaVuSans-2d"/>
      <use x="222.802734" xlink:href="#DejaVuSans-33"/>
     </g>
    </g>
    <g id="PathCollection_93">
     <g>
      <use style="fill:#eec66d;stroke:#eec66d;" x="448.12" xlink:href="#m78916ffa88" y="459.812813"/>
     </g>
    </g>
    <g id="text_59">
     <!-- rip-1 -->
     <g transform="translate(466.12 462.437813)scale(0.1 -0.1)">
      <use xlink:href="#DejaVuSans-72"/>
      <use x="41.113281" xlink:href="#DejaVuSans-69"/>
      <use x="68.896484" xlink:href="#DejaVuSans-70"/>
      <use x="132.373047" xlink:href="#DejaVuSans-2d"/>
      <use x="168.457031" xlink:href="#DejaVuSans-31"/>
     </g>
    </g>
    <g id="PathCollection_94">
     <g>
      <use style="fill:#f9bb66;stroke:#f9bb66;" x="448.12" xlink:href="#m137a2f7a5d" y="474.490938"/>
     </g>
    </g>
    <g id="text_60">
     <!-- san-1 -->
     <g transform="translate(466.12 477.115938)scale(0.1 -0.1)">
      <use xlink:href="#DejaVuSans-73"/>
      <use x="52.099609" xlink:href="#DejaVuSans-61"/>
      <use x="113.378906" xlink:href="#DejaVuSans-6e"/>
      <use x="176.757812" xlink:href="#DejaVuSans-2d"/>
      <use x="212.841797" xlink:href="#DejaVuSans-31"/>
     </g>
    </g>
    <g id="PathCollection_95">
     <g>
      <use style="fill:#ffb05f;stroke:#ffb05f;" x="448.12" xlink:href="#ma5b90326f8" y="489.169063"/>
     </g>
    </g>
    <g id="text_61">
     <!-- fcd-2 -->
     <g transform="translate(466.12 491.794063)scale(0.1 -0.1)">
      <use xlink:href="#DejaVuSans-66"/>
      <use x="35.205078" xlink:href="#DejaVuSans-63"/>
      <use x="90.185547" xlink:href="#DejaVuSans-64"/>
      <use x="153.662109" xlink:href="#DejaVuSans-2d"/>
      <use x="189.746094" xlink:href="#DejaVuSans-32"/>
     </g>
    </g>
    <g id="PathCollection_96">
     <g>
      <use style="fill:#ffa558;stroke:#ffa558;" x="448.12" xlink:href="#m6e7e7b794e" y="503.847188"/>
     </g>
    </g>
    <g id="text_62">
     <!-- ced-4 -->
     <g transform="translate(466.12 506.472188)scale(0.1 -0.1)">
      <use xlink:href="#DejaVuSans-63"/>
      <use x="54.980469" xlink:href="#DejaVuSans-65"/>
      <use x="116.503906" xlink:href="#DejaVuSans-64"/>
      <use x="179.980469" xlink:href="#DejaVuSans-2d"/>
      <use x="216.064453" xlink:href="#DejaVuSans-34"/>
     </g>
    </g>
    <g id="PathCollection_97">
     <g>
      <use style="fill:#ff9b52;stroke:#ff9b52;" x="448.12" xlink:href="#m9e67b6be1f" y="518.525313"/>
     </g>
    </g>
    <g id="text_63">
     <!-- lig-4 -->
     <g transform="translate(466.12 521.150313)scale(0.1 -0.1)">
      <use xlink:href="#DejaVuSans-6c"/>
      <use x="27.783203" xlink:href="#DejaVuSans-69"/>
      <use x="55.566406" xlink:href="#DejaVuSans-67"/>
      <use x="119.042969" xlink:href="#DejaVuSans-2d"/>
      <use x="155.126953" xlink:href="#DejaVuSans-34"/>
     </g>
    </g>
    <g id="PathCollection_98">
     <g>
      <use style="fill:#ff8e4a;stroke:#ff8e4a;" x="448.12" xlink:href="#mf3b68b5cb7" y="533.203438"/>
     </g>
    </g>
    <g id="text_64">
     <!-- exo-1 -->
     <g transform="translate(466.12 535.828438)scale(0.1 -0.1)">
      <use xlink:href="#DejaVuSans-65"/>
      <use x="59.773438" xlink:href="#DejaVuSans-78"/>
      <use x="115.828125" xlink:href="#DejaVuSans-6f"/>
      <use x="178.884766" xlink:href="#DejaVuSans-2d"/>
      <use x="214.96875" xlink:href="#DejaVuSans-31"/>
     </g>
    </g>
    <g id="PathCollection_99">
     <g>
      <use style="fill:#ff8143;stroke:#ff8143;" x="448.12" xlink:href="#m96cd8f6d2b" y="547.881563"/>
     </g>
    </g>
    <g id="text_65">
     <!-- polh-1 -->
     <g transform="translate(466.12 550.506563)scale(0.1 -0.1)">
      <use xlink:href="#DejaVuSans-70"/>
      <use x="63.476562" xlink:href="#DejaVuSans-6f"/>
      <use x="124.658203" xlink:href="#DejaVuSans-6c"/>
      <use x="152.441406" xlink:href="#DejaVuSans-68"/>
      <use x="215.820312" xlink:href="#DejaVuSans-2d"/>
      <use x="251.904297" xlink:href="#DejaVuSans-31"/>
     </g>
    </g>
    <g id="PathCollection_100">
     <g>
      <use style="fill:#ff733b;stroke:#ff733b;" x="448.12" xlink:href="#maa4a7c892f" y="562.559688"/>
     </g>
    </g>
    <g id="text_66">
     <!-- xpc-1 -->
     <g transform="translate(466.12 565.184688)scale(0.1 -0.1)">
      <use xlink:href="#DejaVuSans-78"/>
      <use x="59.179688" xlink:href="#DejaVuSans-70"/>
      <use x="122.65625" xlink:href="#DejaVuSans-63"/>
      <use x="177.636719" xlink:href="#DejaVuSans-2d"/>
      <use x="213.720703" xlink:href="#DejaVuSans-31"/>
     </g>
    </g>
    <g id="PathCollection_101">
     <g>
      <use style="fill:#ff6533;stroke:#ff6533;" x="448.12" xlink:href="#m0789f63c3c" y="577.237813"/>
     </g>
    </g>
    <g id="text_67">
     <!-- mrt-2 -->
     <g transform="translate(466.12 579.862813)scale(0.1 -0.1)">
      <use xlink:href="#DejaVuSans-6d"/>
      <use x="97.412109" xlink:href="#DejaVuSans-72"/>
      <use x="138.525391" xlink:href="#DejaVuSans-74"/>
      <use x="177.734375" xlink:href="#DejaVuSans-2d"/>
      <use x="213.818359" xlink:href="#DejaVuSans-32"/>
     </g>
    </g>
    <g id="PathCollection_102">
     <g>
      <use style="fill:#ff562c;stroke:#ff562c;" x="448.12" xlink:href="#m2658a53dcc" y="591.915938"/>
     </g>
    </g>
    <g id="text_68">
     <!-- brc-1 -->
     <g transform="translate(466.12 594.540938)scale(0.1 -0.1)">
      <use xlink:href="#DejaVuSans-62"/>
      <use x="63.476562" xlink:href="#DejaVuSans-72"/>
      <use x="102.339844" xlink:href="#DejaVuSans-63"/>
      <use x="157.320312" xlink:href="#DejaVuSans-2d"/>
      <use x="193.404297" xlink:href="#DejaVuSans-31"/>
     </g>
    </g>
    <g id="PathCollection_103">
     <g>
      <use style="fill:#ff4a26;stroke:#ff4a26;" x="448.12" xlink:href="#mea24b6237e" y="606.594063"/>
     </g>
    </g>
    <g id="text_69">
     <!-- cep-1 -->
     <g transform="translate(466.12 609.219063)scale(0.1 -0.1)">
      <use xlink:href="#DejaVuSans-63"/>
      <use x="54.980469" xlink:href="#DejaVuSans-65"/>
      <use x="116.503906" xlink:href="#DejaVuSans-70"/>
      <use x="179.980469" xlink:href="#DejaVuSans-2d"/>
      <use x="216.064453" xlink:href="#DejaVuSans-31"/>
     </g>
    </g>
    <g id="PathCollection_104">
     <g>
      <use style="fill:#ff3b1e;stroke:#ff3b1e;" x="448.12" xlink:href="#m80d250d453" y="621.272188"/>
     </g>
    </g>
    <g id="text_70">
     <!-- ced-3 -->
     <g transform="translate(466.12 623.897188)scale(0.1 -0.1)">
      <use xlink:href="#DejaVuSans-63"/>
      <use x="54.980469" xlink:href="#DejaVuSans-65"/>
      <use x="116.503906" xlink:href="#DejaVuSans-64"/>
      <use x="179.980469" xlink:href="#DejaVuSans-2d"/>
      <use x="216.064453" xlink:href="#DejaVuSans-33"/>
     </g>
    </g>
    <g id="PathCollection_105">
     <g>
      <use style="fill:#ff2c16;stroke:#ff2c16;" x="448.12" xlink:href="#mb69dd4f00b" y="635.950313"/>
     </g>
    </g>
    <g id="text_71">
     <!-- dna-2 -->
     <g transform="translate(466.12 638.575313)scale(0.1 -0.1)">
      <use xlink:href="#DejaVuSans-64"/>
      <use x="63.476562" xlink:href="#DejaVuSans-6e"/>
      <use x="126.855469" xlink:href="#DejaVuSans-61"/>
      <use x="188.134766" xlink:href="#DejaVuSans-2d"/>
      <use x="224.21875" xlink:href="#DejaVuSans-32"/>
     </g>
    </g>
    <g id="PathCollection_106">
     <g>
      <use style="fill:#ff1c0e;stroke:#ff1c0e;" x="448.12" xlink:href="#m88157177f6" y="650.628438"/>
     </g>
    </g>
    <g id="text_72">
     <!-- tdp-1 -->
     <g transform="translate(466.12 653.253438)scale(0.1 -0.1)">
      <use xlink:href="#DejaVuSans-74"/>
      <use x="39.208984" xlink:href="#DejaVuSans-64"/>
      <use x="102.685547" xlink:href="#DejaVuSans-70"/>
      <use x="166.162109" xlink:href="#DejaVuSans-2d"/>
      <use x="202.246094" xlink:href="#DejaVuSans-31"/>
     </g>
    </g>
    <g id="PathCollection_107">
     <g>
      <use style="fill:#ff0d06;stroke:#ff0d06;" x="448.12" xlink:href="#m0624d2841d" y="665.306563"/>
     </g>
    </g>
    <g id="text_73">
     <!-- csb-1 -->
     <g transform="translate(466.12 667.931563)scale(0.1 -0.1)">
      <use xlink:href="#DejaVuSans-63"/>
      <use x="54.980469" xlink:href="#DejaVuSans-73"/>
      <use x="107.080078" xlink:href="#DejaVuSans-62"/>
      <use x="170.556641" xlink:href="#DejaVuSans-2d"/>
      <use x="206.640625" xlink:href="#DejaVuSans-31"/>
     </g>
    </g>
    <g id="PathCollection_108">
     <g>
      <use style="fill:#ff0000;stroke:#ff0000;" x="448.12" xlink:href="#m46989637a5" y="679.984688"/>
     </g>
    </g>
    <g id="text_74">
     <!-- xpf-1 -->
     <g transform="translate(466.12 682.609688)scale(0.1 -0.1)">
      <use xlink:href="#DejaVuSans-78"/>
      <use x="59.179688" xlink:href="#DejaVuSans-70"/>
      <use x="122.65625" xlink:href="#DejaVuSans-66"/>
      <use x="152.361328" xlink:href="#DejaVuSans-2d"/>
      <use x="188.445312" xlink:href="#DejaVuSans-31"/>
     </g>
    </g>
   </g>
  </g>
 </g>
 <defs>
  <clipPath id="pb4cc7eff26">
   <rect height="443.52" width="357.12" x="72" y="69.12"/>
  </clipPath>
 </defs>
</svg>
