<?xml version="1.0" encoding="utf-8" standalone="no"?>
<!DOCTYPE svg PUBLIC "-//W3C//DTD SVG 1.1//EN"
  "http://www.w3.org/Graphics/SVG/1.1/DTD/svg11.dtd">
<svg height="498.557344pt" version="1.1" viewBox="0 0 881.669375 498.557344" width="881.669375pt" xmlns="http://www.w3.org/2000/svg" xmlns:xlink="http://www.w3.org/1999/xlink">
 <metadata>
  <rdf:RDF xmlns:cc="http://creativecommons.org/ns#" xmlns:dc="http://purl.org/dc/elements/1.1/" xmlns:rdf="http://www.w3.org/1999/02/22-rdf-syntax-ns#">
   <cc:Work>
    <dc:type rdf:resource="http://purl.org/dc/dcmitype/StillImage"/>
    <dc:date>2021-11-18T00:16:03.103305</dc:date>
    <dc:format>image/svg+xml</dc:format>
    <dc:creator>
     <cc:Agent>
      <dc:title>Matplotlib v3.4.3, https://matplotlib.org/</dc:title>
     </cc:Agent>
    </dc:creator>
   </cc:Work>
  </rdf:RDF>
 </metadata>
 <defs>
  <style type="text/css">*{stroke-linecap:butt;stroke-linejoin:round;}</style>
 </defs>
 <g id="figure_1">
  <g id="patch_1">
   <path d="M -0 498.557344 
L 881.669375 498.557344 
L 881.669375 0 
L -0 0 
z
" style="fill:#ffffff;"/>
  </g>
  <g id="axes_1">
   <g id="patch_2">
    <path d="M 53.389063 456.823125 
L 722.989063 456.823125 
L 722.989063 21.943125 
L 53.389063 21.943125 
z
" style="fill:#eaeaf2;"/>
   </g>
   <g id="matplotlib.axis_1">
    <g id="xtick_1">
     <g id="line2d_1">
      <path clip-path="url(#paaacba7d2b)" d="M 56.87557 456.823125 
L 56.87557 21.943125 
" style="fill:none;stroke:#ffffff;stroke-linecap:round;"/>
     </g>
     <g id="text_1">
      <!-- −8 -->
      <g style="fill:#262626;" transform="translate(50.60471 474.196719)scale(0.11 -0.11)">
       <defs>
        <path d="M 3381 1997 
L 356 1997 
L 356 2522 
L 3381 2522 
L 3381 1997 
z
" id="ArialMT-2212" transform="scale(0.015625)"/>
        <path d="M 1131 2484 
Q 781 2613 612 2850 
Q 444 3088 444 3419 
Q 444 3919 803 4259 
Q 1163 4600 1759 4600 
Q 2359 4600 2725 4251 
Q 3091 3903 3091 3403 
Q 3091 3084 2923 2848 
Q 2756 2613 2416 2484 
Q 2838 2347 3058 2040 
Q 3278 1734 3278 1309 
Q 3278 722 2862 322 
Q 2447 -78 1769 -78 
Q 1091 -78 675 323 
Q 259 725 259 1325 
Q 259 1772 486 2073 
Q 713 2375 1131 2484 
z
M 1019 3438 
Q 1019 3113 1228 2906 
Q 1438 2700 1772 2700 
Q 2097 2700 2305 2904 
Q 2513 3109 2513 3406 
Q 2513 3716 2298 3927 
Q 2084 4138 1766 4138 
Q 1444 4138 1231 3931 
Q 1019 3725 1019 3438 
z
M 838 1322 
Q 838 1081 952 856 
Q 1066 631 1291 507 
Q 1516 384 1775 384 
Q 2178 384 2440 643 
Q 2703 903 2703 1303 
Q 2703 1709 2433 1975 
Q 2163 2241 1756 2241 
Q 1359 2241 1098 1978 
Q 838 1716 838 1322 
z
" id="ArialMT-38" transform="scale(0.015625)"/>
       </defs>
       <use xlink:href="#ArialMT-2212"/>
       <use x="58.398438" xlink:href="#ArialMT-38"/>
      </g>
     </g>
    </g>
    <g id="xtick_2">
     <g id="line2d_2">
      <path clip-path="url(#paaacba7d2b)" d="M 139.606311 456.823125 
L 139.606311 21.943125 
" style="fill:none;stroke:#ffffff;stroke-linecap:round;"/>
     </g>
     <g id="text_2">
      <!-- −6 -->
      <g style="fill:#262626;" transform="translate(133.335452 474.196719)scale(0.11 -0.11)">
       <defs>
        <path d="M 3184 3459 
L 2625 3416 
Q 2550 3747 2413 3897 
Q 2184 4138 1850 4138 
Q 1581 4138 1378 3988 
Q 1113 3794 959 3422 
Q 806 3050 800 2363 
Q 1003 2672 1297 2822 
Q 1591 2972 1913 2972 
Q 2475 2972 2870 2558 
Q 3266 2144 3266 1488 
Q 3266 1056 3080 686 
Q 2894 316 2569 119 
Q 2244 -78 1831 -78 
Q 1128 -78 684 439 
Q 241 956 241 2144 
Q 241 3472 731 4075 
Q 1159 4600 1884 4600 
Q 2425 4600 2770 4297 
Q 3116 3994 3184 3459 
z
M 888 1484 
Q 888 1194 1011 928 
Q 1134 663 1356 523 
Q 1578 384 1822 384 
Q 2178 384 2434 671 
Q 2691 959 2691 1453 
Q 2691 1928 2437 2201 
Q 2184 2475 1800 2475 
Q 1419 2475 1153 2201 
Q 888 1928 888 1484 
z
" id="ArialMT-36" transform="scale(0.015625)"/>
       </defs>
       <use xlink:href="#ArialMT-2212"/>
       <use x="58.398438" xlink:href="#ArialMT-36"/>
      </g>
     </g>
    </g>
    <g id="xtick_3">
     <g id="line2d_3">
      <path clip-path="url(#paaacba7d2b)" d="M 222.337053 456.823125 
L 222.337053 21.943125 
" style="fill:none;stroke:#ffffff;stroke-linecap:round;"/>
     </g>
     <g id="text_3">
      <!-- −4 -->
      <g style="fill:#262626;" transform="translate(216.066194 474.196719)scale(0.11 -0.11)">
       <defs>
        <path d="M 2069 0 
L 2069 1097 
L 81 1097 
L 81 1613 
L 2172 4581 
L 2631 4581 
L 2631 1613 
L 3250 1613 
L 3250 1097 
L 2631 1097 
L 2631 0 
L 2069 0 
z
M 2069 1613 
L 2069 3678 
L 634 1613 
L 2069 1613 
z
" id="ArialMT-34" transform="scale(0.015625)"/>
       </defs>
       <use xlink:href="#ArialMT-2212"/>
       <use x="58.398438" xlink:href="#ArialMT-34"/>
      </g>
     </g>
    </g>
    <g id="xtick_4">
     <g id="line2d_4">
      <path clip-path="url(#paaacba7d2b)" d="M 305.067795 456.823125 
L 305.067795 21.943125 
" style="fill:none;stroke:#ffffff;stroke-linecap:round;"/>
     </g>
     <g id="text_4">
      <!-- −2 -->
      <g style="fill:#262626;" transform="translate(298.796935 474.196719)scale(0.11 -0.11)">
       <defs>
        <path d="M 3222 541 
L 3222 0 
L 194 0 
Q 188 203 259 391 
Q 375 700 629 1000 
Q 884 1300 1366 1694 
Q 2113 2306 2375 2664 
Q 2638 3022 2638 3341 
Q 2638 3675 2398 3904 
Q 2159 4134 1775 4134 
Q 1369 4134 1125 3890 
Q 881 3647 878 3216 
L 300 3275 
Q 359 3922 746 4261 
Q 1134 4600 1788 4600 
Q 2447 4600 2831 4234 
Q 3216 3869 3216 3328 
Q 3216 3053 3103 2787 
Q 2991 2522 2730 2228 
Q 2469 1934 1863 1422 
Q 1356 997 1212 845 
Q 1069 694 975 541 
L 3222 541 
z
" id="ArialMT-32" transform="scale(0.015625)"/>
       </defs>
       <use xlink:href="#ArialMT-2212"/>
       <use x="58.398438" xlink:href="#ArialMT-32"/>
      </g>
     </g>
    </g>
    <g id="xtick_5">
     <g id="line2d_5">
      <path clip-path="url(#paaacba7d2b)" d="M 387.798536 456.823125 
L 387.798536 21.943125 
" style="fill:none;stroke:#ffffff;stroke-linecap:round;"/>
     </g>
     <g id="text_5">
      <!-- 0 -->
      <g style="fill:#262626;" transform="translate(384.740021 474.196719)scale(0.11 -0.11)">
       <defs>
        <path d="M 266 2259 
Q 266 3072 433 3567 
Q 600 4063 929 4331 
Q 1259 4600 1759 4600 
Q 2128 4600 2406 4451 
Q 2684 4303 2865 4023 
Q 3047 3744 3150 3342 
Q 3253 2941 3253 2259 
Q 3253 1453 3087 958 
Q 2922 463 2592 192 
Q 2263 -78 1759 -78 
Q 1097 -78 719 397 
Q 266 969 266 2259 
z
M 844 2259 
Q 844 1131 1108 757 
Q 1372 384 1759 384 
Q 2147 384 2411 759 
Q 2675 1134 2675 2259 
Q 2675 3391 2411 3762 
Q 2147 4134 1753 4134 
Q 1366 4134 1134 3806 
Q 844 3388 844 2259 
z
" id="ArialMT-30" transform="scale(0.015625)"/>
       </defs>
       <use xlink:href="#ArialMT-30"/>
      </g>
     </g>
    </g>
    <g id="xtick_6">
     <g id="line2d_6">
      <path clip-path="url(#paaacba7d2b)" d="M 470.529278 456.823125 
L 470.529278 21.943125 
" style="fill:none;stroke:#ffffff;stroke-linecap:round;"/>
     </g>
     <g id="text_6">
      <!-- 2 -->
      <g style="fill:#262626;" transform="translate(467.470762 474.196719)scale(0.11 -0.11)">
       <use xlink:href="#ArialMT-32"/>
      </g>
     </g>
    </g>
    <g id="xtick_7">
     <g id="line2d_7">
      <path clip-path="url(#paaacba7d2b)" d="M 553.26002 456.823125 
L 553.26002 21.943125 
" style="fill:none;stroke:#ffffff;stroke-linecap:round;"/>
     </g>
     <g id="text_7">
      <!-- 4 -->
      <g style="fill:#262626;" transform="translate(550.201504 474.196719)scale(0.11 -0.11)">
       <use xlink:href="#ArialMT-34"/>
      </g>
     </g>
    </g>
    <g id="xtick_8">
     <g id="line2d_8">
      <path clip-path="url(#paaacba7d2b)" d="M 635.990761 456.823125 
L 635.990761 21.943125 
" style="fill:none;stroke:#ffffff;stroke-linecap:round;"/>
     </g>
     <g id="text_8">
      <!-- 6 -->
      <g style="fill:#262626;" transform="translate(632.932246 474.196719)scale(0.11 -0.11)">
       <use xlink:href="#ArialMT-36"/>
      </g>
     </g>
    </g>
    <g id="xtick_9">
     <g id="line2d_9">
      <path clip-path="url(#paaacba7d2b)" d="M 718.721503 456.823125 
L 718.721503 21.943125 
" style="fill:none;stroke:#ffffff;stroke-linecap:round;"/>
     </g>
     <g id="text_9">
      <!-- 8 -->
      <g style="fill:#262626;" transform="translate(715.662988 474.196719)scale(0.11 -0.11)">
       <use xlink:href="#ArialMT-38"/>
      </g>
     </g>
    </g>
    <g id="text_10">
     <!-- PC 1 -->
     <g style="fill:#262626;" transform="translate(374.850313 488.972344)scale(0.12 -0.12)">
      <defs>
       <path d="M 494 0 
L 494 4581 
L 2222 4581 
Q 2678 4581 2919 4538 
Q 3256 4481 3484 4323 
Q 3713 4166 3852 3881 
Q 3991 3597 3991 3256 
Q 3991 2672 3619 2267 
Q 3247 1863 2275 1863 
L 1100 1863 
L 1100 0 
L 494 0 
z
M 1100 2403 
L 2284 2403 
Q 2872 2403 3119 2622 
Q 3366 2841 3366 3238 
Q 3366 3525 3220 3729 
Q 3075 3934 2838 4000 
Q 2684 4041 2272 4041 
L 1100 4041 
L 1100 2403 
z
" id="ArialMT-50" transform="scale(0.015625)"/>
       <path d="M 3763 1606 
L 4369 1453 
Q 4178 706 3683 314 
Q 3188 -78 2472 -78 
Q 1731 -78 1267 223 
Q 803 525 561 1097 
Q 319 1669 319 2325 
Q 319 3041 592 3573 
Q 866 4106 1370 4382 
Q 1875 4659 2481 4659 
Q 3169 4659 3637 4309 
Q 4106 3959 4291 3325 
L 3694 3184 
Q 3534 3684 3231 3912 
Q 2928 4141 2469 4141 
Q 1941 4141 1586 3887 
Q 1231 3634 1087 3207 
Q 944 2781 944 2328 
Q 944 1744 1114 1308 
Q 1284 872 1643 656 
Q 2003 441 2422 441 
Q 2931 441 3284 734 
Q 3638 1028 3763 1606 
z
" id="ArialMT-43" transform="scale(0.015625)"/>
       <path id="ArialMT-20" transform="scale(0.015625)"/>
       <path d="M 2384 0 
L 1822 0 
L 1822 3584 
Q 1619 3391 1289 3197 
Q 959 3003 697 2906 
L 697 3450 
Q 1169 3672 1522 3987 
Q 1875 4303 2022 4600 
L 2384 4600 
L 2384 0 
z
" id="ArialMT-31" transform="scale(0.015625)"/>
      </defs>
      <use xlink:href="#ArialMT-50"/>
      <use x="66.699219" xlink:href="#ArialMT-43"/>
      <use x="138.916016" xlink:href="#ArialMT-20"/>
      <use x="166.699219" xlink:href="#ArialMT-31"/>
     </g>
    </g>
   </g>
   <g id="matplotlib.axis_2">
    <g id="ytick_1">
     <g id="line2d_10">
      <path clip-path="url(#paaacba7d2b)" d="M 53.389063 450.836404 
L 722.989063 450.836404 
" style="fill:none;stroke:#ffffff;stroke-linecap:round;"/>
     </g>
     <g id="text_11">
      <!-- −7.5 -->
      <g style="fill:#262626;" transform="translate(22.174375 454.773201)scale(0.11 -0.11)">
       <defs>
        <path d="M 303 3981 
L 303 4522 
L 3269 4522 
L 3269 4084 
Q 2831 3619 2401 2847 
Q 1972 2075 1738 1259 
Q 1569 684 1522 0 
L 944 0 
Q 953 541 1156 1306 
Q 1359 2072 1739 2783 
Q 2119 3494 2547 3981 
L 303 3981 
z
" id="ArialMT-37" transform="scale(0.015625)"/>
        <path d="M 581 0 
L 581 641 
L 1222 641 
L 1222 0 
L 581 0 
z
" id="ArialMT-2e" transform="scale(0.015625)"/>
        <path d="M 266 1200 
L 856 1250 
Q 922 819 1161 601 
Q 1400 384 1738 384 
Q 2144 384 2425 690 
Q 2706 997 2706 1503 
Q 2706 1984 2436 2262 
Q 2166 2541 1728 2541 
Q 1456 2541 1237 2417 
Q 1019 2294 894 2097 
L 366 2166 
L 809 4519 
L 3088 4519 
L 3088 3981 
L 1259 3981 
L 1013 2750 
Q 1425 3038 1878 3038 
Q 2478 3038 2890 2622 
Q 3303 2206 3303 1553 
Q 3303 931 2941 478 
Q 2500 -78 1738 -78 
Q 1113 -78 717 272 
Q 322 622 266 1200 
z
" id="ArialMT-35" transform="scale(0.015625)"/>
       </defs>
       <use xlink:href="#ArialMT-2212"/>
       <use x="58.398438" xlink:href="#ArialMT-37"/>
       <use x="114.013672" xlink:href="#ArialMT-2e"/>
       <use x="141.796875" xlink:href="#ArialMT-35"/>
      </g>
     </g>
    </g>
    <g id="ytick_2">
     <g id="line2d_11">
      <path clip-path="url(#paaacba7d2b)" d="M 53.389063 390.737467 
L 722.989063 390.737467 
" style="fill:none;stroke:#ffffff;stroke-linecap:round;"/>
     </g>
     <g id="text_12">
      <!-- −5.0 -->
      <g style="fill:#262626;" transform="translate(22.174375 394.674264)scale(0.11 -0.11)">
       <use xlink:href="#ArialMT-2212"/>
       <use x="58.398438" xlink:href="#ArialMT-35"/>
       <use x="114.013672" xlink:href="#ArialMT-2e"/>
       <use x="141.796875" xlink:href="#ArialMT-30"/>
      </g>
     </g>
    </g>
    <g id="ytick_3">
     <g id="line2d_12">
      <path clip-path="url(#paaacba7d2b)" d="M 53.389063 330.638531 
L 722.989063 330.638531 
" style="fill:none;stroke:#ffffff;stroke-linecap:round;"/>
     </g>
     <g id="text_13">
      <!-- −2.5 -->
      <g style="fill:#262626;" transform="translate(22.174375 334.575328)scale(0.11 -0.11)">
       <use xlink:href="#ArialMT-2212"/>
       <use x="58.398438" xlink:href="#ArialMT-32"/>
       <use x="114.013672" xlink:href="#ArialMT-2e"/>
       <use x="141.796875" xlink:href="#ArialMT-35"/>
      </g>
     </g>
    </g>
    <g id="ytick_4">
     <g id="line2d_13">
      <path clip-path="url(#paaacba7d2b)" d="M 53.389063 270.539594 
L 722.989063 270.539594 
" style="fill:none;stroke:#ffffff;stroke-linecap:round;"/>
     </g>
     <g id="text_14">
      <!-- 0.0 -->
      <g style="fill:#262626;" transform="translate(28.599063 274.476391)scale(0.11 -0.11)">
       <use xlink:href="#ArialMT-30"/>
       <use x="55.615234" xlink:href="#ArialMT-2e"/>
       <use x="83.398438" xlink:href="#ArialMT-30"/>
      </g>
     </g>
    </g>
    <g id="ytick_5">
     <g id="line2d_14">
      <path clip-path="url(#paaacba7d2b)" d="M 53.389063 210.440658 
L 722.989063 210.440658 
" style="fill:none;stroke:#ffffff;stroke-linecap:round;"/>
     </g>
     <g id="text_15">
      <!-- 2.5 -->
      <g style="fill:#262626;" transform="translate(28.599063 214.377455)scale(0.11 -0.11)">
       <use xlink:href="#ArialMT-32"/>
       <use x="55.615234" xlink:href="#ArialMT-2e"/>
       <use x="83.398438" xlink:href="#ArialMT-35"/>
      </g>
     </g>
    </g>
    <g id="ytick_6">
     <g id="line2d_15">
      <path clip-path="url(#paaacba7d2b)" d="M 53.389063 150.341721 
L 722.989063 150.341721 
" style="fill:none;stroke:#ffffff;stroke-linecap:round;"/>
     </g>
     <g id="text_16">
      <!-- 5.0 -->
      <g style="fill:#262626;" transform="translate(28.599063 154.278518)scale(0.11 -0.11)">
       <use xlink:href="#ArialMT-35"/>
       <use x="55.615234" xlink:href="#ArialMT-2e"/>
       <use x="83.398438" xlink:href="#ArialMT-30"/>
      </g>
     </g>
    </g>
    <g id="ytick_7">
     <g id="line2d_16">
      <path clip-path="url(#paaacba7d2b)" d="M 53.389063 90.242785 
L 722.989063 90.242785 
" style="fill:none;stroke:#ffffff;stroke-linecap:round;"/>
     </g>
     <g id="text_17">
      <!-- 7.5 -->
      <g style="fill:#262626;" transform="translate(28.599063 94.179582)scale(0.11 -0.11)">
       <use xlink:href="#ArialMT-37"/>
       <use x="55.615234" xlink:href="#ArialMT-2e"/>
       <use x="83.398438" xlink:href="#ArialMT-35"/>
      </g>
     </g>
    </g>
    <g id="ytick_8">
     <g id="line2d_17">
      <path clip-path="url(#paaacba7d2b)" d="M 53.389063 30.143848 
L 722.989063 30.143848 
" style="fill:none;stroke:#ffffff;stroke-linecap:round;"/>
     </g>
     <g id="text_18">
      <!-- 10.0 -->
      <g style="fill:#262626;" transform="translate(22.482031 34.080645)scale(0.11 -0.11)">
       <use xlink:href="#ArialMT-31"/>
       <use x="55.615234" xlink:href="#ArialMT-30"/>
       <use x="111.230469" xlink:href="#ArialMT-2e"/>
       <use x="139.013672" xlink:href="#ArialMT-30"/>
      </g>
     </g>
    </g>
    <g id="text_19">
     <!-- PC 2 -->
     <g style="fill:#262626;" transform="translate(15.789375 252.721875)rotate(-90)scale(0.12 -0.12)">
      <use xlink:href="#ArialMT-50"/>
      <use x="66.699219" xlink:href="#ArialMT-43"/>
      <use x="138.916016" xlink:href="#ArialMT-20"/>
      <use x="166.699219" xlink:href="#ArialMT-32"/>
     </g>
    </g>
   </g>
   <g id="PathCollection_1">
    <path clip-path="url(#paaacba7d2b)" d="M 667.758162 58.352474 
C 670.011324 58.352474 672.172506 57.457283 673.765733 55.864057 
C 675.358959 54.270831 676.25415 52.109649 676.25415 49.856486 
C 676.25415 47.603324 675.358959 45.442142 673.765733 43.848916 
C 672.172506 42.25569 670.011324 41.360499 667.758162 41.360499 
C 665.505 41.360499 663.343818 42.25569 661.750592 43.848916 
C 660.157366 45.442142 659.262175 47.603324 659.262175 49.856486 
C 659.262175 52.109649 660.157366 54.270831 661.750592 55.864057 
C 663.343818 57.457283 665.505 58.352474 667.758162 58.352474 
z
" style="fill:#023eff;fill-opacity:0.9;stroke:#ffffff;stroke-opacity:0.9;stroke-width:0.644537;"/>
    <path clip-path="url(#paaacba7d2b)" d="M 692.552699 48.813007 
C 694.436333 48.813007 696.243072 48.064631 697.575002 46.732701 
C 698.906932 45.40077 699.655308 43.594032 699.655308 41.710398 
C 699.655308 39.826764 698.906932 38.020025 697.575002 36.688095 
C 696.243072 35.356164 694.436333 34.607789 692.552699 34.607789 
C 690.669065 34.607789 688.862326 35.356164 687.530396 36.688095 
C 686.198466 38.020025 685.45009 39.826764 685.45009 41.710398 
C 685.45009 43.594032 686.198466 45.40077 687.530396 46.732701 
C 688.862326 48.064631 690.669065 48.813007 692.552699 48.813007 
z
" style="fill:#023eff;fill-opacity:0.9;stroke:#ffffff;stroke-opacity:0.9;stroke-width:0.644537;"/>
    <path clip-path="url(#paaacba7d2b)" d="M 621.596833 61.615246 
C 623.603831 61.615246 625.528897 60.817857 626.948058 59.398696 
C 628.36722 57.979534 629.164608 56.054468 629.164608 54.047471 
C 629.164608 52.040474 628.36722 50.115408 626.948058 48.696246 
C 625.528897 47.277085 623.603831 46.479696 621.596833 46.479696 
C 619.589836 46.479696 617.66477 47.277085 616.245609 48.696246 
C 614.826447 50.115408 614.029059 52.040474 614.029059 54.047471 
C 614.029059 56.054468 614.826447 57.979534 616.245609 59.398696 
C 617.66477 60.817857 619.589836 61.615246 621.596833 61.615246 
z
" style="fill:#023eff;fill-opacity:0.9;stroke:#ffffff;stroke-opacity:0.9;stroke-width:0.644537;"/>
    <path clip-path="url(#paaacba7d2b)" d="M 563.327025 417.887131 
C 564.654202 417.887131 565.927201 417.359838 566.865657 416.421382 
C 567.804113 415.482926 568.331406 414.209927 568.331406 412.88275 
C 568.331406 411.555573 567.804113 410.282574 566.865657 409.344118 
C 565.927201 408.405662 564.654202 407.878369 563.327025 407.878369 
C 561.999848 407.878369 560.726849 408.405662 559.788393 409.344118 
C 558.849937 410.282574 558.322644 411.555573 558.322644 412.88275 
C 558.322644 414.209927 558.849937 415.482926 559.788393 416.421382 
C 560.726849 417.359838 561.999848 417.887131 563.327025 417.887131 
z
" style="fill:#ff7c00;fill-opacity:0.9;stroke:#ffffff;stroke-opacity:0.9;stroke-width:0.644537;"/>
    <path clip-path="url(#paaacba7d2b)" d="M 544.554973 441.992779 
C 545.864262 441.992779 547.120101 441.472593 548.045908 440.546787 
C 548.971714 439.62098 549.4919 438.365141 549.4919 437.055852 
C 549.4919 435.746564 548.971714 434.490724 548.045908 433.564918 
C 547.120101 432.639111 545.864262 432.118925 544.554973 432.118925 
C 543.245685 432.118925 541.989845 432.639111 541.064039 433.564918 
C 540.138232 434.490724 539.618046 435.746564 539.618046 437.055852 
C 539.618046 438.365141 540.138232 439.62098 541.064039 440.546787 
C 541.989845 441.472593 543.245685 441.992779 544.554973 441.992779 
z
" style="fill:#ff7c00;fill-opacity:0.9;stroke:#ffffff;stroke-opacity:0.9;stroke-width:0.644537;"/>
    <path clip-path="url(#paaacba7d2b)" d="M 538.296184 420.324157 
C 539.878003 420.324157 541.395247 419.695694 542.513761 418.577179 
C 543.632276 417.458665 544.260739 415.941421 544.260739 414.359602 
C 544.260739 412.777784 543.632276 411.26054 542.513761 410.142025 
C 541.395247 409.023511 539.878003 408.395048 538.296184 408.395048 
C 536.714366 408.395048 535.197122 409.023511 534.078607 410.142025 
C 532.960093 411.26054 532.33163 412.777784 532.33163 414.359602 
C 532.33163 415.941421 532.960093 417.458665 534.078607 418.577179 
C 535.197122 419.695694 536.714366 420.324157 538.296184 420.324157 
z
" style="fill:#ff7c00;fill-opacity:0.9;stroke:#ffffff;stroke-opacity:0.9;stroke-width:0.644537;"/>
    <path clip-path="url(#paaacba7d2b)" d="M 530.63922 412.438624 
C 532.345899 412.438624 533.982906 411.760553 535.18971 410.553749 
C 536.396514 409.346945 537.074585 407.709937 537.074585 406.003259 
C 537.074585 404.29658 536.396514 402.659573 535.18971 401.452769 
C 533.982906 400.245965 532.345899 399.567894 530.63922 399.567894 
C 528.932541 399.567894 527.295534 400.245965 526.08873 401.452769 
C 524.881926 402.659573 524.203855 404.29658 524.203855 406.003259 
C 524.203855 407.709937 524.881926 409.346945 526.08873 410.553749 
C 527.295534 411.760553 528.932541 412.438624 530.63922 412.438624 
z
" style="fill:#ff7c00;fill-opacity:0.9;stroke:#ffffff;stroke-opacity:0.9;stroke-width:0.644537;"/>
    <path clip-path="url(#paaacba7d2b)" d="M 689.675708 75.059747 
C 691.275837 75.059747 692.810643 74.424009 693.942105 73.292547 
C 695.073566 72.161086 695.709304 70.626279 695.709304 69.026151 
C 695.709304 67.426023 695.073566 65.891216 693.942105 64.759754 
C 692.810643 63.628293 691.275837 62.992555 689.675708 62.992555 
C 688.07558 62.992555 686.540773 63.628293 685.409312 64.759754 
C 684.27785 65.891216 683.642112 67.426023 683.642112 69.026151 
C 683.642112 70.626279 684.27785 72.161086 685.409312 73.292547 
C 686.540773 74.424009 688.07558 75.059747 689.675708 75.059747 
z
" style="fill:#1ac938;fill-opacity:0.9;stroke:#ffffff;stroke-opacity:0.9;stroke-width:0.644537;"/>
    <path clip-path="url(#paaacba7d2b)" d="M 628.005984 85.260399 
C 629.637023 85.260399 631.201478 84.612381 632.354796 83.459062 
C 633.508115 82.305744 634.156133 80.741289 634.156133 79.11025 
C 634.156133 77.479212 633.508115 75.914757 632.354796 74.761438 
C 631.201478 73.60812 629.637023 72.960101 628.005984 72.960101 
C 626.374946 72.960101 624.810491 73.60812 623.657172 74.761438 
C 622.503854 75.914757 621.855835 77.479212 621.855835 79.11025 
C 621.855835 80.741289 622.503854 82.305744 623.657172 83.459062 
C 624.810491 84.612381 626.374946 85.260399 628.005984 85.260399 
z
" style="fill:#1ac938;fill-opacity:0.9;stroke:#ffffff;stroke-opacity:0.9;stroke-width:0.644537;"/>
    <path clip-path="url(#paaacba7d2b)" d="M 561.490341 86.276986 
C 562.61497 86.276986 563.69369 85.830166 564.488923 85.034932 
C 565.284156 84.239699 565.730977 83.16098 565.730977 82.03635 
C 565.730977 80.91172 565.284156 79.833001 564.488923 79.037767 
C 563.69369 78.242534 562.61497 77.795714 561.490341 77.795714 
C 560.365711 77.795714 559.286991 78.242534 558.491758 79.037767 
C 557.696525 79.833001 557.249704 80.91172 557.249704 82.03635 
C 557.249704 83.16098 557.696525 84.239699 558.491758 85.034932 
C 559.286991 85.830166 560.365711 86.276986 561.490341 86.276986 
z
" style="fill:#1ac938;fill-opacity:0.9;stroke:#ffffff;stroke-opacity:0.9;stroke-width:0.644537;"/>
    <path clip-path="url(#paaacba7d2b)" d="M 612.465872 114.398944 
C 613.589268 114.398944 614.666804 113.952614 615.461164 113.158253 
C 616.255525 112.363893 616.701855 111.286357 616.701855 110.162961 
C 616.701855 109.039566 616.255525 107.96203 615.461164 107.167669 
C 614.666804 106.373309 613.589268 105.926979 612.465872 105.926979 
C 611.342477 105.926979 610.264941 106.373309 609.47058 107.167669 
C 608.67622 107.96203 608.22989 109.039566 608.22989 110.162961 
C 608.22989 111.286357 608.67622 112.363893 609.47058 113.158253 
C 610.264941 113.952614 611.342477 114.398944 612.465872 114.398944 
z
" style="fill:#1ac938;fill-opacity:0.9;stroke:#ffffff;stroke-opacity:0.9;stroke-width:0.644537;"/>
    <path clip-path="url(#paaacba7d2b)" d="M 443.799413 312.535753 
C 444.869692 312.535753 445.896278 312.110527 446.653079 311.353726 
C 447.40988 310.596925 447.835106 309.570338 447.835106 308.50006 
C 447.835106 307.429782 447.40988 306.403195 446.653079 305.646394 
C 445.896278 304.889593 444.869692 304.464367 443.799413 304.464367 
C 442.729135 304.464367 441.702549 304.889593 440.945748 305.646394 
C 440.188947 306.403195 439.763721 307.429782 439.763721 308.50006 
C 439.763721 309.570338 440.188947 310.596925 440.945748 311.353726 
C 441.702549 312.110527 442.729135 312.535753 443.799413 312.535753 
z
" style="fill:#ff7c00;fill-opacity:0.9;stroke:#ffffff;stroke-opacity:0.9;stroke-width:0.644537;"/>
    <path clip-path="url(#paaacba7d2b)" d="M 502.452262 312.329603 
C 503.545621 312.329603 504.594346 311.895207 505.367468 311.122085 
C 506.140589 310.348964 506.574985 309.300239 506.574985 308.20688 
C 506.574985 307.113521 506.140589 306.064796 505.367468 305.291675 
C 504.594346 304.518553 503.545621 304.084157 502.452262 304.084157 
C 501.358903 304.084157 500.310179 304.518553 499.537057 305.291675 
C 498.763936 306.064796 498.329539 307.113521 498.329539 308.20688 
C 498.329539 309.300239 498.763936 310.348964 499.537057 311.122085 
C 500.310179 311.895207 501.358903 312.329603 502.452262 312.329603 
z
" style="fill:#ff7c00;fill-opacity:0.9;stroke:#ffffff;stroke-opacity:0.9;stroke-width:0.644537;"/>
    <path clip-path="url(#paaacba7d2b)" d="M 479.688323 344.047207 
C 480.883512 344.047207 482.029911 343.572353 482.875038 342.727226 
C 483.720165 341.882099 484.195019 340.7357 484.195019 339.540511 
C 484.195019 338.345321 483.720165 337.198922 482.875038 336.353795 
C 482.029911 335.508669 480.883512 335.033815 479.688323 335.033815 
C 478.493133 335.033815 477.346734 335.508669 476.501607 336.353795 
C 475.656481 337.198922 475.181627 338.345321 475.181627 339.540511 
C 475.181627 340.7357 475.656481 341.882099 476.501607 342.727226 
C 477.346734 343.572353 478.493133 344.047207 479.688323 344.047207 
z
" style="fill:#ff7c00;fill-opacity:0.9;stroke:#ffffff;stroke-opacity:0.9;stroke-width:0.644537;"/>
    <path clip-path="url(#paaacba7d2b)" d="M 503.733837 299.35507 
C 504.949739 299.35507 506.116004 298.871987 506.975776 298.012214 
C 507.835549 297.152442 508.318631 295.986177 508.318631 294.770275 
C 508.318631 293.554374 507.835549 292.388109 506.975776 291.528336 
C 506.116004 290.668564 504.949739 290.185481 503.733837 290.185481 
C 502.517936 290.185481 501.351671 290.668564 500.491898 291.528336 
C 499.632126 292.388109 499.149043 293.554374 499.149043 294.770275 
C 499.149043 295.986177 499.632126 297.152442 500.491898 298.012214 
C 501.351671 298.871987 502.517936 299.35507 503.733837 299.35507 
z
" style="fill:#ff7c00;fill-opacity:0.9;stroke:#ffffff;stroke-opacity:0.9;stroke-width:0.644537;"/>
    <path clip-path="url(#paaacba7d2b)" d="M 509.102581 361.035824 
C 510.076499 361.035824 511.010659 360.648882 511.699324 359.960218 
C 512.387988 359.271553 512.77493 358.337393 512.77493 357.363475 
C 512.77493 356.389556 512.387988 355.455396 511.699324 354.766731 
C 511.010659 354.078067 510.076499 353.691125 509.102581 353.691125 
C 508.128662 353.691125 507.194502 354.078067 506.505837 354.766731 
C 505.817173 355.455396 505.430231 356.389556 505.430231 357.363475 
C 505.430231 358.337393 505.817173 359.271553 506.505837 359.960218 
C 507.194502 360.648882 508.128662 361.035824 509.102581 361.035824 
z
" style="fill:#e8000b;fill-opacity:0.9;stroke:#ffffff;stroke-opacity:0.9;stroke-width:0.644537;"/>
    <path clip-path="url(#paaacba7d2b)" d="M 539.414576 374.538719 
C 540.480959 374.538719 541.503809 374.11504 542.257856 373.360994 
C 543.011902 372.606947 543.435581 371.584097 543.435581 370.517714 
C 543.435581 369.451331 543.011902 368.428481 542.257856 367.674434 
C 541.503809 366.920388 540.480959 366.49671 539.414576 366.49671 
C 538.348193 366.49671 537.325343 366.920388 536.571296 367.674434 
C 535.81725 368.428481 535.393571 369.451331 535.393571 370.517714 
C 535.393571 371.584097 535.81725 372.606947 536.571296 373.360994 
C 537.325343 374.11504 538.348193 374.538719 539.414576 374.538719 
z
" style="fill:#e8000b;fill-opacity:0.9;stroke:#ffffff;stroke-opacity:0.9;stroke-width:0.644537;"/>
    <path clip-path="url(#paaacba7d2b)" d="M 548.167595 358.586523 
C 549.105229 358.586523 550.004587 358.213997 550.667595 357.550989 
C 551.330603 356.887981 551.703129 355.988624 551.703129 355.050989 
C 551.703129 354.113354 551.330603 353.213997 550.667595 352.550989 
C 550.004587 351.887981 549.105229 351.515455 548.167595 351.515455 
C 547.22996 351.515455 546.330603 351.887981 545.667595 352.550989 
C 545.004587 353.213997 544.632061 354.113354 544.632061 355.050989 
C 544.632061 355.988624 545.004587 356.887981 545.667595 357.550989 
C 546.330603 358.213997 547.22996 358.586523 548.167595 358.586523 
z
" style="fill:#e8000b;fill-opacity:0.9;stroke:#ffffff;stroke-opacity:0.9;stroke-width:0.644537;"/>
    <path clip-path="url(#paaacba7d2b)" d="M 606.961508 330.880484 
C 608.187634 330.880484 609.363706 330.393339 610.230709 329.526336 
C 611.097711 328.659334 611.584856 327.483262 611.584856 326.257135 
C 611.584856 325.031009 611.097711 323.854937 610.230709 322.987934 
C 609.363706 322.120932 608.187634 321.633787 606.961508 321.633787 
C 605.735381 321.633787 604.559309 322.120932 603.692307 322.987934 
C 602.825304 323.854937 602.338159 325.031009 602.338159 326.257135 
C 602.338159 327.483262 602.825304 328.659334 603.692307 329.526336 
C 604.559309 330.393339 605.735381 330.880484 606.961508 330.880484 
z
" style="fill:#e8000b;fill-opacity:0.9;stroke:#ffffff;stroke-opacity:0.9;stroke-width:0.644537;"/>
    <path clip-path="url(#paaacba7d2b)" d="M 548.186701 376.757359 
C 549.143375 376.757359 550.060994 376.377269 550.737465 375.700798 
C 551.413936 375.024327 551.794026 374.106708 551.794026 373.150034 
C 551.794026 372.19336 551.413936 371.27574 550.737465 370.599269 
C 550.060994 369.922799 549.143375 369.542708 548.186701 369.542708 
C 547.230027 369.542708 546.312407 369.922799 545.635936 370.599269 
C 544.959466 371.27574 544.579375 372.19336 544.579375 373.150034 
C 544.579375 374.106708 544.959466 375.024327 545.635936 375.700798 
C 546.312407 376.377269 547.230027 376.757359 548.186701 376.757359 
z
" style="fill:#e8000b;fill-opacity:0.9;stroke:#ffffff;stroke-opacity:0.9;stroke-width:0.644537;"/>
    <path clip-path="url(#paaacba7d2b)" d="M 529.768269 335.609357 
C 530.846296 335.609357 531.880315 335.181052 532.642595 334.418772 
C 533.404875 333.656492 533.833179 332.622474 533.833179 331.544447 
C 533.833179 330.46642 533.404875 329.432402 532.642595 328.670122 
C 531.880315 327.907842 530.846296 327.479537 529.768269 327.479537 
C 528.690243 327.479537 527.656224 327.907842 526.893944 328.670122 
C 526.131664 329.432402 525.70336 330.46642 525.70336 331.544447 
C 525.70336 332.622474 526.131664 333.656492 526.893944 334.418772 
C 527.656224 335.181052 528.690243 335.609357 529.768269 335.609357 
z
" style="fill:#e8000b;fill-opacity:0.9;stroke:#ffffff;stroke-opacity:0.9;stroke-width:0.644537;"/>
    <path clip-path="url(#paaacba7d2b)" d="M 552.541592 326.190753 
C 553.640014 326.190753 554.693595 325.754345 555.470297 324.977644 
C 556.246998 324.200942 556.683406 323.147361 556.683406 322.048939 
C 556.683406 320.950516 556.246998 319.896935 555.470297 319.120233 
C 554.693595 318.343532 553.640014 317.907124 552.541592 317.907124 
C 551.443169 317.907124 550.389588 318.343532 549.612886 319.120233 
C 548.836185 319.896935 548.399777 320.950516 548.399777 322.048939 
C 548.399777 323.147361 548.836185 324.200942 549.612886 324.977644 
C 550.389588 325.754345 551.443169 326.190753 552.541592 326.190753 
z
" style="fill:#e8000b;fill-opacity:0.9;stroke:#ffffff;stroke-opacity:0.9;stroke-width:0.644537;"/>
    <path clip-path="url(#paaacba7d2b)" d="M 546.335435 359.285678 
C 547.489288 359.285678 548.596038 358.827247 549.411935 358.01135 
C 550.227832 357.195453 550.686263 356.088704 550.686263 354.934851 
C 550.686263 353.780998 550.227832 352.674248 549.411935 351.858351 
C 548.596038 351.042454 547.489288 350.584023 546.335435 350.584023 
C 545.181583 350.584023 544.074833 351.042454 543.258936 351.858351 
C 542.443039 352.674248 541.984608 353.780998 541.984608 354.934851 
C 541.984608 356.088704 542.443039 357.195453 543.258936 358.01135 
C 544.074833 358.827247 545.181583 359.285678 546.335435 359.285678 
z
" style="fill:#e8000b;fill-opacity:0.9;stroke:#ffffff;stroke-opacity:0.9;stroke-width:0.644537;"/>
    <path clip-path="url(#paaacba7d2b)" d="M 185.409451 285.685733 
C 187.900058 285.685733 190.288992 284.696204 192.050117 282.935079 
C 193.811242 281.173954 194.80077 278.785021 194.80077 276.294414 
C 194.80077 273.803807 193.811242 271.414873 192.050117 269.653748 
C 190.288992 267.892623 187.900058 266.903094 185.409451 266.903094 
C 182.918844 266.903094 180.529911 267.892623 178.768785 269.653748 
C 177.00766 271.414873 176.018132 273.803807 176.018132 276.294414 
C 176.018132 278.785021 177.00766 281.173954 178.768785 282.935079 
C 180.529911 284.696204 182.918844 285.685733 185.409451 285.685733 
z
" style="fill:#8b2be2;fill-opacity:0.9;stroke:#ffffff;stroke-opacity:0.9;stroke-width:0.644537;"/>
    <path clip-path="url(#paaacba7d2b)" d="M 156.95608 301.870669 
C 159.381219 301.870669 161.707358 300.907151 163.42219 299.192318 
C 165.137022 297.477486 166.10054 295.151348 166.10054 292.726209 
C 166.10054 290.30107 165.137022 287.974932 163.42219 286.260099 
C 161.707358 284.545267 159.381219 283.581749 156.95608 283.581749 
C 154.530941 283.581749 152.204803 284.545267 150.489971 286.260099 
C 148.775139 287.974932 147.811621 290.30107 147.811621 292.726209 
C 147.811621 295.151348 148.775139 297.477486 150.489971 299.192318 
C 152.204803 300.907151 154.530941 301.870669 156.95608 301.870669 
z
" style="fill:#8b2be2;fill-opacity:0.9;stroke:#ffffff;stroke-opacity:0.9;stroke-width:0.644537;"/>
    <path clip-path="url(#paaacba7d2b)" d="M 190.259924 274.700402 
C 192.607755 274.700402 194.859741 273.767599 196.519909 272.107431 
C 198.180076 270.447264 199.112879 268.195278 199.112879 265.847446 
C 199.112879 263.499615 198.180076 261.247629 196.519909 259.587461 
C 194.859741 257.927294 192.607755 256.994491 190.259924 256.994491 
C 187.912092 256.994491 185.660106 257.927294 183.999939 259.587461 
C 182.339771 261.247629 181.406968 263.499615 181.406968 265.847446 
C 181.406968 268.195278 182.339771 270.447264 183.999939 272.107431 
C 185.660106 273.767599 187.912092 274.700402 190.259924 274.700402 
z
" style="fill:#8b2be2;fill-opacity:0.9;stroke:#ffffff;stroke-opacity:0.9;stroke-width:0.644537;"/>
    <path clip-path="url(#paaacba7d2b)" d="M 172.226617 291.698976 
C 174.543521 291.698976 176.765843 290.77846 178.404142 289.140161 
C 180.042441 287.501862 180.962956 285.27954 180.962956 282.962636 
C 180.962956 280.645732 180.042441 278.42341 178.404142 276.785111 
C 176.765843 275.146812 174.543521 274.226296 172.226617 274.226296 
C 169.909712 274.226296 167.68739 275.146812 166.049092 276.785111 
C 164.410793 278.42341 163.490277 280.645732 163.490277 282.962636 
C 163.490277 285.27954 164.410793 287.501862 166.049092 289.140161 
C 167.68739 290.77846 169.909712 291.698976 172.226617 291.698976 
z
" style="fill:#8b2be2;fill-opacity:0.9;stroke:#ffffff;stroke-opacity:0.9;stroke-width:0.644537;"/>
    <path clip-path="url(#paaacba7d2b)" d="M 165.132145 298.75135 
C 167.764635 298.75135 170.289659 297.705451 172.15111 295.844 
C 174.012561 293.982549 175.05846 291.457525 175.05846 288.825035 
C 175.05846 286.192545 174.012561 283.667521 172.15111 281.80607 
C 170.289659 279.944619 167.764635 278.89872 165.132145 278.89872 
C 162.499656 278.89872 159.974632 279.944619 158.113181 281.80607 
C 156.251729 283.667521 155.20583 286.192545 155.20583 288.825035 
C 155.20583 291.457525 156.251729 293.982549 158.113181 295.844 
C 159.974632 297.705451 162.499656 298.75135 165.132145 298.75135 
z
" style="fill:#8b2be2;fill-opacity:0.9;stroke:#ffffff;stroke-opacity:0.9;stroke-width:0.644537;"/>
    <path clip-path="url(#paaacba7d2b)" d="M 173.076817 305.214178 
C 175.733435 305.214178 178.281603 304.158692 180.160116 302.280179 
C 182.038629 300.401667 183.094114 297.853499 183.094114 295.19688 
C 183.094114 292.540262 182.038629 289.992094 180.160116 288.113582 
C 178.281603 286.235069 175.733435 285.179583 173.076817 285.179583 
C 170.420198 285.179583 167.872031 286.235069 165.993518 288.113582 
C 164.115005 289.992094 163.059519 292.540262 163.059519 295.19688 
C 163.059519 297.853499 164.115005 300.401667 165.993518 302.280179 
C 167.872031 304.158692 170.420198 305.214178 173.076817 305.214178 
z
" style="fill:#8b2be2;fill-opacity:0.9;stroke:#ffffff;stroke-opacity:0.9;stroke-width:0.644537;"/>
    <path clip-path="url(#paaacba7d2b)" d="M 182.287343 309.811064 
C 184.77014 309.811064 187.151583 308.824638 188.907186 307.069035 
C 190.662789 305.313432 191.649215 302.93199 191.649215 300.449192 
C 191.649215 297.966395 190.662789 295.584952 188.907186 293.82935 
C 187.151583 292.073747 184.77014 291.087321 182.287343 291.087321 
C 179.804546 291.087321 177.423103 292.073747 175.6675 293.82935 
C 173.911898 295.584952 172.925472 297.966395 172.925472 300.449192 
C 172.925472 302.93199 173.911898 305.313432 175.6675 307.069035 
C 177.423103 308.824638 179.804546 309.811064 182.287343 309.811064 
z
" style="fill:#8b2be2;fill-opacity:0.9;stroke:#ffffff;stroke-opacity:0.9;stroke-width:0.644537;"/>
    <path clip-path="url(#paaacba7d2b)" d="M 156.794354 277.784801 
C 159.117237 277.784801 161.345295 276.86191 162.987822 275.219383 
C 164.630348 273.576856 165.55324 271.348798 165.55324 269.025915 
C 165.55324 266.703031 164.630348 264.474973 162.987822 262.832447 
C 161.345295 261.18992 159.117237 260.267028 156.794354 260.267028 
C 154.47147 260.267028 152.243412 261.18992 150.600886 262.832447 
C 148.958359 264.474973 148.035467 266.703031 148.035467 269.025915 
C 148.035467 271.348798 148.958359 273.576856 150.600886 275.219383 
C 152.243412 276.86191 154.47147 277.784801 156.794354 277.784801 
z
" style="fill:#8b2be2;fill-opacity:0.9;stroke:#ffffff;stroke-opacity:0.9;stroke-width:0.644537;"/>
    <path clip-path="url(#paaacba7d2b)" d="M 167.779379 297.589634 
C 170.478475 297.589634 173.067386 296.517272 174.975934 294.608723 
C 176.884483 292.700174 177.956845 290.111263 177.956845 287.412167 
C 177.956845 284.713072 176.884483 282.124161 174.975934 280.215612 
C 173.067386 278.307063 170.478475 277.234701 167.779379 277.234701 
C 165.080283 277.234701 162.491372 278.307063 160.582824 280.215612 
C 158.674275 282.124161 157.601913 284.713072 157.601913 287.412167 
C 157.601913 290.111263 158.674275 292.700174 160.582824 294.608723 
C 162.491372 296.517272 165.080283 297.589634 167.779379 297.589634 
z
" style="fill:#8b2be2;fill-opacity:0.9;stroke:#ffffff;stroke-opacity:0.9;stroke-width:0.644537;"/>
    <path clip-path="url(#paaacba7d2b)" d="M 142.89991 286.850029 
C 145.720638 286.850029 148.426216 285.729341 150.420772 283.734785 
C 152.415329 281.740229 153.536016 279.034651 153.536016 276.213922 
C 153.536016 273.393194 152.415329 270.687616 150.420772 268.69306 
C 148.426216 266.698504 145.720638 265.577816 142.89991 265.577816 
C 140.079181 265.577816 137.373603 266.698504 135.379047 268.69306 
C 133.384491 270.687616 132.263804 273.393194 132.263804 276.213922 
C 132.263804 279.034651 133.384491 281.740229 135.379047 283.734785 
C 137.373603 285.729341 140.079181 286.850029 142.89991 286.850029 
z
" style="fill:#8b2be2;fill-opacity:0.9;stroke:#ffffff;stroke-opacity:0.9;stroke-width:0.644537;"/>
    <path clip-path="url(#paaacba7d2b)" d="M 173.271556 287.186981 
C 176.081444 287.186981 178.776625 286.070601 180.763516 284.08371 
C 182.750407 282.096818 183.866788 279.401638 183.866788 276.591749 
C 183.866788 273.781861 182.750407 271.08668 180.763516 269.099789 
C 178.776625 267.112898 176.081444 265.996517 173.271556 265.996517 
C 170.461667 265.996517 167.766486 267.112898 165.779595 269.099789 
C 163.792704 271.08668 162.676324 273.781861 162.676324 276.591749 
C 162.676324 279.401638 163.792704 282.096818 165.779595 284.08371 
C 167.766486 286.070601 170.461667 287.186981 173.271556 287.186981 
z
" style="fill:#8b2be2;fill-opacity:0.9;stroke:#ffffff;stroke-opacity:0.9;stroke-width:0.644537;"/>
    <path clip-path="url(#paaacba7d2b)" d="M 166.463985 268.391719 
C 168.564859 268.391719 170.57997 267.557033 172.065512 266.071491 
C 173.551054 264.585949 174.385741 262.570838 174.385741 260.469964 
C 174.385741 258.36909 173.551054 256.353979 172.065512 254.868437 
C 170.57997 253.382895 168.564859 252.548209 166.463985 252.548209 
C 164.363111 252.548209 162.348001 253.382895 160.862458 254.868437 
C 159.376916 256.353979 158.54223 258.36909 158.54223 260.469964 
C 158.54223 262.570838 159.376916 264.585949 160.862458 266.071491 
C 162.348001 267.557033 164.363111 268.391719 166.463985 268.391719 
z
" style="fill:#8b2be2;fill-opacity:0.9;stroke:#ffffff;stroke-opacity:0.9;stroke-width:0.644537;"/>
    <path clip-path="url(#paaacba7d2b)" d="M 137.71191 277.977883 
C 140.227455 277.977883 142.640309 276.978446 144.419068 275.199687 
C 146.197827 273.420928 147.197264 271.008074 147.197264 268.492528 
C 147.197264 265.976983 146.197827 263.564129 144.419068 261.78537 
C 142.640309 260.006611 140.227455 259.007174 137.71191 259.007174 
C 135.196364 259.007174 132.78351 260.006611 131.004751 261.78537 
C 129.225992 263.564129 128.226555 265.976983 128.226555 268.492528 
C 128.226555 271.008074 129.225992 273.420928 131.004751 275.199687 
C 132.78351 276.978446 135.196364 277.977883 137.71191 277.977883 
z
" style="fill:#8b2be2;fill-opacity:0.9;stroke:#ffffff;stroke-opacity:0.9;stroke-width:0.644537;"/>
    <path clip-path="url(#paaacba7d2b)" d="M 137.668782 281.78653 
C 140.633843 281.78653 143.477862 280.608499 145.574477 278.511884 
C 147.671091 276.41527 148.849122 273.571251 148.849122 270.60619 
C 148.849122 267.641129 147.671091 264.79711 145.574477 262.700496 
C 143.477862 260.603881 140.633843 259.42585 137.668782 259.42585 
C 134.703722 259.42585 131.859703 260.603881 129.763088 262.700496 
C 127.666474 264.79711 126.488443 267.641129 126.488443 270.60619 
C 126.488443 273.571251 127.666474 276.41527 129.763088 278.511884 
C 131.859703 280.608499 134.703722 281.78653 137.668782 281.78653 
z
" style="fill:#8b2be2;fill-opacity:0.9;stroke:#ffffff;stroke-opacity:0.9;stroke-width:0.644537;"/>
    <path clip-path="url(#paaacba7d2b)" d="M 168.623595 286.234969 
C 171.351319 286.234969 173.96769 285.151232 175.896483 283.22244 
C 177.825275 281.293647 178.909012 278.677276 178.909012 275.949552 
C 178.909012 273.221828 177.825275 270.605456 175.896483 268.676664 
C 173.96769 266.747872 171.351319 265.664135 168.623595 265.664135 
C 165.89587 265.664135 163.279499 266.747872 161.350707 268.676664 
C 159.421915 270.605456 158.338178 273.221828 158.338178 275.949552 
C 158.338178 278.677276 159.421915 281.293647 161.350707 283.22244 
C 163.279499 285.151232 165.89587 286.234969 168.623595 286.234969 
z
" style="fill:#8b2be2;fill-opacity:0.9;stroke:#ffffff;stroke-opacity:0.9;stroke-width:0.644537;"/>
    <path clip-path="url(#paaacba7d2b)" d="M 519.575839 369.09761 
C 520.598394 369.09761 521.579206 368.691344 522.302262 367.968289 
C 523.025317 367.245233 523.431583 366.264421 523.431583 365.241866 
C 523.431583 364.219311 523.025317 363.238499 522.302262 362.515444 
C 521.579206 361.792388 520.598394 361.386122 519.575839 361.386122 
C 518.553284 361.386122 517.572472 361.792388 516.849417 362.515444 
C 516.126361 363.238499 515.720095 364.219311 515.720095 365.241866 
C 515.720095 366.264421 516.126361 367.245233 516.849417 367.968289 
C 517.572472 368.691344 518.553284 369.09761 519.575839 369.09761 
z
" style="fill:#8b2be2;fill-opacity:0.9;stroke:#ffffff;stroke-opacity:0.9;stroke-width:0.644537;"/>
    <path clip-path="url(#paaacba7d2b)" d="M 485.009601 401.468164 
C 486.142832 401.468164 487.229801 401.017926 488.031117 400.216611 
C 488.832432 399.415295 489.28267 398.328326 489.28267 397.195095 
C 489.28267 396.061864 488.832432 394.974894 488.031117 394.173579 
C 487.229801 393.372264 486.142832 392.922026 485.009601 392.922026 
C 483.87637 392.922026 482.7894 393.372264 481.988085 394.173579 
C 481.18677 394.974894 480.736532 396.061864 480.736532 397.195095 
C 480.736532 398.328326 481.18677 399.415295 481.988085 400.216611 
C 482.7894 401.017926 483.87637 401.468164 485.009601 401.468164 
z
" style="fill:#8b2be2;fill-opacity:0.9;stroke:#ffffff;stroke-opacity:0.9;stroke-width:0.644537;"/>
    <path clip-path="url(#paaacba7d2b)" d="M 502.140811 342.420788 
C 503.297066 342.420788 504.406119 341.961403 505.223715 341.143807 
C 506.04131 340.326212 506.500695 339.217158 506.500695 338.060904 
C 506.500695 336.904649 506.04131 335.795596 505.223715 334.978 
C 504.406119 334.160404 503.297066 333.701019 502.140811 333.701019 
C 500.984556 333.701019 499.875503 334.160404 499.057907 334.978 
C 498.240312 335.795596 497.780927 336.904649 497.780927 338.060904 
C 497.780927 339.217158 498.240312 340.326212 499.057907 341.143807 
C 499.875503 341.961403 500.984556 342.420788 502.140811 342.420788 
z
" style="fill:#8b2be2;fill-opacity:0.9;stroke:#ffffff;stroke-opacity:0.9;stroke-width:0.644537;"/>
    <path clip-path="url(#paaacba7d2b)" d="M 457.442557 381.804933 
C 458.672073 381.804933 459.851396 381.316441 460.720795 380.447042 
C 461.590194 379.577643 462.078686 378.39832 462.078686 377.168804 
C 462.078686 375.939288 461.590194 374.759965 460.720795 373.890566 
C 459.851396 373.021167 458.672073 372.532676 457.442557 372.532676 
C 456.213041 372.532676 455.033718 373.021167 454.164319 373.890566 
C 453.29492 374.759965 452.806428 375.939288 452.806428 377.168804 
C 452.806428 378.39832 453.29492 379.577643 454.164319 380.447042 
C 455.033718 381.316441 456.213041 381.804933 457.442557 381.804933 
z
" style="fill:#8b2be2;fill-opacity:0.9;stroke:#ffffff;stroke-opacity:0.9;stroke-width:0.644537;"/>
    <path clip-path="url(#paaacba7d2b)" d="M 83.825426 137.270904 
C 85.953851 137.270904 87.995388 136.425272 89.500412 134.920248 
C 91.005436 133.415224 91.851069 131.373687 91.851069 129.245262 
C 91.851069 127.116836 91.005436 125.075299 89.500412 123.570275 
C 87.995388 122.065251 85.953851 121.219619 83.825426 121.219619 
C 81.697001 121.219619 79.655464 122.065251 78.15044 123.570275 
C 76.645416 125.075299 75.799784 127.116836 75.799784 129.245262 
C 75.799784 131.373687 76.645416 133.415224 78.15044 134.920248 
C 79.655464 136.425272 81.697001 137.270904 83.825426 137.270904 
z
" style="fill:#8b2be2;fill-opacity:0.9;stroke:#ffffff;stroke-opacity:0.9;stroke-width:0.644537;"/>
    <path clip-path="url(#paaacba7d2b)" d="M 130.687532 152.054978 
C 132.92463 152.054978 135.070403 151.16617 136.65227 149.584302 
C 138.234137 148.002435 139.122946 145.856662 139.122946 143.619564 
C 139.122946 141.382466 138.234137 139.236693 136.65227 137.654826 
C 135.070403 136.072959 132.92463 135.18415 130.687532 135.18415 
C 128.450434 135.18415 126.304661 136.072959 124.722793 137.654826 
C 123.140926 139.236693 122.252118 141.382466 122.252118 143.619564 
C 122.252118 145.856662 123.140926 148.002435 124.722793 149.584302 
C 126.304661 151.16617 128.450434 152.054978 130.687532 152.054978 
z
" style="fill:#8b2be2;fill-opacity:0.9;stroke:#ffffff;stroke-opacity:0.9;stroke-width:0.644537;"/>
    <path clip-path="url(#paaacba7d2b)" d="M 114.054505 171.837342 
C 116.16526 171.837342 118.189849 170.99873 119.682378 169.506201 
C 121.174907 168.013671 122.013519 165.989083 122.013519 163.878328 
C 122.013519 161.767573 121.174907 159.742985 119.682378 158.250456 
C 118.189849 156.757926 116.16526 155.919315 114.054505 155.919315 
C 111.94375 155.919315 109.919162 156.757926 108.426633 158.250456 
C 106.934104 159.742985 106.095492 161.767573 106.095492 163.878328 
C 106.095492 165.989083 106.934104 168.013671 108.426633 169.506201 
C 109.919162 170.99873 111.94375 171.837342 114.054505 171.837342 
z
" style="fill:#8b2be2;fill-opacity:0.9;stroke:#ffffff;stroke-opacity:0.9;stroke-width:0.644537;"/>
    <path clip-path="url(#paaacba7d2b)" d="M 108.919459 153.748551 
C 111.183676 153.748551 113.355461 152.848968 114.956504 151.247925 
C 116.557547 149.646881 117.45713 147.475096 117.45713 145.210879 
C 117.45713 142.946662 116.557547 140.774877 114.956504 139.173834 
C 113.355461 137.572791 111.183676 136.673208 108.919459 136.673208 
C 106.655242 136.673208 104.483457 137.572791 102.882414 139.173834 
C 101.281371 140.774877 100.381788 142.946662 100.381788 145.210879 
C 100.381788 147.475096 101.281371 149.646881 102.882414 151.247925 
C 104.483457 152.848968 106.655242 153.748551 108.919459 153.748551 
z
" style="fill:#8b2be2;fill-opacity:0.9;stroke:#ffffff;stroke-opacity:0.9;stroke-width:0.644537;"/>
   </g>
   <g id="PathCollection_2"/>
   <g id="PathCollection_3"/>
   <g id="PathCollection_4"/>
   <g id="PathCollection_5"/>
   <g id="PathCollection_6"/>
   <g id="PathCollection_7"/>
   <g id="PathCollection_8"/>
   <g id="PathCollection_9"/>
   <g id="PathCollection_10"/>
   <g id="PathCollection_11"/>
   <g id="patch_3">
    <path d="M 53.389063 456.823125 
L 53.389063 21.943125 
" style="fill:none;stroke:#ffffff;stroke-linecap:square;stroke-linejoin:miter;stroke-width:1.25;"/>
   </g>
   <g id="patch_4">
    <path d="M 722.989063 456.823125 
L 722.989063 21.943125 
" style="fill:none;stroke:#ffffff;stroke-linecap:square;stroke-linejoin:miter;stroke-width:1.25;"/>
   </g>
   <g id="patch_5">
    <path d="M 53.389063 456.823125 
L 722.989063 456.823125 
" style="fill:none;stroke:#ffffff;stroke-linecap:square;stroke-linejoin:miter;stroke-width:1.25;"/>
   </g>
   <g id="patch_6">
    <path d="M 53.389063 21.943125 
L 722.989063 21.943125 
" style="fill:none;stroke:#ffffff;stroke-linecap:square;stroke-linejoin:miter;stroke-width:1.25;"/>
   </g>
   <g id="text_20">
    <!-- PCA - Zou - SBS - Subpathway_KO - all -->
    <g style="fill:#262626;" transform="translate(281.480938 15.943125)scale(0.12 -0.12)">
     <defs>
      <path d="M -9 0 
L 1750 4581 
L 2403 4581 
L 4278 0 
L 3588 0 
L 3053 1388 
L 1138 1388 
L 634 0 
L -9 0 
z
M 1313 1881 
L 2866 1881 
L 2388 3150 
Q 2169 3728 2063 4100 
Q 1975 3659 1816 3225 
L 1313 1881 
z
" id="ArialMT-41" transform="scale(0.015625)"/>
      <path d="M 203 1375 
L 203 1941 
L 1931 1941 
L 1931 1375 
L 203 1375 
z
" id="ArialMT-2d" transform="scale(0.015625)"/>
      <path d="M 128 0 
L 128 563 
L 2475 3497 
Q 2725 3809 2950 4041 
L 394 4041 
L 394 4581 
L 3675 4581 
L 3675 4041 
L 1103 863 
L 825 541 
L 3750 541 
L 3750 0 
L 128 0 
z
" id="ArialMT-5a" transform="scale(0.015625)"/>
      <path d="M 213 1659 
Q 213 2581 725 3025 
Q 1153 3394 1769 3394 
Q 2453 3394 2887 2945 
Q 3322 2497 3322 1706 
Q 3322 1066 3130 698 
Q 2938 331 2570 128 
Q 2203 -75 1769 -75 
Q 1072 -75 642 372 
Q 213 819 213 1659 
z
M 791 1659 
Q 791 1022 1069 705 
Q 1347 388 1769 388 
Q 2188 388 2466 706 
Q 2744 1025 2744 1678 
Q 2744 2294 2464 2611 
Q 2184 2928 1769 2928 
Q 1347 2928 1069 2612 
Q 791 2297 791 1659 
z
" id="ArialMT-6f" transform="scale(0.015625)"/>
      <path d="M 2597 0 
L 2597 488 
Q 2209 -75 1544 -75 
Q 1250 -75 995 37 
Q 741 150 617 320 
Q 494 491 444 738 
Q 409 903 409 1263 
L 409 3319 
L 972 3319 
L 972 1478 
Q 972 1038 1006 884 
Q 1059 663 1231 536 
Q 1403 409 1656 409 
Q 1909 409 2131 539 
Q 2353 669 2445 892 
Q 2538 1116 2538 1541 
L 2538 3319 
L 3100 3319 
L 3100 0 
L 2597 0 
z
" id="ArialMT-75" transform="scale(0.015625)"/>
      <path d="M 288 1472 
L 859 1522 
Q 900 1178 1048 958 
Q 1197 738 1509 602 
Q 1822 466 2213 466 
Q 2559 466 2825 569 
Q 3091 672 3220 851 
Q 3350 1031 3350 1244 
Q 3350 1459 3225 1620 
Q 3100 1781 2813 1891 
Q 2628 1963 1997 2114 
Q 1366 2266 1113 2400 
Q 784 2572 623 2826 
Q 463 3081 463 3397 
Q 463 3744 659 4045 
Q 856 4347 1234 4503 
Q 1613 4659 2075 4659 
Q 2584 4659 2973 4495 
Q 3363 4331 3572 4012 
Q 3781 3694 3797 3291 
L 3216 3247 
Q 3169 3681 2898 3903 
Q 2628 4125 2100 4125 
Q 1550 4125 1298 3923 
Q 1047 3722 1047 3438 
Q 1047 3191 1225 3031 
Q 1400 2872 2139 2705 
Q 2878 2538 3153 2413 
Q 3553 2228 3743 1945 
Q 3934 1663 3934 1294 
Q 3934 928 3725 604 
Q 3516 281 3123 101 
Q 2731 -78 2241 -78 
Q 1619 -78 1198 103 
Q 778 284 539 648 
Q 300 1013 288 1472 
z
" id="ArialMT-53" transform="scale(0.015625)"/>
      <path d="M 469 0 
L 469 4581 
L 2188 4581 
Q 2713 4581 3030 4442 
Q 3347 4303 3526 4014 
Q 3706 3725 3706 3409 
Q 3706 3116 3547 2856 
Q 3388 2597 3066 2438 
Q 3481 2316 3704 2022 
Q 3928 1728 3928 1328 
Q 3928 1006 3792 729 
Q 3656 453 3456 303 
Q 3256 153 2954 76 
Q 2653 0 2216 0 
L 469 0 
z
M 1075 2656 
L 2066 2656 
Q 2469 2656 2644 2709 
Q 2875 2778 2992 2937 
Q 3109 3097 3109 3338 
Q 3109 3566 3000 3739 
Q 2891 3913 2687 3977 
Q 2484 4041 1991 4041 
L 1075 4041 
L 1075 2656 
z
M 1075 541 
L 2216 541 
Q 2509 541 2628 563 
Q 2838 600 2978 687 
Q 3119 775 3209 942 
Q 3300 1109 3300 1328 
Q 3300 1584 3169 1773 
Q 3038 1963 2805 2039 
Q 2572 2116 2134 2116 
L 1075 2116 
L 1075 541 
z
" id="ArialMT-42" transform="scale(0.015625)"/>
      <path d="M 941 0 
L 419 0 
L 419 4581 
L 981 4581 
L 981 2947 
Q 1338 3394 1891 3394 
Q 2197 3394 2470 3270 
Q 2744 3147 2920 2923 
Q 3097 2700 3197 2384 
Q 3297 2069 3297 1709 
Q 3297 856 2875 390 
Q 2453 -75 1863 -75 
Q 1275 -75 941 416 
L 941 0 
z
M 934 1684 
Q 934 1088 1097 822 
Q 1363 388 1816 388 
Q 2184 388 2453 708 
Q 2722 1028 2722 1663 
Q 2722 2313 2464 2622 
Q 2206 2931 1841 2931 
Q 1472 2931 1203 2611 
Q 934 2291 934 1684 
z
" id="ArialMT-62" transform="scale(0.015625)"/>
      <path d="M 422 -1272 
L 422 3319 
L 934 3319 
L 934 2888 
Q 1116 3141 1344 3267 
Q 1572 3394 1897 3394 
Q 2322 3394 2647 3175 
Q 2972 2956 3137 2557 
Q 3303 2159 3303 1684 
Q 3303 1175 3120 767 
Q 2938 359 2589 142 
Q 2241 -75 1856 -75 
Q 1575 -75 1351 44 
Q 1128 163 984 344 
L 984 -1272 
L 422 -1272 
z
M 931 1641 
Q 931 1000 1190 694 
Q 1450 388 1819 388 
Q 2194 388 2461 705 
Q 2728 1022 2728 1688 
Q 2728 2322 2467 2637 
Q 2206 2953 1844 2953 
Q 1484 2953 1207 2617 
Q 931 2281 931 1641 
z
" id="ArialMT-70" transform="scale(0.015625)"/>
      <path d="M 2588 409 
Q 2275 144 1986 34 
Q 1697 -75 1366 -75 
Q 819 -75 525 192 
Q 231 459 231 875 
Q 231 1119 342 1320 
Q 453 1522 633 1644 
Q 813 1766 1038 1828 
Q 1203 1872 1538 1913 
Q 2219 1994 2541 2106 
Q 2544 2222 2544 2253 
Q 2544 2597 2384 2738 
Q 2169 2928 1744 2928 
Q 1347 2928 1158 2789 
Q 969 2650 878 2297 
L 328 2372 
Q 403 2725 575 2942 
Q 747 3159 1072 3276 
Q 1397 3394 1825 3394 
Q 2250 3394 2515 3294 
Q 2781 3194 2906 3042 
Q 3031 2891 3081 2659 
Q 3109 2516 3109 2141 
L 3109 1391 
Q 3109 606 3145 398 
Q 3181 191 3288 0 
L 2700 0 
Q 2613 175 2588 409 
z
M 2541 1666 
Q 2234 1541 1622 1453 
Q 1275 1403 1131 1340 
Q 988 1278 909 1158 
Q 831 1038 831 891 
Q 831 666 1001 516 
Q 1172 366 1500 366 
Q 1825 366 2078 508 
Q 2331 650 2450 897 
Q 2541 1088 2541 1459 
L 2541 1666 
z
" id="ArialMT-61" transform="scale(0.015625)"/>
      <path d="M 1650 503 
L 1731 6 
Q 1494 -44 1306 -44 
Q 1000 -44 831 53 
Q 663 150 594 308 
Q 525 466 525 972 
L 525 2881 
L 113 2881 
L 113 3319 
L 525 3319 
L 525 4141 
L 1084 4478 
L 1084 3319 
L 1650 3319 
L 1650 2881 
L 1084 2881 
L 1084 941 
Q 1084 700 1114 631 
Q 1144 563 1211 522 
Q 1278 481 1403 481 
Q 1497 481 1650 503 
z
" id="ArialMT-74" transform="scale(0.015625)"/>
      <path d="M 422 0 
L 422 4581 
L 984 4581 
L 984 2938 
Q 1378 3394 1978 3394 
Q 2347 3394 2619 3248 
Q 2891 3103 3008 2847 
Q 3125 2591 3125 2103 
L 3125 0 
L 2563 0 
L 2563 2103 
Q 2563 2525 2380 2717 
Q 2197 2909 1863 2909 
Q 1613 2909 1392 2779 
Q 1172 2650 1078 2428 
Q 984 2206 984 1816 
L 984 0 
L 422 0 
z
" id="ArialMT-68" transform="scale(0.015625)"/>
      <path d="M 1034 0 
L 19 3319 
L 600 3319 
L 1128 1403 
L 1325 691 
Q 1338 744 1497 1375 
L 2025 3319 
L 2603 3319 
L 3100 1394 
L 3266 759 
L 3456 1400 
L 4025 3319 
L 4572 3319 
L 3534 0 
L 2950 0 
L 2422 1988 
L 2294 2553 
L 1622 0 
L 1034 0 
z
" id="ArialMT-77" transform="scale(0.015625)"/>
      <path d="M 397 -1278 
L 334 -750 
Q 519 -800 656 -800 
Q 844 -800 956 -737 
Q 1069 -675 1141 -563 
Q 1194 -478 1313 -144 
Q 1328 -97 1363 -6 
L 103 3319 
L 709 3319 
L 1400 1397 
Q 1534 1031 1641 628 
Q 1738 1016 1872 1384 
L 2581 3319 
L 3144 3319 
L 1881 -56 
Q 1678 -603 1566 -809 
Q 1416 -1088 1222 -1217 
Q 1028 -1347 759 -1347 
Q 597 -1347 397 -1278 
z
" id="ArialMT-79" transform="scale(0.015625)"/>
      <path d="M -97 -1272 
L -97 -866 
L 3631 -866 
L 3631 -1272 
L -97 -1272 
z
" id="ArialMT-5f" transform="scale(0.015625)"/>
      <path d="M 469 0 
L 469 4581 
L 1075 4581 
L 1075 2309 
L 3350 4581 
L 4172 4581 
L 2250 2725 
L 4256 0 
L 3456 0 
L 1825 2319 
L 1075 1588 
L 1075 0 
L 469 0 
z
" id="ArialMT-4b" transform="scale(0.015625)"/>
      <path d="M 309 2231 
Q 309 3372 921 4017 
Q 1534 4663 2503 4663 
Q 3138 4663 3647 4359 
Q 4156 4056 4423 3514 
Q 4691 2972 4691 2284 
Q 4691 1588 4409 1038 
Q 4128 488 3612 205 
Q 3097 -78 2500 -78 
Q 1853 -78 1343 234 
Q 834 547 571 1087 
Q 309 1628 309 2231 
z
M 934 2222 
Q 934 1394 1379 917 
Q 1825 441 2497 441 
Q 3181 441 3623 922 
Q 4066 1403 4066 2288 
Q 4066 2847 3877 3264 
Q 3688 3681 3323 3911 
Q 2959 4141 2506 4141 
Q 1863 4141 1398 3698 
Q 934 3256 934 2222 
z
" id="ArialMT-4f" transform="scale(0.015625)"/>
      <path d="M 409 0 
L 409 4581 
L 972 4581 
L 972 0 
L 409 0 
z
" id="ArialMT-6c" transform="scale(0.015625)"/>
     </defs>
     <use xlink:href="#ArialMT-50"/>
     <use x="66.699219" xlink:href="#ArialMT-43"/>
     <use x="138.916016" xlink:href="#ArialMT-41"/>
     <use x="200.115234" xlink:href="#ArialMT-20"/>
     <use x="227.898438" xlink:href="#ArialMT-2d"/>
     <use x="261.199219" xlink:href="#ArialMT-20"/>
     <use x="288.982422" xlink:href="#ArialMT-5a"/>
     <use x="350.066406" xlink:href="#ArialMT-6f"/>
     <use x="405.681641" xlink:href="#ArialMT-75"/>
     <use x="461.296875" xlink:href="#ArialMT-20"/>
     <use x="489.080078" xlink:href="#ArialMT-2d"/>
     <use x="522.380859" xlink:href="#ArialMT-20"/>
     <use x="550.164062" xlink:href="#ArialMT-53"/>
     <use x="616.863281" xlink:href="#ArialMT-42"/>
     <use x="683.5625" xlink:href="#ArialMT-53"/>
     <use x="750.261719" xlink:href="#ArialMT-20"/>
     <use x="778.044922" xlink:href="#ArialMT-2d"/>
     <use x="811.345703" xlink:href="#ArialMT-20"/>
     <use x="839.128906" xlink:href="#ArialMT-53"/>
     <use x="905.828125" xlink:href="#ArialMT-75"/>
     <use x="961.443359" xlink:href="#ArialMT-62"/>
     <use x="1017.058594" xlink:href="#ArialMT-70"/>
     <use x="1072.673828" xlink:href="#ArialMT-61"/>
     <use x="1128.289062" xlink:href="#ArialMT-74"/>
     <use x="1156.072266" xlink:href="#ArialMT-68"/>
     <use x="1211.6875" xlink:href="#ArialMT-77"/>
     <use x="1283.904297" xlink:href="#ArialMT-61"/>
     <use x="1339.519531" xlink:href="#ArialMT-79"/>
     <use x="1389.519531" xlink:href="#ArialMT-5f"/>
     <use x="1445.134766" xlink:href="#ArialMT-4b"/>
     <use x="1511.833984" xlink:href="#ArialMT-4f"/>
     <use x="1589.617188" xlink:href="#ArialMT-20"/>
     <use x="1617.400391" xlink:href="#ArialMT-2d"/>
     <use x="1650.701172" xlink:href="#ArialMT-20"/>
     <use x="1678.484375" xlink:href="#ArialMT-61"/>
     <use x="1734.099609" xlink:href="#ArialMT-6c"/>
     <use x="1756.316406" xlink:href="#ArialMT-6c"/>
    </g>
   </g>
   <g id="legend_1">
    <g id="patch_7">
     <path d="M 725.189063 212.494062 
L 872.269375 212.494062 
Q 874.469375 212.494062 874.469375 210.294062 
L 874.469375 24.143125 
Q 874.469375 21.943125 872.269375 21.943125 
L 725.189063 21.943125 
Q 722.989063 21.943125 722.989063 24.143125 
L 722.989063 210.294062 
Q 722.989063 212.494062 725.189063 212.494062 
z
" style="fill:#eaeaf2;opacity:0.8;stroke:#cccccc;stroke-linejoin:miter;"/>
    </g>
    <g id="text_21">
     <!-- Subpathway_KO -->
     <g style="fill:#262626;" transform="translate(758.189062 34.357656)scale(0.11 -0.11)">
      <use xlink:href="#ArialMT-53"/>
      <use x="66.699219" xlink:href="#ArialMT-75"/>
      <use x="122.314453" xlink:href="#ArialMT-62"/>
      <use x="177.929688" xlink:href="#ArialMT-70"/>
      <use x="233.544922" xlink:href="#ArialMT-61"/>
      <use x="289.160156" xlink:href="#ArialMT-74"/>
      <use x="316.943359" xlink:href="#ArialMT-68"/>
      <use x="372.558594" xlink:href="#ArialMT-77"/>
      <use x="444.775391" xlink:href="#ArialMT-61"/>
      <use x="500.390625" xlink:href="#ArialMT-79"/>
      <use x="550.390625" xlink:href="#ArialMT-5f"/>
      <use x="606.005859" xlink:href="#ArialMT-4b"/>
      <use x="672.705078" xlink:href="#ArialMT-4f"/>
     </g>
    </g>
    <g id="PathCollection_12">
     <defs>
      <path d="M 0 3 
C 0.795609 3 1.55874 2.683901 2.12132 2.12132 
C 2.683901 1.55874 3 0.795609 3 0 
C 3 -0.795609 2.683901 -1.55874 2.12132 -2.12132 
C 1.55874 -2.683901 0.795609 -3 0 -3 
C -0.795609 -3 -1.55874 -2.683901 -2.12132 -2.12132 
C -2.683901 -1.55874 -3 -0.795609 -3 0 
C -3 0.795609 -2.683901 1.55874 -2.12132 2.12132 
C -1.55874 2.683901 -0.795609 3 0 3 
z
" id="mb84772c3f4" style="stroke:#023eff;"/>
     </defs>
     <g>
      <use style="fill:#023eff;stroke:#023eff;" x="738.389063" xlink:href="#mb84772c3f4" y="47.158906"/>
     </g>
    </g>
    <g id="text_22">
     <!-- HR and HR regulation -->
     <g style="fill:#262626;" transform="translate(758.189062 50.046406)scale(0.11 -0.11)">
      <defs>
       <path d="M 513 0 
L 513 4581 
L 1119 4581 
L 1119 2700 
L 3500 2700 
L 3500 4581 
L 4106 4581 
L 4106 0 
L 3500 0 
L 3500 2159 
L 1119 2159 
L 1119 0 
L 513 0 
z
" id="ArialMT-48" transform="scale(0.015625)"/>
       <path d="M 503 0 
L 503 4581 
L 2534 4581 
Q 3147 4581 3465 4457 
Q 3784 4334 3975 4021 
Q 4166 3709 4166 3331 
Q 4166 2844 3850 2509 
Q 3534 2175 2875 2084 
Q 3116 1969 3241 1856 
Q 3506 1613 3744 1247 
L 4541 0 
L 3778 0 
L 3172 953 
Q 2906 1366 2734 1584 
Q 2563 1803 2427 1890 
Q 2291 1978 2150 2013 
Q 2047 2034 1813 2034 
L 1109 2034 
L 1109 0 
L 503 0 
z
M 1109 2559 
L 2413 2559 
Q 2828 2559 3062 2645 
Q 3297 2731 3419 2920 
Q 3541 3109 3541 3331 
Q 3541 3656 3305 3865 
Q 3069 4075 2559 4075 
L 1109 4075 
L 1109 2559 
z
" id="ArialMT-52" transform="scale(0.015625)"/>
       <path d="M 422 0 
L 422 3319 
L 928 3319 
L 928 2847 
Q 1294 3394 1984 3394 
Q 2284 3394 2536 3286 
Q 2788 3178 2913 3003 
Q 3038 2828 3088 2588 
Q 3119 2431 3119 2041 
L 3119 0 
L 2556 0 
L 2556 2019 
Q 2556 2363 2490 2533 
Q 2425 2703 2258 2804 
Q 2091 2906 1866 2906 
Q 1506 2906 1245 2678 
Q 984 2450 984 1813 
L 984 0 
L 422 0 
z
" id="ArialMT-6e" transform="scale(0.015625)"/>
       <path d="M 2575 0 
L 2575 419 
Q 2259 -75 1647 -75 
Q 1250 -75 917 144 
Q 584 363 401 755 
Q 219 1147 219 1656 
Q 219 2153 384 2558 
Q 550 2963 881 3178 
Q 1213 3394 1622 3394 
Q 1922 3394 2156 3267 
Q 2391 3141 2538 2938 
L 2538 4581 
L 3097 4581 
L 3097 0 
L 2575 0 
z
M 797 1656 
Q 797 1019 1065 703 
Q 1334 388 1700 388 
Q 2069 388 2326 689 
Q 2584 991 2584 1609 
Q 2584 2291 2321 2609 
Q 2059 2928 1675 2928 
Q 1300 2928 1048 2622 
Q 797 2316 797 1656 
z
" id="ArialMT-64" transform="scale(0.015625)"/>
       <path d="M 416 0 
L 416 3319 
L 922 3319 
L 922 2816 
Q 1116 3169 1280 3281 
Q 1444 3394 1641 3394 
Q 1925 3394 2219 3213 
L 2025 2691 
Q 1819 2813 1613 2813 
Q 1428 2813 1281 2702 
Q 1134 2591 1072 2394 
Q 978 2094 978 1738 
L 978 0 
L 416 0 
z
" id="ArialMT-72" transform="scale(0.015625)"/>
       <path d="M 2694 1069 
L 3275 997 
Q 3138 488 2766 206 
Q 2394 -75 1816 -75 
Q 1088 -75 661 373 
Q 234 822 234 1631 
Q 234 2469 665 2931 
Q 1097 3394 1784 3394 
Q 2450 3394 2872 2941 
Q 3294 2488 3294 1666 
Q 3294 1616 3291 1516 
L 816 1516 
Q 847 969 1125 678 
Q 1403 388 1819 388 
Q 2128 388 2347 550 
Q 2566 713 2694 1069 
z
M 847 1978 
L 2700 1978 
Q 2663 2397 2488 2606 
Q 2219 2931 1791 2931 
Q 1403 2931 1139 2672 
Q 875 2413 847 1978 
z
" id="ArialMT-65" transform="scale(0.015625)"/>
       <path d="M 319 -275 
L 866 -356 
Q 900 -609 1056 -725 
Q 1266 -881 1628 -881 
Q 2019 -881 2231 -725 
Q 2444 -569 2519 -288 
Q 2563 -116 2559 434 
Q 2191 0 1641 0 
Q 956 0 581 494 
Q 206 988 206 1678 
Q 206 2153 378 2554 
Q 550 2956 876 3175 
Q 1203 3394 1644 3394 
Q 2231 3394 2613 2919 
L 2613 3319 
L 3131 3319 
L 3131 450 
Q 3131 -325 2973 -648 
Q 2816 -972 2473 -1159 
Q 2131 -1347 1631 -1347 
Q 1038 -1347 672 -1080 
Q 306 -813 319 -275 
z
M 784 1719 
Q 784 1066 1043 766 
Q 1303 466 1694 466 
Q 2081 466 2343 764 
Q 2606 1063 2606 1700 
Q 2606 2309 2336 2618 
Q 2066 2928 1684 2928 
Q 1309 2928 1046 2623 
Q 784 2319 784 1719 
z
" id="ArialMT-67" transform="scale(0.015625)"/>
       <path d="M 425 3934 
L 425 4581 
L 988 4581 
L 988 3934 
L 425 3934 
z
M 425 0 
L 425 3319 
L 988 3319 
L 988 0 
L 425 0 
z
" id="ArialMT-69" transform="scale(0.015625)"/>
      </defs>
      <use xlink:href="#ArialMT-48"/>
      <use x="72.216797" xlink:href="#ArialMT-52"/>
      <use x="144.433594" xlink:href="#ArialMT-20"/>
      <use x="172.216797" xlink:href="#ArialMT-61"/>
      <use x="227.832031" xlink:href="#ArialMT-6e"/>
      <use x="283.447266" xlink:href="#ArialMT-64"/>
      <use x="339.0625" xlink:href="#ArialMT-20"/>
      <use x="366.845703" xlink:href="#ArialMT-48"/>
      <use x="439.0625" xlink:href="#ArialMT-52"/>
      <use x="511.279297" xlink:href="#ArialMT-20"/>
      <use x="539.0625" xlink:href="#ArialMT-72"/>
      <use x="572.363281" xlink:href="#ArialMT-65"/>
      <use x="627.978516" xlink:href="#ArialMT-67"/>
      <use x="683.59375" xlink:href="#ArialMT-75"/>
      <use x="739.208984" xlink:href="#ArialMT-6c"/>
      <use x="761.425781" xlink:href="#ArialMT-61"/>
      <use x="817.041016" xlink:href="#ArialMT-74"/>
      <use x="844.824219" xlink:href="#ArialMT-69"/>
      <use x="867.041016" xlink:href="#ArialMT-6f"/>
      <use x="922.65625" xlink:href="#ArialMT-6e"/>
     </g>
    </g>
    <g id="PathCollection_13">
     <defs>
      <path d="M 0 3 
C 0.795609 3 1.55874 2.683901 2.12132 2.12132 
C 2.683901 1.55874 3 0.795609 3 0 
C 3 -0.795609 2.683901 -1.55874 2.12132 -2.12132 
C 1.55874 -2.683901 0.795609 -3 0 -3 
C -0.795609 -3 -1.55874 -2.683901 -2.12132 -2.12132 
C -2.683901 -1.55874 -3 -0.795609 -3 0 
C -3 0.795609 -2.683901 1.55874 -2.12132 2.12132 
C -1.55874 2.683901 -0.795609 3 0 3 
z
" id="m9d533741df" style="stroke:#ff7c00;"/>
     </defs>
     <g>
      <use style="fill:#ff7c00;stroke:#ff7c00;" x="738.389063" xlink:href="#m9d533741df" y="62.847656"/>
     </g>
    </g>
    <g id="text_23">
     <!-- BER -->
     <g style="fill:#262626;" transform="translate(758.189062 65.735156)scale(0.11 -0.11)">
      <defs>
       <path d="M 506 0 
L 506 4581 
L 3819 4581 
L 3819 4041 
L 1113 4041 
L 1113 2638 
L 3647 2638 
L 3647 2100 
L 1113 2100 
L 1113 541 
L 3925 541 
L 3925 0 
L 506 0 
z
" id="ArialMT-45" transform="scale(0.015625)"/>
      </defs>
      <use xlink:href="#ArialMT-42"/>
      <use x="66.699219" xlink:href="#ArialMT-45"/>
      <use x="133.398438" xlink:href="#ArialMT-52"/>
     </g>
    </g>
    <g id="PathCollection_14">
     <defs>
      <path d="M 0 3 
C 0.795609 3 1.55874 2.683901 2.12132 2.12132 
C 2.683901 1.55874 3 0.795609 3 0 
C 3 -0.795609 2.683901 -1.55874 2.12132 -2.12132 
C 1.55874 -2.683901 0.795609 -3 0 -3 
C -0.795609 -3 -1.55874 -2.683901 -2.12132 -2.12132 
C -2.683901 -1.55874 -3 -0.795609 -3 0 
C -3 0.795609 -2.683901 1.55874 -2.12132 2.12132 
C -1.55874 2.683901 -0.795609 3 0 3 
z
" id="meb2496f95f" style="stroke:#1ac938;"/>
     </defs>
     <g>
      <use style="fill:#1ac938;stroke:#1ac938;" x="738.389063" xlink:href="#meb2496f95f" y="78.541562"/>
     </g>
    </g>
    <g id="text_24">
     <!-- Checkpoint/DSB repair -->
     <g style="fill:#262626;" transform="translate(758.189062 81.429062)scale(0.11 -0.11)">
      <defs>
       <path d="M 2588 1216 
L 3141 1144 
Q 3050 572 2676 248 
Q 2303 -75 1759 -75 
Q 1078 -75 664 370 
Q 250 816 250 1647 
Q 250 2184 428 2587 
Q 606 2991 970 3192 
Q 1334 3394 1763 3394 
Q 2303 3394 2647 3120 
Q 2991 2847 3088 2344 
L 2541 2259 
Q 2463 2594 2264 2762 
Q 2066 2931 1784 2931 
Q 1359 2931 1093 2626 
Q 828 2322 828 1663 
Q 828 994 1084 691 
Q 1341 388 1753 388 
Q 2084 388 2306 591 
Q 2528 794 2588 1216 
z
" id="ArialMT-63" transform="scale(0.015625)"/>
       <path d="M 425 0 
L 425 4581 
L 988 4581 
L 988 1969 
L 2319 3319 
L 3047 3319 
L 1778 2088 
L 3175 0 
L 2481 0 
L 1384 1697 
L 988 1316 
L 988 0 
L 425 0 
z
" id="ArialMT-6b" transform="scale(0.015625)"/>
       <path d="M 0 -78 
L 1328 4659 
L 1778 4659 
L 453 -78 
L 0 -78 
z
" id="ArialMT-2f" transform="scale(0.015625)"/>
       <path d="M 494 0 
L 494 4581 
L 2072 4581 
Q 2606 4581 2888 4516 
Q 3281 4425 3559 4188 
Q 3922 3881 4101 3404 
Q 4281 2928 4281 2316 
Q 4281 1794 4159 1391 
Q 4038 988 3847 723 
Q 3656 459 3429 307 
Q 3203 156 2883 78 
Q 2563 0 2147 0 
L 494 0 
z
M 1100 541 
L 2078 541 
Q 2531 541 2789 625 
Q 3047 709 3200 863 
Q 3416 1078 3536 1442 
Q 3656 1806 3656 2325 
Q 3656 3044 3420 3430 
Q 3184 3816 2847 3947 
Q 2603 4041 2063 4041 
L 1100 4041 
L 1100 541 
z
" id="ArialMT-44" transform="scale(0.015625)"/>
      </defs>
      <use xlink:href="#ArialMT-43"/>
      <use x="72.216797" xlink:href="#ArialMT-68"/>
      <use x="127.832031" xlink:href="#ArialMT-65"/>
      <use x="183.447266" xlink:href="#ArialMT-63"/>
      <use x="233.447266" xlink:href="#ArialMT-6b"/>
      <use x="283.447266" xlink:href="#ArialMT-70"/>
      <use x="339.0625" xlink:href="#ArialMT-6f"/>
      <use x="394.677734" xlink:href="#ArialMT-69"/>
      <use x="416.894531" xlink:href="#ArialMT-6e"/>
      <use x="472.509766" xlink:href="#ArialMT-74"/>
      <use x="500.292969" xlink:href="#ArialMT-2f"/>
      <use x="528.076172" xlink:href="#ArialMT-44"/>
      <use x="600.292969" xlink:href="#ArialMT-53"/>
      <use x="666.992188" xlink:href="#ArialMT-42"/>
      <use x="733.691406" xlink:href="#ArialMT-20"/>
      <use x="761.474609" xlink:href="#ArialMT-72"/>
      <use x="794.775391" xlink:href="#ArialMT-65"/>
      <use x="850.390625" xlink:href="#ArialMT-70"/>
      <use x="906.005859" xlink:href="#ArialMT-61"/>
      <use x="961.621094" xlink:href="#ArialMT-69"/>
      <use x="983.837891" xlink:href="#ArialMT-72"/>
     </g>
    </g>
    <g id="PathCollection_15">
     <defs>
      <path d="M 0 3 
C 0.795609 3 1.55874 2.683901 2.12132 2.12132 
C 2.683901 1.55874 3 0.795609 3 0 
C 3 -0.795609 2.683901 -1.55874 2.12132 -2.12132 
C 1.55874 -2.683901 0.795609 -3 0 -3 
C -0.795609 -3 -1.55874 -2.683901 -2.12132 -2.12132 
C -2.683901 -1.55874 -3 -0.795609 -3 0 
C -3 0.795609 -2.683901 1.55874 -2.12132 2.12132 
C -1.55874 2.683901 -0.795609 3 0 3 
z
" id="m1393fd2468" style="stroke:#e8000b;"/>
     </defs>
     <g>
      <use style="fill:#e8000b;stroke:#e8000b;" x="738.389063" xlink:href="#m1393fd2468" y="94.101406"/>
     </g>
    </g>
    <g id="text_25">
     <!-- Control -->
     <g style="fill:#262626;" transform="translate(758.189062 96.988906)scale(0.11 -0.11)">
      <use xlink:href="#ArialMT-43"/>
      <use x="72.216797" xlink:href="#ArialMT-6f"/>
      <use x="127.832031" xlink:href="#ArialMT-6e"/>
      <use x="183.447266" xlink:href="#ArialMT-74"/>
      <use x="211.230469" xlink:href="#ArialMT-72"/>
      <use x="244.53125" xlink:href="#ArialMT-6f"/>
      <use x="300.146484" xlink:href="#ArialMT-6c"/>
     </g>
    </g>
    <g id="PathCollection_16">
     <defs>
      <path d="M 0 3 
C 0.795609 3 1.55874 2.683901 2.12132 2.12132 
C 2.683901 1.55874 3 0.795609 3 0 
C 3 -0.795609 2.683901 -1.55874 2.12132 -2.12132 
C 1.55874 -2.683901 0.795609 -3 0 -3 
C -0.795609 -3 -1.55874 -2.683901 -2.12132 -2.12132 
C -2.683901 -1.55874 -3 -0.795609 -3 0 
C -3 0.795609 -2.683901 1.55874 -2.12132 2.12132 
C -1.55874 2.683901 -0.795609 3 0 3 
z
" id="mf943ed51c3" style="stroke:#8b2be2;"/>
     </defs>
     <g>
      <use style="fill:#8b2be2;stroke:#8b2be2;" x="738.389063" xlink:href="#mf943ed51c3" y="109.66125"/>
     </g>
    </g>
    <g id="text_26">
     <!-- MMR -->
     <g style="fill:#262626;" transform="translate(758.189062 112.54875)scale(0.11 -0.11)">
      <defs>
       <path d="M 475 0 
L 475 4581 
L 1388 4581 
L 2472 1338 
Q 2622 884 2691 659 
Q 2769 909 2934 1394 
L 4031 4581 
L 4847 4581 
L 4847 0 
L 4263 0 
L 4263 3834 
L 2931 0 
L 2384 0 
L 1059 3900 
L 1059 0 
L 475 0 
z
" id="ArialMT-4d" transform="scale(0.015625)"/>
      </defs>
      <use xlink:href="#ArialMT-4d"/>
      <use x="83.300781" xlink:href="#ArialMT-4d"/>
      <use x="166.601562" xlink:href="#ArialMT-52"/>
     </g>
    </g>
    <g id="text_27">
     <!-- Count -->
     <g style="fill:#262626;" transform="translate(758.189062 128.108594)scale(0.11 -0.11)">
      <use xlink:href="#ArialMT-43"/>
      <use x="72.216797" xlink:href="#ArialMT-6f"/>
      <use x="127.832031" xlink:href="#ArialMT-75"/>
      <use x="183.447266" xlink:href="#ArialMT-6e"/>
      <use x="239.0625" xlink:href="#ArialMT-74"/>
     </g>
    </g>
    <g id="PathCollection_17">
     <defs>
      <path d="M 0 5.193908 
C 1.377441 5.193908 2.69865 4.646645 3.672648 3.672648 
C 4.646645 2.69865 5.193908 1.377441 5.193908 0 
C 5.193908 -1.377441 4.646645 -2.69865 3.672648 -3.672648 
C 2.69865 -4.646645 1.377441 -5.193908 0 -5.193908 
C -1.377441 -5.193908 -2.69865 -4.646645 -3.672648 -3.672648 
C -4.646645 -2.69865 -5.193908 -1.377441 -5.193908 0 
C -5.193908 1.377441 -4.646645 2.69865 -3.672648 3.672648 
C -2.69865 4.646645 -1.377441 5.193908 0 5.193908 
z
" id="m7e8042a42f" style="stroke:#333333;"/>
     </defs>
     <g>
      <use style="fill:#333333;stroke:#333333;" x="738.389063" xlink:href="#m7e8042a42f" y="140.780937"/>
     </g>
    </g>
    <g id="text_28">
     <!-- 500 -->
     <g style="fill:#262626;" transform="translate(758.189062 143.668437)scale(0.11 -0.11)">
      <use xlink:href="#ArialMT-35"/>
      <use x="55.615234" xlink:href="#ArialMT-30"/>
      <use x="111.230469" xlink:href="#ArialMT-30"/>
     </g>
    </g>
    <g id="PathCollection_18">
     <defs>
      <path d="M 0 6.833717 
C 1.812323 6.833717 3.550662 6.113673 4.832167 4.832167 
C 6.113673 3.550662 6.833717 1.812323 6.833717 0 
C 6.833717 -1.812323 6.113673 -3.550662 4.832167 -4.832167 
C 3.550662 -6.113673 1.812323 -6.833717 0 -6.833717 
C -1.812323 -6.833717 -3.550662 -6.113673 -4.832167 -4.832167 
C -6.113673 -3.550662 -6.833717 -1.812323 -6.833717 0 
C -6.833717 1.812323 -6.113673 3.550662 -4.832167 4.832167 
C -3.550662 6.113673 -1.812323 6.833717 0 6.833717 
z
" id="mb2e1c8f0ef" style="stroke:#333333;"/>
     </defs>
     <g>
      <use style="fill:#333333;stroke:#333333;" x="738.389063" xlink:href="#mb2e1c8f0ef" y="156.340781"/>
     </g>
    </g>
    <g id="text_29">
     <!-- 1000 -->
     <g style="fill:#262626;" transform="translate(758.189062 159.228281)scale(0.11 -0.11)">
      <use xlink:href="#ArialMT-31"/>
      <use x="55.615234" xlink:href="#ArialMT-30"/>
      <use x="111.230469" xlink:href="#ArialMT-30"/>
      <use x="166.845703" xlink:href="#ArialMT-30"/>
     </g>
    </g>
    <g id="PathCollection_19">
     <defs>
      <path d="M 0 8.150011 
C 2.161408 8.150011 4.234582 7.291275 5.762928 5.762928 
C 7.291275 4.234582 8.150011 2.161408 8.150011 0 
C 8.150011 -2.161408 7.291275 -4.234582 5.762928 -5.762928 
C 4.234582 -7.291275 2.161408 -8.150011 0 -8.150011 
C -2.161408 -8.150011 -4.234582 -7.291275 -5.762928 -5.762928 
C -7.291275 -4.234582 -8.150011 -2.161408 -8.150011 0 
C -8.150011 2.161408 -7.291275 4.234582 -5.762928 5.762928 
C -4.234582 7.291275 -2.161408 8.150011 0 8.150011 
z
" id="m03efd5322e" style="stroke:#333333;"/>
     </defs>
     <g>
      <use style="fill:#333333;stroke:#333333;" x="738.389063" xlink:href="#m03efd5322e" y="171.900625"/>
     </g>
    </g>
    <g id="text_30">
     <!-- 1500 -->
     <g style="fill:#262626;" transform="translate(758.189062 174.788125)scale(0.11 -0.11)">
      <use xlink:href="#ArialMT-31"/>
      <use x="55.615234" xlink:href="#ArialMT-35"/>
      <use x="111.230469" xlink:href="#ArialMT-30"/>
      <use x="166.845703" xlink:href="#ArialMT-30"/>
     </g>
    </g>
    <g id="PathCollection_20">
     <defs>
      <path d="M 0 9.28147 
C 2.461475 9.28147 4.822465 8.303516 6.56299 6.56299 
C 8.303516 4.822465 9.28147 2.461475 9.28147 0 
C 9.28147 -2.461475 8.303516 -4.822465 6.56299 -6.56299 
C 4.822465 -8.303516 2.461475 -9.28147 0 -9.28147 
C -2.461475 -9.28147 -4.822465 -8.303516 -6.56299 -6.56299 
C -8.303516 -4.822465 -9.28147 -2.461475 -9.28147 0 
C -9.28147 2.461475 -8.303516 4.822465 -6.56299 6.56299 
C -4.822465 8.303516 -2.461475 9.28147 0 9.28147 
z
" id="m2160460e70" style="stroke:#333333;"/>
     </defs>
     <g>
      <use style="fill:#333333;stroke:#333333;" x="738.389063" xlink:href="#m2160460e70" y="187.460469"/>
     </g>
    </g>
    <g id="text_31">
     <!-- 2000 -->
     <g style="fill:#262626;" transform="translate(758.189062 190.347969)scale(0.11 -0.11)">
      <use xlink:href="#ArialMT-32"/>
      <use x="55.615234" xlink:href="#ArialMT-30"/>
      <use x="111.230469" xlink:href="#ArialMT-30"/>
      <use x="166.845703" xlink:href="#ArialMT-30"/>
     </g>
    </g>
    <g id="PathCollection_21">
     <defs>
      <path d="M 0 10.289251 
C 2.728741 10.289251 5.346088 9.205111 7.275599 7.275599 
C 9.205111 5.346088 10.289251 2.728741 10.289251 0 
C 10.289251 -2.728741 9.205111 -5.346088 7.275599 -7.275599 
C 5.346088 -9.205111 2.728741 -10.289251 0 -10.289251 
C -2.728741 -10.289251 -5.346088 -9.205111 -7.275599 -7.275599 
C -9.205111 -5.346088 -10.289251 -2.728741 -10.289251 0 
C -10.289251 2.728741 -9.205111 5.346088 -7.275599 7.275599 
C -5.346088 9.205111 -2.728741 10.289251 0 10.289251 
z
" id="m7fc92ba200" style="stroke:#333333;"/>
     </defs>
     <g>
      <use style="fill:#333333;stroke:#333333;" x="738.389063" xlink:href="#m7fc92ba200" y="203.020312"/>
     </g>
    </g>
    <g id="text_32">
     <!-- 2500 -->
     <g style="fill:#262626;" transform="translate(758.189062 205.907812)scale(0.11 -0.11)">
      <use xlink:href="#ArialMT-32"/>
      <use x="55.615234" xlink:href="#ArialMT-35"/>
      <use x="111.230469" xlink:href="#ArialMT-30"/>
      <use x="166.845703" xlink:href="#ArialMT-30"/>
     </g>
    </g>
   </g>
  </g>
 </g>
 <defs>
  <clipPath id="paaacba7d2b">
   <rect height="434.88" width="669.6" x="53.389063" y="21.943125"/>
  </clipPath>
 </defs>
</svg>
