<?xml version="1.0" encoding="utf-8" standalone="no"?>
<!DOCTYPE svg PUBLIC "-//W3C//DTD SVG 1.1//EN"
  "http://www.w3.org/Graphics/SVG/1.1/DTD/svg11.dtd">
<svg height="576pt" version="1.1" viewBox="0 0 864 576" width="864pt" xmlns="http://www.w3.org/2000/svg" xmlns:xlink="http://www.w3.org/1999/xlink">
 <metadata>
  <rdf:RDF xmlns:cc="http://creativecommons.org/ns#" xmlns:dc="http://purl.org/dc/elements/1.1/" xmlns:rdf="http://www.w3.org/1999/02/22-rdf-syntax-ns#">
   <cc:Work>
    <dc:type rdf:resource="http://purl.org/dc/dcmitype/StillImage"/>
    <dc:date>2021-11-17T11:19:42.082419</dc:date>
    <dc:format>image/svg+xml</dc:format>
    <dc:creator>
     <cc:Agent>
      <dc:title>Matplotlib v3.4.3, https://matplotlib.org/</dc:title>
     </cc:Agent>
    </dc:creator>
   </cc:Work>
  </rdf:RDF>
 </metadata>
 <defs>
  <style type="text/css">*{stroke-linecap:butt;stroke-linejoin:round;}</style>
 </defs>
 <g id="figure_1">
  <g id="patch_1">
   <path d="M 0 576 
L 864 576 
L 864 0 
L 0 0 
z
" style="fill:#ffffff;"/>
  </g>
  <g id="axes_1">
   <g id="patch_2">
    <path d="M 108 504 
L 777.6 504 
L 777.6 69.12 
L 108 69.12 
z
" style="fill:#eaeaf2;"/>
   </g>
   <g id="matplotlib.axis_1">
    <g id="xtick_1">
     <g id="line2d_1">
      <path clip-path="url(#p09b028f7cd)" d="M 181.905298 504 
L 181.905298 69.12 
" style="fill:none;stroke:#ffffff;stroke-linecap:round;"/>
     </g>
     <g id="text_1">
      <!-- −2.5 -->
      <g style="fill:#262626;" transform="translate(171.047954 521.373594)scale(0.11 -0.11)">
       <defs>
        <path d="M 3381 1997 
L 356 1997 
L 356 2522 
L 3381 2522 
L 3381 1997 
z
" id="ArialMT-2212" transform="scale(0.015625)"/>
        <path d="M 3222 541 
L 3222 0 
L 194 0 
Q 188 203 259 391 
Q 375 700 629 1000 
Q 884 1300 1366 1694 
Q 2113 2306 2375 2664 
Q 2638 3022 2638 3341 
Q 2638 3675 2398 3904 
Q 2159 4134 1775 4134 
Q 1369 4134 1125 3890 
Q 881 3647 878 3216 
L 300 3275 
Q 359 3922 746 4261 
Q 1134 4600 1788 4600 
Q 2447 4600 2831 4234 
Q 3216 3869 3216 3328 
Q 3216 3053 3103 2787 
Q 2991 2522 2730 2228 
Q 2469 1934 1863 1422 
Q 1356 997 1212 845 
Q 1069 694 975 541 
L 3222 541 
z
" id="ArialMT-32" transform="scale(0.015625)"/>
        <path d="M 581 0 
L 581 641 
L 1222 641 
L 1222 0 
L 581 0 
z
" id="ArialMT-2e" transform="scale(0.015625)"/>
        <path d="M 266 1200 
L 856 1250 
Q 922 819 1161 601 
Q 1400 384 1738 384 
Q 2144 384 2425 690 
Q 2706 997 2706 1503 
Q 2706 1984 2436 2262 
Q 2166 2541 1728 2541 
Q 1456 2541 1237 2417 
Q 1019 2294 894 2097 
L 366 2166 
L 809 4519 
L 3088 4519 
L 3088 3981 
L 1259 3981 
L 1013 2750 
Q 1425 3038 1878 3038 
Q 2478 3038 2890 2622 
Q 3303 2206 3303 1553 
Q 3303 931 2941 478 
Q 2500 -78 1738 -78 
Q 1113 -78 717 272 
Q 322 622 266 1200 
z
" id="ArialMT-35" transform="scale(0.015625)"/>
       </defs>
       <use xlink:href="#ArialMT-2212"/>
       <use x="58.398438" xlink:href="#ArialMT-32"/>
       <use x="114.013672" xlink:href="#ArialMT-2e"/>
       <use x="141.796875" xlink:href="#ArialMT-35"/>
      </g>
     </g>
    </g>
    <g id="xtick_2">
     <g id="line2d_2">
      <path clip-path="url(#p09b028f7cd)" d="M 271.94665 504 
L 271.94665 69.12 
" style="fill:none;stroke:#ffffff;stroke-linecap:round;"/>
     </g>
     <g id="text_2">
      <!-- 0.0 -->
      <g style="fill:#262626;" transform="translate(264.30165 521.373594)scale(0.11 -0.11)">
       <defs>
        <path d="M 266 2259 
Q 266 3072 433 3567 
Q 600 4063 929 4331 
Q 1259 4600 1759 4600 
Q 2128 4600 2406 4451 
Q 2684 4303 2865 4023 
Q 3047 3744 3150 3342 
Q 3253 2941 3253 2259 
Q 3253 1453 3087 958 
Q 2922 463 2592 192 
Q 2263 -78 1759 -78 
Q 1097 -78 719 397 
Q 266 969 266 2259 
z
M 844 2259 
Q 844 1131 1108 757 
Q 1372 384 1759 384 
Q 2147 384 2411 759 
Q 2675 1134 2675 2259 
Q 2675 3391 2411 3762 
Q 2147 4134 1753 4134 
Q 1366 4134 1134 3806 
Q 844 3388 844 2259 
z
" id="ArialMT-30" transform="scale(0.015625)"/>
       </defs>
       <use xlink:href="#ArialMT-30"/>
       <use x="55.615234" xlink:href="#ArialMT-2e"/>
       <use x="83.398438" xlink:href="#ArialMT-30"/>
      </g>
     </g>
    </g>
    <g id="xtick_3">
     <g id="line2d_3">
      <path clip-path="url(#p09b028f7cd)" d="M 361.988003 504 
L 361.988003 69.12 
" style="fill:none;stroke:#ffffff;stroke-linecap:round;"/>
     </g>
     <g id="text_3">
      <!-- 2.5 -->
      <g style="fill:#262626;" transform="translate(354.343003 521.373594)scale(0.11 -0.11)">
       <use xlink:href="#ArialMT-32"/>
       <use x="55.615234" xlink:href="#ArialMT-2e"/>
       <use x="83.398438" xlink:href="#ArialMT-35"/>
      </g>
     </g>
    </g>
    <g id="xtick_4">
     <g id="line2d_4">
      <path clip-path="url(#p09b028f7cd)" d="M 452.029355 504 
L 452.029355 69.12 
" style="fill:none;stroke:#ffffff;stroke-linecap:round;"/>
     </g>
     <g id="text_4">
      <!-- 5.0 -->
      <g style="fill:#262626;" transform="translate(444.384355 521.373594)scale(0.11 -0.11)">
       <use xlink:href="#ArialMT-35"/>
       <use x="55.615234" xlink:href="#ArialMT-2e"/>
       <use x="83.398438" xlink:href="#ArialMT-30"/>
      </g>
     </g>
    </g>
    <g id="xtick_5">
     <g id="line2d_5">
      <path clip-path="url(#p09b028f7cd)" d="M 542.070708 504 
L 542.070708 69.12 
" style="fill:none;stroke:#ffffff;stroke-linecap:round;"/>
     </g>
     <g id="text_5">
      <!-- 7.5 -->
      <g style="fill:#262626;" transform="translate(534.425708 521.373594)scale(0.11 -0.11)">
       <defs>
        <path d="M 303 3981 
L 303 4522 
L 3269 4522 
L 3269 4084 
Q 2831 3619 2401 2847 
Q 1972 2075 1738 1259 
Q 1569 684 1522 0 
L 944 0 
Q 953 541 1156 1306 
Q 1359 2072 1739 2783 
Q 2119 3494 2547 3981 
L 303 3981 
z
" id="ArialMT-37" transform="scale(0.015625)"/>
       </defs>
       <use xlink:href="#ArialMT-37"/>
       <use x="55.615234" xlink:href="#ArialMT-2e"/>
       <use x="83.398438" xlink:href="#ArialMT-35"/>
      </g>
     </g>
    </g>
    <g id="xtick_6">
     <g id="line2d_6">
      <path clip-path="url(#p09b028f7cd)" d="M 632.11206 504 
L 632.11206 69.12 
" style="fill:none;stroke:#ffffff;stroke-linecap:round;"/>
     </g>
     <g id="text_6">
      <!-- 10.0 -->
      <g style="fill:#262626;" transform="translate(621.408545 521.373594)scale(0.11 -0.11)">
       <defs>
        <path d="M 2384 0 
L 1822 0 
L 1822 3584 
Q 1619 3391 1289 3197 
Q 959 3003 697 2906 
L 697 3450 
Q 1169 3672 1522 3987 
Q 1875 4303 2022 4600 
L 2384 4600 
L 2384 0 
z
" id="ArialMT-31" transform="scale(0.015625)"/>
       </defs>
       <use xlink:href="#ArialMT-31"/>
       <use x="55.615234" xlink:href="#ArialMT-30"/>
       <use x="111.230469" xlink:href="#ArialMT-2e"/>
       <use x="139.013672" xlink:href="#ArialMT-30"/>
      </g>
     </g>
    </g>
    <g id="xtick_7">
     <g id="line2d_7">
      <path clip-path="url(#p09b028f7cd)" d="M 722.153413 504 
L 722.153413 69.12 
" style="fill:none;stroke:#ffffff;stroke-linecap:round;"/>
     </g>
     <g id="text_7">
      <!-- 12.5 -->
      <g style="fill:#262626;" transform="translate(711.449897 521.373594)scale(0.11 -0.11)">
       <use xlink:href="#ArialMT-31"/>
       <use x="55.615234" xlink:href="#ArialMT-32"/>
       <use x="111.230469" xlink:href="#ArialMT-2e"/>
       <use x="139.013672" xlink:href="#ArialMT-35"/>
      </g>
     </g>
    </g>
    <g id="text_8">
     <!-- axis 1 -->
     <g style="fill:#262626;" transform="translate(427.126875 536.149219)scale(0.12 -0.12)">
      <defs>
       <path d="M 2588 409 
Q 2275 144 1986 34 
Q 1697 -75 1366 -75 
Q 819 -75 525 192 
Q 231 459 231 875 
Q 231 1119 342 1320 
Q 453 1522 633 1644 
Q 813 1766 1038 1828 
Q 1203 1872 1538 1913 
Q 2219 1994 2541 2106 
Q 2544 2222 2544 2253 
Q 2544 2597 2384 2738 
Q 2169 2928 1744 2928 
Q 1347 2928 1158 2789 
Q 969 2650 878 2297 
L 328 2372 
Q 403 2725 575 2942 
Q 747 3159 1072 3276 
Q 1397 3394 1825 3394 
Q 2250 3394 2515 3294 
Q 2781 3194 2906 3042 
Q 3031 2891 3081 2659 
Q 3109 2516 3109 2141 
L 3109 1391 
Q 3109 606 3145 398 
Q 3181 191 3288 0 
L 2700 0 
Q 2613 175 2588 409 
z
M 2541 1666 
Q 2234 1541 1622 1453 
Q 1275 1403 1131 1340 
Q 988 1278 909 1158 
Q 831 1038 831 891 
Q 831 666 1001 516 
Q 1172 366 1500 366 
Q 1825 366 2078 508 
Q 2331 650 2450 897 
Q 2541 1088 2541 1459 
L 2541 1666 
z
" id="ArialMT-61" transform="scale(0.015625)"/>
       <path d="M 47 0 
L 1259 1725 
L 138 3319 
L 841 3319 
L 1350 2541 
Q 1494 2319 1581 2169 
Q 1719 2375 1834 2534 
L 2394 3319 
L 3066 3319 
L 1919 1756 
L 3153 0 
L 2463 0 
L 1781 1031 
L 1600 1309 
L 728 0 
L 47 0 
z
" id="ArialMT-78" transform="scale(0.015625)"/>
       <path d="M 425 3934 
L 425 4581 
L 988 4581 
L 988 3934 
L 425 3934 
z
M 425 0 
L 425 3319 
L 988 3319 
L 988 0 
L 425 0 
z
" id="ArialMT-69" transform="scale(0.015625)"/>
       <path d="M 197 991 
L 753 1078 
Q 800 744 1014 566 
Q 1228 388 1613 388 
Q 2000 388 2187 545 
Q 2375 703 2375 916 
Q 2375 1106 2209 1216 
Q 2094 1291 1634 1406 
Q 1016 1563 777 1677 
Q 538 1791 414 1992 
Q 291 2194 291 2438 
Q 291 2659 392 2848 
Q 494 3038 669 3163 
Q 800 3259 1026 3326 
Q 1253 3394 1513 3394 
Q 1903 3394 2198 3281 
Q 2494 3169 2634 2976 
Q 2775 2784 2828 2463 
L 2278 2388 
Q 2241 2644 2061 2787 
Q 1881 2931 1553 2931 
Q 1166 2931 1000 2803 
Q 834 2675 834 2503 
Q 834 2394 903 2306 
Q 972 2216 1119 2156 
Q 1203 2125 1616 2013 
Q 2213 1853 2448 1751 
Q 2684 1650 2818 1456 
Q 2953 1263 2953 975 
Q 2953 694 2789 445 
Q 2625 197 2315 61 
Q 2006 -75 1616 -75 
Q 969 -75 630 194 
Q 291 463 197 991 
z
" id="ArialMT-73" transform="scale(0.015625)"/>
       <path id="ArialMT-20" transform="scale(0.015625)"/>
      </defs>
      <use xlink:href="#ArialMT-61"/>
      <use x="55.615234" xlink:href="#ArialMT-78"/>
      <use x="105.615234" xlink:href="#ArialMT-69"/>
      <use x="127.832031" xlink:href="#ArialMT-73"/>
      <use x="177.832031" xlink:href="#ArialMT-20"/>
      <use x="205.615234" xlink:href="#ArialMT-31"/>
     </g>
    </g>
   </g>
   <g id="matplotlib.axis_2">
    <g id="ytick_1">
     <g id="line2d_8">
      <path clip-path="url(#p09b028f7cd)" d="M 108 484.57495 
L 777.6 484.57495 
" style="fill:none;stroke:#ffffff;stroke-linecap:round;"/>
     </g>
     <g id="text_9">
      <!-- −2 -->
      <g style="fill:#262626;" transform="translate(85.958281 488.511747)scale(0.11 -0.11)">
       <use xlink:href="#ArialMT-2212"/>
       <use x="58.398438" xlink:href="#ArialMT-32"/>
      </g>
     </g>
    </g>
    <g id="ytick_2">
     <g id="line2d_9">
      <path clip-path="url(#p09b028f7cd)" d="M 108 428.353678 
L 777.6 428.353678 
" style="fill:none;stroke:#ffffff;stroke-linecap:round;"/>
     </g>
     <g id="text_10">
      <!-- 0 -->
      <g style="fill:#262626;" transform="translate(92.382969 432.290475)scale(0.11 -0.11)">
       <use xlink:href="#ArialMT-30"/>
      </g>
     </g>
    </g>
    <g id="ytick_3">
     <g id="line2d_10">
      <path clip-path="url(#p09b028f7cd)" d="M 108 372.132406 
L 777.6 372.132406 
" style="fill:none;stroke:#ffffff;stroke-linecap:round;"/>
     </g>
     <g id="text_11">
      <!-- 2 -->
      <g style="fill:#262626;" transform="translate(92.382969 376.069203)scale(0.11 -0.11)">
       <use xlink:href="#ArialMT-32"/>
      </g>
     </g>
    </g>
    <g id="ytick_4">
     <g id="line2d_11">
      <path clip-path="url(#p09b028f7cd)" d="M 108 315.911134 
L 777.6 315.911134 
" style="fill:none;stroke:#ffffff;stroke-linecap:round;"/>
     </g>
     <g id="text_12">
      <!-- 4 -->
      <g style="fill:#262626;" transform="translate(92.382969 319.847931)scale(0.11 -0.11)">
       <defs>
        <path d="M 2069 0 
L 2069 1097 
L 81 1097 
L 81 1613 
L 2172 4581 
L 2631 4581 
L 2631 1613 
L 3250 1613 
L 3250 1097 
L 2631 1097 
L 2631 0 
L 2069 0 
z
M 2069 1613 
L 2069 3678 
L 634 1613 
L 2069 1613 
z
" id="ArialMT-34" transform="scale(0.015625)"/>
       </defs>
       <use xlink:href="#ArialMT-34"/>
      </g>
     </g>
    </g>
    <g id="ytick_5">
     <g id="line2d_12">
      <path clip-path="url(#p09b028f7cd)" d="M 108 259.689862 
L 777.6 259.689862 
" style="fill:none;stroke:#ffffff;stroke-linecap:round;"/>
     </g>
     <g id="text_13">
      <!-- 6 -->
      <g style="fill:#262626;" transform="translate(92.382969 263.626659)scale(0.11 -0.11)">
       <defs>
        <path d="M 3184 3459 
L 2625 3416 
Q 2550 3747 2413 3897 
Q 2184 4138 1850 4138 
Q 1581 4138 1378 3988 
Q 1113 3794 959 3422 
Q 806 3050 800 2363 
Q 1003 2672 1297 2822 
Q 1591 2972 1913 2972 
Q 2475 2972 2870 2558 
Q 3266 2144 3266 1488 
Q 3266 1056 3080 686 
Q 2894 316 2569 119 
Q 2244 -78 1831 -78 
Q 1128 -78 684 439 
Q 241 956 241 2144 
Q 241 3472 731 4075 
Q 1159 4600 1884 4600 
Q 2425 4600 2770 4297 
Q 3116 3994 3184 3459 
z
M 888 1484 
Q 888 1194 1011 928 
Q 1134 663 1356 523 
Q 1578 384 1822 384 
Q 2178 384 2434 671 
Q 2691 959 2691 1453 
Q 2691 1928 2437 2201 
Q 2184 2475 1800 2475 
Q 1419 2475 1153 2201 
Q 888 1928 888 1484 
z
" id="ArialMT-36" transform="scale(0.015625)"/>
       </defs>
       <use xlink:href="#ArialMT-36"/>
      </g>
     </g>
    </g>
    <g id="ytick_6">
     <g id="line2d_13">
      <path clip-path="url(#p09b028f7cd)" d="M 108 203.46859 
L 777.6 203.46859 
" style="fill:none;stroke:#ffffff;stroke-linecap:round;"/>
     </g>
     <g id="text_14">
      <!-- 8 -->
      <g style="fill:#262626;" transform="translate(92.382969 207.405387)scale(0.11 -0.11)">
       <defs>
        <path d="M 1131 2484 
Q 781 2613 612 2850 
Q 444 3088 444 3419 
Q 444 3919 803 4259 
Q 1163 4600 1759 4600 
Q 2359 4600 2725 4251 
Q 3091 3903 3091 3403 
Q 3091 3084 2923 2848 
Q 2756 2613 2416 2484 
Q 2838 2347 3058 2040 
Q 3278 1734 3278 1309 
Q 3278 722 2862 322 
Q 2447 -78 1769 -78 
Q 1091 -78 675 323 
Q 259 725 259 1325 
Q 259 1772 486 2073 
Q 713 2375 1131 2484 
z
M 1019 3438 
Q 1019 3113 1228 2906 
Q 1438 2700 1772 2700 
Q 2097 2700 2305 2904 
Q 2513 3109 2513 3406 
Q 2513 3716 2298 3927 
Q 2084 4138 1766 4138 
Q 1444 4138 1231 3931 
Q 1019 3725 1019 3438 
z
M 838 1322 
Q 838 1081 952 856 
Q 1066 631 1291 507 
Q 1516 384 1775 384 
Q 2178 384 2440 643 
Q 2703 903 2703 1303 
Q 2703 1709 2433 1975 
Q 2163 2241 1756 2241 
Q 1359 2241 1098 1978 
Q 838 1716 838 1322 
z
" id="ArialMT-38" transform="scale(0.015625)"/>
       </defs>
       <use xlink:href="#ArialMT-38"/>
      </g>
     </g>
    </g>
    <g id="ytick_7">
     <g id="line2d_14">
      <path clip-path="url(#p09b028f7cd)" d="M 108 147.247318 
L 777.6 147.247318 
" style="fill:none;stroke:#ffffff;stroke-linecap:round;"/>
     </g>
     <g id="text_15">
      <!-- 10 -->
      <g style="fill:#262626;" transform="translate(86.265938 151.184115)scale(0.11 -0.11)">
       <use xlink:href="#ArialMT-31"/>
       <use x="55.615234" xlink:href="#ArialMT-30"/>
      </g>
     </g>
    </g>
    <g id="ytick_8">
     <g id="line2d_15">
      <path clip-path="url(#p09b028f7cd)" d="M 108 91.026046 
L 777.6 91.026046 
" style="fill:none;stroke:#ffffff;stroke-linecap:round;"/>
     </g>
     <g id="text_16">
      <!-- 12 -->
      <g style="fill:#262626;" transform="translate(86.265938 94.962843)scale(0.11 -0.11)">
       <use xlink:href="#ArialMT-31"/>
       <use x="55.615234" xlink:href="#ArialMT-32"/>
      </g>
     </g>
    </g>
    <g id="text_17">
     <!-- axis 2 -->
     <g style="fill:#262626;" transform="translate(79.573281 302.233125)rotate(-90)scale(0.12 -0.12)">
      <use xlink:href="#ArialMT-61"/>
      <use x="55.615234" xlink:href="#ArialMT-78"/>
      <use x="105.615234" xlink:href="#ArialMT-69"/>
      <use x="127.832031" xlink:href="#ArialMT-73"/>
      <use x="177.832031" xlink:href="#ArialMT-20"/>
      <use x="205.615234" xlink:href="#ArialMT-32"/>
     </g>
    </g>
   </g>
   <g id="PathCollection_1">
    <path clip-path="url(#p09b028f7cd)" d="M 665.809352 466.281241 
C 668.062514 466.281241 670.223696 465.38605 671.816923 463.792824 
C 673.410149 462.199598 674.30534 460.038416 674.30534 457.785254 
C 674.30534 455.532092 673.410149 453.37091 671.816923 451.777683 
C 670.223696 450.184457 668.062514 449.289266 665.809352 449.289266 
C 663.55619 449.289266 661.395008 450.184457 659.801782 451.777683 
C 658.208556 453.37091 657.313365 455.532092 657.313365 457.785254 
C 657.313365 460.038416 658.208556 462.199598 659.801782 463.792824 
C 661.395008 465.38605 663.55619 466.281241 665.809352 466.281241 
z
" style="fill:#023eff;fill-opacity:0.9;stroke:#ffffff;stroke-opacity:0.9;stroke-width:0.644302;"/>
    <path clip-path="url(#p09b028f7cd)" d="M 705.630764 477.950295 
C 707.514398 477.950295 709.321137 477.201919 710.653067 475.869989 
C 711.984997 474.538059 712.733373 472.73132 712.733373 470.847686 
C 712.733373 468.964052 711.984997 467.157313 710.653067 465.825383 
C 709.321137 464.493453 707.514398 463.745077 705.630764 463.745077 
C 703.74713 463.745077 701.940392 464.493453 700.608461 465.825383 
C 699.276531 467.157313 698.528155 468.964052 698.528155 470.847686 
C 698.528155 472.73132 699.276531 474.538059 700.608461 475.869989 
C 701.940392 477.201919 703.74713 477.950295 705.630764 477.950295 
z
" style="fill:#023eff;fill-opacity:0.9;stroke:#ffffff;stroke-opacity:0.9;stroke-width:0.644302;"/>
    <path clip-path="url(#p09b028f7cd)" d="M 645.810681 485.03396 
C 647.817678 485.03396 649.742744 484.236572 651.161906 482.81741 
C 652.581067 481.398249 653.378456 479.473183 653.378456 477.466185 
C 653.378456 475.459188 652.581067 473.534122 651.161906 472.114961 
C 649.742744 470.695799 647.817678 469.898411 645.810681 469.898411 
C 643.803684 469.898411 641.878618 470.695799 640.459456 472.114961 
C 639.040295 473.534122 638.242906 475.459188 638.242906 477.466185 
C 638.242906 479.473183 639.040295 481.398249 640.459456 482.81741 
C 641.878618 484.236572 643.803684 485.03396 645.810681 485.03396 
z
" style="fill:#023eff;fill-opacity:0.9;stroke:#ffffff;stroke-opacity:0.9;stroke-width:0.644302;"/>
    <path clip-path="url(#p09b028f7cd)" d="M 659.94906 450.235225 
C 661.276237 450.235225 662.549235 449.707932 663.487691 448.769476 
C 664.426148 447.831019 664.953441 446.558021 664.953441 445.230844 
C 664.953441 443.903666 664.426148 442.630668 663.487691 441.692212 
C 662.549235 440.753756 661.276237 440.226463 659.94906 440.226463 
C 658.621882 440.226463 657.348884 440.753756 656.410428 441.692212 
C 655.471972 442.630668 654.944679 443.903666 654.944679 445.230844 
C 654.944679 446.558021 655.471972 447.831019 656.410428 448.769476 
C 657.348884 449.707932 658.621882 450.235225 659.94906 450.235225 
z
" style="fill:#ff7c00;fill-opacity:0.9;stroke:#ffffff;stroke-opacity:0.9;stroke-width:0.644302;"/>
    <path clip-path="url(#p09b028f7cd)" d="M 683.680986 454.420863 
C 685.262805 454.420863 686.780049 453.7924 687.898563 452.673886 
C 689.017078 451.555371 689.645541 450.038127 689.645541 448.456309 
C 689.645541 446.87449 689.017078 445.357246 687.898563 444.238732 
C 686.780049 443.120217 685.262805 442.491754 683.680986 442.491754 
C 682.099168 442.491754 680.581924 443.120217 679.463409 444.238732 
C 678.344895 445.357246 677.716432 446.87449 677.716432 448.456309 
C 677.716432 450.038127 678.344895 451.555371 679.463409 452.673886 
C 680.581924 453.7924 682.099168 454.420863 683.680986 454.420863 
z
" style="fill:#ff7c00;fill-opacity:0.9;stroke:#ffffff;stroke-opacity:0.9;stroke-width:0.644302;"/>
    <path clip-path="url(#p09b028f7cd)" d="M 609.732691 490.668092 
C 611.43937 490.668092 613.076377 489.990021 614.283181 488.783217 
C 615.489986 487.576413 616.168056 485.939406 616.168056 484.232727 
C 616.168056 482.526049 615.489986 480.889041 614.283181 479.682237 
C 613.076377 478.475433 611.43937 477.797362 609.732691 477.797362 
C 608.026013 477.797362 606.389005 478.475433 605.182201 479.682237 
C 603.975397 480.889041 603.297327 482.526049 603.297327 484.232727 
C 603.297327 485.939406 603.975397 487.576413 605.182201 488.783217 
C 606.389005 489.990021 608.026013 490.668092 609.732691 490.668092 
z
" style="fill:#ff7c00;fill-opacity:0.9;stroke:#ffffff;stroke-opacity:0.9;stroke-width:0.644302;"/>
    <path clip-path="url(#p09b028f7cd)" d="M 633.527647 488.540771 
C 635.127775 488.540771 636.662581 487.905033 637.794043 486.773571 
C 638.925505 485.64211 639.561242 484.107303 639.561242 482.507175 
C 639.561242 480.907047 638.925505 479.37224 637.794043 478.240779 
C 636.662581 477.109317 635.127775 476.473579 633.527647 476.473579 
C 631.927518 476.473579 630.392712 477.109317 629.26125 478.240779 
C 628.129788 479.37224 627.494051 480.907047 627.494051 482.507175 
C 627.494051 484.107303 628.129788 485.64211 629.26125 486.773571 
C 630.392712 487.905033 631.927518 488.540771 633.527647 488.540771 
z
" style="fill:#1ac938;fill-opacity:0.9;stroke:#ffffff;stroke-opacity:0.9;stroke-width:0.644302;"/>
    <path clip-path="url(#p09b028f7cd)" d="M 735.730579 441.813675 
C 737.361617 441.813675 738.926072 441.165657 740.079391 440.012338 
C 741.232709 438.85902 741.880728 437.294565 741.880728 435.663526 
C 741.880728 434.032488 741.232709 432.468032 740.079391 431.314714 
C 738.926072 430.161396 737.361617 429.513377 735.730579 429.513377 
C 734.09954 429.513377 732.535085 430.161396 731.381767 431.314714 
C 730.228448 432.468032 729.58043 434.032488 729.58043 435.663526 
C 729.58043 437.294565 730.228448 438.85902 731.381767 440.012338 
C 732.535085 441.165657 734.09954 441.813675 735.730579 441.813675 
z
" style="fill:#1ac938;fill-opacity:0.9;stroke:#ffffff;stroke-opacity:0.9;stroke-width:0.644302;"/>
    <path clip-path="url(#p09b028f7cd)" d="M 602.424354 485.986148 
C 603.548984 485.986148 604.627703 485.539328 605.422936 484.744094 
C 606.21817 483.948861 606.66499 482.870142 606.66499 481.745512 
C 606.66499 480.620882 606.21817 479.542163 605.422936 478.746929 
C 604.627703 477.951696 603.548984 477.504876 602.424354 477.504876 
C 601.299724 477.504876 600.221005 477.951696 599.425771 478.746929 
C 598.630538 479.542163 598.183718 480.620882 598.183718 481.745512 
C 598.183718 482.870142 598.630538 483.948861 599.425771 484.744094 
C 600.221005 485.539328 601.299724 485.986148 602.424354 485.986148 
z
" style="fill:#1ac938;fill-opacity:0.9;stroke:#ffffff;stroke-opacity:0.9;stroke-width:0.644302;"/>
    <path clip-path="url(#p09b028f7cd)" d="M 617.822791 481.369178 
C 618.946186 481.369178 620.023722 480.922848 620.818083 480.128487 
C 621.612443 479.334126 622.058773 478.256591 622.058773 477.133195 
C 622.058773 476.009799 621.612443 474.932264 620.818083 474.137903 
C 620.023722 473.343542 618.946186 472.897212 617.822791 472.897212 
C 616.699395 472.897212 615.621859 473.343542 614.827499 474.137903 
C 614.033138 474.932264 613.586808 476.009799 613.586808 477.133195 
C 613.586808 478.256591 614.033138 479.334126 614.827499 480.128487 
C 615.621859 480.922848 616.699395 481.369178 617.822791 481.369178 
z
" style="fill:#1ac938;fill-opacity:0.9;stroke:#ffffff;stroke-opacity:0.9;stroke-width:0.644302;"/>
    <path clip-path="url(#p09b028f7cd)" d="M 697.14051 479.553317 
C 698.210788 479.553317 699.237375 479.128091 699.994176 478.37129 
C 700.750977 477.614489 701.176203 476.587902 701.176203 475.517624 
C 701.176203 474.447346 700.750977 473.420759 699.994176 472.663958 
C 699.237375 471.907157 698.210788 471.481931 697.14051 471.481931 
C 696.070232 471.481931 695.043645 471.907157 694.286844 472.663958 
C 693.530043 473.420759 693.104817 474.447346 693.104817 475.517624 
C 693.104817 476.587902 693.530043 477.614489 694.286844 478.37129 
C 695.043645 479.128091 696.070232 479.553317 697.14051 479.553317 
z
" style="fill:#ff7c00;fill-opacity:0.9;stroke:#ffffff;stroke-opacity:0.9;stroke-width:0.644302;"/>
    <path clip-path="url(#p09b028f7cd)" d="M 657.850497 467.543302 
C 658.943856 467.543302 659.992581 467.108906 660.765702 466.335784 
C 661.538824 465.562663 661.97322 464.513938 661.97322 463.420579 
C 661.97322 462.32722 661.538824 461.278495 660.765702 460.505373 
C 659.992581 459.732252 658.943856 459.297856 657.850497 459.297856 
C 656.757138 459.297856 655.708413 459.732252 654.935292 460.505373 
C 654.16217 461.278495 653.727774 462.32722 653.727774 463.420579 
C 653.727774 464.513938 654.16217 465.562663 654.935292 466.335784 
C 655.708413 467.108906 656.757138 467.543302 657.850497 467.543302 
z
" style="fill:#ff7c00;fill-opacity:0.9;stroke:#ffffff;stroke-opacity:0.9;stroke-width:0.644302;"/>
    <path clip-path="url(#p09b028f7cd)" d="M 669.100445 475.315691 
C 670.295635 475.315691 671.442034 474.840837 672.28716 473.99571 
C 673.132287 473.150583 673.607141 472.004185 673.607141 470.808995 
C 673.607141 469.613805 673.132287 468.467406 672.28716 467.62228 
C 671.442034 466.777153 670.295635 466.302299 669.100445 466.302299 
C 667.905255 466.302299 666.758857 466.777153 665.91373 467.62228 
C 665.068603 468.467406 664.593749 469.613805 664.593749 470.808995 
C 664.593749 472.004185 665.068603 473.150583 665.91373 473.99571 
C 666.758857 474.840837 667.905255 475.315691 669.100445 475.315691 
z
" style="fill:#ff7c00;fill-opacity:0.9;stroke:#ffffff;stroke-opacity:0.9;stroke-width:0.644302;"/>
    <path clip-path="url(#p09b028f7cd)" d="M 737.8627 452.251809 
C 739.078601 452.251809 740.244866 451.768726 741.104639 450.908953 
C 741.964411 450.049181 742.447494 448.882916 742.447494 447.667014 
C 742.447494 446.451113 741.964411 445.284848 741.104639 444.425076 
C 740.244866 443.565303 739.078601 443.08222 737.8627 443.08222 
C 736.646798 443.08222 735.480533 443.565303 734.620761 444.425076 
C 733.760988 445.284848 733.277906 446.451113 733.277906 447.667014 
C 733.277906 448.882916 733.760988 450.049181 734.620761 450.908953 
C 735.480533 451.768726 736.646798 452.251809 737.8627 452.251809 
z
" style="fill:#ff7c00;fill-opacity:0.9;stroke:#ffffff;stroke-opacity:0.9;stroke-width:0.644302;"/>
    <path clip-path="url(#p09b028f7cd)" d="M 747.163636 435.591727 
C 748.137555 435.591727 749.071715 435.204785 749.76038 434.516121 
C 750.449044 433.827457 750.835986 432.893296 750.835986 431.919378 
C 750.835986 430.945459 750.449044 430.011299 749.76038 429.322635 
C 749.071715 428.63397 748.137555 428.247028 747.163636 428.247028 
C 746.189718 428.247028 745.255558 428.63397 744.566893 429.322635 
C 743.878229 430.011299 743.491287 430.945459 743.491287 431.919378 
C 743.491287 432.893296 743.878229 433.827457 744.566893 434.516121 
C 745.255558 435.204785 746.189718 435.591727 747.163636 435.591727 
z
" style="fill:#e8000b;fill-opacity:0.9;stroke:#ffffff;stroke-opacity:0.9;stroke-width:0.644302;"/>
    <path clip-path="url(#p09b028f7cd)" d="M 673.768036 427.295145 
C 674.834419 427.295145 675.857269 426.871467 676.611316 426.11742 
C 677.365362 425.363374 677.789041 424.340524 677.789041 423.274141 
C 677.789041 422.207758 677.365362 421.184908 676.611316 420.430861 
C 675.857269 419.676814 674.834419 419.253136 673.768036 419.253136 
C 672.701653 419.253136 671.678803 419.676814 670.924756 420.430861 
C 670.17071 421.184908 669.747031 422.207758 669.747031 423.274141 
C 669.747031 424.340524 670.17071 425.363374 670.924756 426.11742 
C 671.678803 426.871467 672.701653 427.295145 673.768036 427.295145 
z
" style="fill:#e8000b;fill-opacity:0.9;stroke:#ffffff;stroke-opacity:0.9;stroke-width:0.644302;"/>
    <path clip-path="url(#p09b028f7cd)" d="M 671.099708 427.522705 
C 672.037342 427.522705 672.9367 427.150179 673.599708 426.487171 
C 674.262715 425.824163 674.635242 424.924806 674.635242 423.987171 
C 674.635242 423.049536 674.262715 422.150179 673.599708 421.487171 
C 672.9367 420.824163 672.037342 420.451637 671.099708 420.451637 
C 670.162073 420.451637 669.262715 420.824163 668.599708 421.487171 
C 667.9367 422.150179 667.564174 423.049536 667.564174 423.987171 
C 667.564174 424.924806 667.9367 425.824163 668.599708 426.487171 
C 669.262715 427.150179 670.162073 427.522705 671.099708 427.522705 
z
" style="fill:#e8000b;fill-opacity:0.9;stroke:#ffffff;stroke-opacity:0.9;stroke-width:0.644302;"/>
    <path clip-path="url(#p09b028f7cd)" d="M 681.1427 411.887165 
C 682.368826 411.887165 683.544898 411.400019 684.411901 410.533017 
C 685.278903 409.666015 685.766048 408.489942 685.766048 407.263816 
C 685.766048 406.03769 685.278903 404.861617 684.411901 403.994615 
C 683.544898 403.127613 682.368826 402.640468 681.1427 402.640468 
C 679.916573 402.640468 678.740501 403.127613 677.873499 403.994615 
C 677.006496 404.861617 676.519351 406.03769 676.519351 407.263816 
C 676.519351 408.489942 677.006496 409.666015 677.873499 410.533017 
C 678.740501 411.400019 679.916573 411.887165 681.1427 411.887165 
z
" style="fill:#e8000b;fill-opacity:0.9;stroke:#ffffff;stroke-opacity:0.9;stroke-width:0.644302;"/>
    <path clip-path="url(#p09b028f7cd)" d="M 678.815963 438.978285 
C 679.772637 438.978285 680.690257 438.598195 681.366727 437.921724 
C 682.043198 437.245253 682.423288 436.327633 682.423288 435.370959 
C 682.423288 434.414286 682.043198 433.496666 681.366727 432.820195 
C 680.690257 432.143724 679.772637 431.763634 678.815963 431.763634 
C 677.859289 431.763634 676.941669 432.143724 676.265198 432.820195 
C 675.588728 433.496666 675.208637 434.414286 675.208637 435.370959 
C 675.208637 436.327633 675.588728 437.245253 676.265198 437.921724 
C 676.941669 438.598195 677.859289 438.978285 678.815963 438.978285 
z
" style="fill:#e8000b;fill-opacity:0.9;stroke:#ffffff;stroke-opacity:0.9;stroke-width:0.644302;"/>
    <path clip-path="url(#p09b028f7cd)" d="M 721.570046 459.224882 
C 722.648072 459.224882 723.682091 458.796577 724.444371 458.034297 
C 725.206651 457.272017 725.634955 456.237998 725.634955 455.159972 
C 725.634955 454.081945 725.206651 453.047926 724.444371 452.285646 
C 723.682091 451.523366 722.648072 451.095062 721.570046 451.095062 
C 720.492019 451.095062 719.458 451.523366 718.69572 452.285646 
C 717.93344 453.047926 717.505136 454.081945 717.505136 455.159972 
C 717.505136 456.237998 717.93344 457.272017 718.69572 458.034297 
C 719.458 458.796577 720.492019 459.224882 721.570046 459.224882 
z
" style="fill:#e8000b;fill-opacity:0.9;stroke:#ffffff;stroke-opacity:0.9;stroke-width:0.644302;"/>
    <path clip-path="url(#p09b028f7cd)" d="M 634.083879 447.719105 
C 635.182301 447.719105 636.235882 447.282697 637.012584 446.505996 
C 637.789286 445.729294 638.225693 444.675713 638.225693 443.57729 
C 638.225693 442.478868 637.789286 441.425287 637.012584 440.648585 
C 636.235882 439.871884 635.182301 439.435476 634.083879 439.435476 
C 632.985457 439.435476 631.931875 439.871884 631.155174 440.648585 
C 630.378472 441.425287 629.942064 442.478868 629.942064 443.57729 
C 629.942064 444.675713 630.378472 445.729294 631.155174 446.505996 
C 631.931875 447.282697 632.985457 447.719105 634.083879 447.719105 
z
" style="fill:#e8000b;fill-opacity:0.9;stroke:#ffffff;stroke-opacity:0.9;stroke-width:0.644302;"/>
    <path clip-path="url(#p09b028f7cd)" d="M 643.89904 471.658723 
C 645.052893 471.658723 646.159643 471.200293 646.97554 470.384396 
C 647.791437 469.568498 648.249868 468.461749 648.249868 467.307896 
C 648.249868 466.154043 647.791437 465.047294 646.97554 464.231397 
C 646.159643 463.415499 645.052893 462.957069 643.89904 462.957069 
C 642.745187 462.957069 641.638438 463.415499 640.822541 464.231397 
C 640.006644 465.047294 639.548213 466.154043 639.548213 467.307896 
C 639.548213 468.461749 640.006644 469.568498 640.822541 470.384396 
C 641.638438 471.200293 642.745187 471.658723 643.89904 471.658723 
z
" style="fill:#e8000b;fill-opacity:0.9;stroke:#ffffff;stroke-opacity:0.9;stroke-width:0.644302;"/>
    <path clip-path="url(#p09b028f7cd)" d="M 312.714347 255.241376 
C 315.204954 255.241376 317.593887 254.251847 319.355012 252.490722 
C 321.116138 250.729597 322.105666 248.340664 322.105666 245.850057 
C 322.105666 243.35945 321.116138 240.970516 319.355012 239.209391 
C 317.593887 237.448266 315.204954 236.458737 312.714347 236.458737 
C 310.22374 236.458737 307.834806 237.448266 306.073681 239.209391 
C 304.312556 240.970516 303.323027 243.35945 303.323027 245.850057 
C 303.323027 248.340664 304.312556 250.729597 306.073681 252.490722 
C 307.834806 254.251847 310.22374 255.241376 312.714347 255.241376 
z
" style="fill:#8b2be2;fill-opacity:0.9;stroke:#ffffff;stroke-opacity:0.9;stroke-width:0.644302;"/>
    <path clip-path="url(#p09b028f7cd)" d="M 330.678824 268.058661 
C 333.103963 268.058661 335.430101 267.095143 337.144933 265.380311 
C 338.859765 263.665479 339.823283 261.33934 339.823283 258.914201 
C 339.823283 256.489062 338.859765 254.162924 337.144933 252.448092 
C 335.430101 250.73326 333.103963 249.769742 330.678824 249.769742 
C 328.253685 249.769742 325.927546 250.73326 324.212714 252.448092 
C 322.497882 254.162924 321.534364 256.489062 321.534364 258.914201 
C 321.534364 261.33934 322.497882 263.665479 324.212714 265.380311 
C 325.927546 267.095143 328.253685 268.058661 330.678824 268.058661 
z
" style="fill:#8b2be2;fill-opacity:0.9;stroke:#ffffff;stroke-opacity:0.9;stroke-width:0.644302;"/>
    <path clip-path="url(#p09b028f7cd)" d="M 348.72209 278.681282 
C 351.069922 278.681282 353.321908 277.748479 354.982075 276.088312 
C 356.642243 274.428144 357.575046 272.176158 357.575046 269.828327 
C 357.575046 267.480495 356.642243 265.228509 354.982075 263.568342 
C 353.321908 261.908174 351.069922 260.975371 348.72209 260.975371 
C 346.374259 260.975371 344.122273 261.908174 342.462105 263.568342 
C 340.801938 265.228509 339.869135 267.480495 339.869135 269.828327 
C 339.869135 272.176158 340.801938 274.428144 342.462105 276.088312 
C 344.122273 277.748479 346.374259 278.681282 348.72209 278.681282 
z
" style="fill:#8b2be2;fill-opacity:0.9;stroke:#ffffff;stroke-opacity:0.9;stroke-width:0.644302;"/>
    <path clip-path="url(#p09b028f7cd)" d="M 343.420684 275.110633 
C 345.737588 275.110633 347.95991 274.190117 349.598209 272.551818 
C 351.236507 270.913519 352.157023 268.691198 352.157023 266.374293 
C 352.157023 264.057389 351.236507 261.835067 349.598209 260.196768 
C 347.95991 258.558469 345.737588 257.637953 343.420684 257.637953 
C 341.103779 257.637953 338.881457 258.558469 337.243158 260.196768 
C 335.60486 261.835067 334.684344 264.057389 334.684344 266.374293 
C 334.684344 268.691198 335.60486 270.913519 337.243158 272.551818 
C 338.881457 274.190117 341.103779 275.110633 343.420684 275.110633 
z
" style="fill:#8b2be2;fill-opacity:0.9;stroke:#ffffff;stroke-opacity:0.9;stroke-width:0.644302;"/>
    <path clip-path="url(#p09b028f7cd)" d="M 301.193919 246.319283 
C 303.826408 246.319283 306.351432 245.273384 308.212883 243.411932 
C 310.074334 241.550481 311.120234 239.025457 311.120234 236.392968 
C 311.120234 233.760478 310.074334 231.235454 308.212883 229.374003 
C 306.351432 227.512552 303.826408 226.466653 301.193919 226.466653 
C 298.561429 226.466653 296.036405 227.512552 294.174954 229.374003 
C 292.313503 231.235454 291.267603 233.760478 291.267603 236.392968 
C 291.267603 239.025457 292.313503 241.550481 294.174954 243.411932 
C 296.036405 245.273384 298.561429 246.319283 301.193919 246.319283 
z
" style="fill:#8b2be2;fill-opacity:0.9;stroke:#ffffff;stroke-opacity:0.9;stroke-width:0.644302;"/>
    <path clip-path="url(#p09b028f7cd)" d="M 321.082944 262.286838 
C 323.739563 262.286838 326.287731 261.231352 328.166243 259.352839 
C 330.044756 257.474327 331.100242 254.926159 331.100242 252.269541 
C 331.100242 249.612922 330.044756 247.064754 328.166243 245.186242 
C 326.287731 243.307729 323.739563 242.252243 321.082944 242.252243 
C 318.426326 242.252243 315.878158 243.307729 313.999645 245.186242 
C 312.121133 247.064754 311.065647 249.612922 311.065647 252.269541 
C 311.065647 254.926159 312.121133 257.474327 313.999645 259.352839 
C 315.878158 261.231352 318.426326 262.286838 321.082944 262.286838 
z
" style="fill:#8b2be2;fill-opacity:0.9;stroke:#ffffff;stroke-opacity:0.9;stroke-width:0.644302;"/>
    <path clip-path="url(#p09b028f7cd)" d="M 349.445907 274.998867 
C 351.928704 274.998867 354.310147 274.012441 356.06575 272.256838 
C 357.821352 270.501235 358.807778 268.119793 358.807778 265.636995 
C 358.807778 263.154198 357.821352 260.772755 356.06575 259.017153 
C 354.310147 257.26155 351.928704 256.275124 349.445907 256.275124 
C 346.96311 256.275124 344.581667 257.26155 342.826064 259.017153 
C 341.070461 260.772755 340.084036 263.154198 340.084036 265.636995 
C 340.084036 268.119793 341.070461 270.501235 342.826064 272.256838 
C 344.581667 274.012441 346.96311 274.998867 349.445907 274.998867 
z
" style="fill:#8b2be2;fill-opacity:0.9;stroke:#ffffff;stroke-opacity:0.9;stroke-width:0.644302;"/>
    <path clip-path="url(#p09b028f7cd)" d="M 162.992102 121.090339 
C 165.314986 121.090339 167.543043 120.167447 169.18557 118.52492 
C 170.828097 116.882394 171.750989 114.654336 171.750989 112.331452 
C 171.750989 110.008569 170.828097 107.780511 169.18557 106.137984 
C 167.543043 104.495457 165.314986 103.572566 162.992102 103.572566 
C 160.669219 103.572566 158.441161 104.495457 156.798634 106.137984 
C 155.156107 107.780511 154.233216 110.008569 154.233216 112.331452 
C 154.233216 114.654336 155.156107 116.882394 156.798634 118.52492 
C 158.441161 120.167447 160.669219 121.090339 162.992102 121.090339 
z
" style="fill:#8b2be2;fill-opacity:0.9;stroke:#ffffff;stroke-opacity:0.9;stroke-width:0.644302;"/>
    <path clip-path="url(#p09b028f7cd)" d="M 186.875452 102.855553 
C 189.574548 102.855553 192.163459 101.783191 194.072008 99.874642 
C 195.980557 97.966093 197.052919 95.377182 197.052919 92.678087 
C 197.052919 89.978991 195.980557 87.39008 194.072008 85.481531 
C 192.163459 83.572982 189.574548 82.50062 186.875452 82.50062 
C 184.176357 82.50062 181.587446 83.572982 179.678897 85.481531 
C 177.770348 87.39008 176.697986 89.978991 176.697986 92.678087 
C 176.697986 95.377182 177.770348 97.966093 179.678897 99.874642 
C 181.587446 101.783191 184.176357 102.855553 186.875452 102.855553 
z
" style="fill:#8b2be2;fill-opacity:0.9;stroke:#ffffff;stroke-opacity:0.9;stroke-width:0.644302;"/>
    <path clip-path="url(#p09b028f7cd)" d="M 178.312509 118.498787 
C 181.133237 118.498787 183.838816 117.3781 185.833372 115.383544 
C 187.827928 113.388988 188.948615 110.68341 188.948615 107.862681 
C 188.948615 105.041953 187.827928 102.336375 185.833372 100.341818 
C 183.838816 98.347262 181.133237 97.226575 178.312509 97.226575 
C 175.491781 97.226575 172.786203 98.347262 170.791646 100.341818 
C 168.79709 102.336375 167.676403 105.041953 167.676403 107.862681 
C 167.676403 110.68341 168.79709 113.388988 170.791646 115.383544 
C 172.786203 117.3781 175.491781 118.498787 178.312509 118.498787 
z
" style="fill:#8b2be2;fill-opacity:0.9;stroke:#ffffff;stroke-opacity:0.9;stroke-width:0.644302;"/>
    <path clip-path="url(#p09b028f7cd)" d="M 175.247169 103.891279 
C 178.057057 103.891279 180.752238 102.774898 182.739129 100.788007 
C 184.72602 98.801116 185.842401 96.105935 185.842401 93.296047 
C 185.842401 90.486158 184.72602 87.790977 182.739129 85.804086 
C 180.752238 83.817195 178.057057 82.700815 175.247169 82.700815 
C 172.437281 82.700815 169.7421 83.817195 167.755209 85.804086 
C 165.768317 87.790977 164.651937 90.486158 164.651937 93.296047 
C 164.651937 96.105935 165.768317 98.801116 167.755209 100.788007 
C 169.7421 102.774898 172.437281 103.891279 175.247169 103.891279 
z
" style="fill:#8b2be2;fill-opacity:0.9;stroke:#ffffff;stroke-opacity:0.9;stroke-width:0.644302;"/>
    <path clip-path="url(#p09b028f7cd)" d="M 166.763158 106.37764 
C 168.864032 106.37764 170.879142 105.542954 172.364685 104.057412 
C 173.850227 102.571869 174.684913 100.556759 174.684913 98.455885 
C 174.684913 96.355011 173.850227 94.3399 172.364685 92.854358 
C 170.879142 91.368815 168.864032 90.534129 166.763158 90.534129 
C 164.662284 90.534129 162.647173 91.368815 161.161631 92.854358 
C 159.676088 94.3399 158.841402 96.355011 158.841402 98.455885 
C 158.841402 100.556759 159.676088 102.571869 161.161631 104.057412 
C 162.647173 105.542954 164.662284 106.37764 166.763158 106.37764 
z
" style="fill:#8b2be2;fill-opacity:0.9;stroke:#ffffff;stroke-opacity:0.9;stroke-width:0.644302;"/>
    <path clip-path="url(#p09b028f7cd)" d="M 155.105052 98.372627 
C 157.620597 98.372627 160.033451 97.37319 161.81221 95.594431 
C 163.590969 93.815672 164.590406 91.402818 164.590406 88.887273 
C 164.590406 86.371727 163.590969 83.958873 161.81221 82.180114 
C 160.033451 80.401355 157.620597 79.401918 155.105052 79.401918 
C 152.589506 79.401918 150.176652 80.401355 148.397893 82.180114 
C 146.619134 83.958873 145.619697 86.371727 145.619697 88.887273 
C 145.619697 91.402818 146.619134 93.815672 148.397893 95.594431 
C 150.176652 97.37319 152.589506 98.372627 155.105052 98.372627 
z
" style="fill:#8b2be2;fill-opacity:0.9;stroke:#ffffff;stroke-opacity:0.9;stroke-width:0.644302;"/>
    <path clip-path="url(#p09b028f7cd)" d="M 147.188496 106.126121 
C 150.153557 106.126121 152.997575 104.94809 155.09419 102.851476 
C 157.190805 100.754861 158.368836 97.910842 158.368836 94.945782 
C 158.368836 91.980721 157.190805 89.136702 155.09419 87.040087 
C 152.997575 84.943473 150.153557 83.765442 147.188496 83.765442 
C 144.223435 83.765442 141.379416 84.943473 139.282802 87.040087 
C 137.186187 89.136702 136.008156 91.980721 136.008156 94.945782 
C 136.008156 97.910842 137.186187 100.754861 139.282802 102.851476 
C 141.379416 104.94809 144.223435 106.126121 147.188496 106.126121 
z
" style="fill:#8b2be2;fill-opacity:0.9;stroke:#ffffff;stroke-opacity:0.9;stroke-width:0.644302;"/>
    <path clip-path="url(#p09b028f7cd)" d="M 175.693161 100.11991 
C 178.420886 100.11991 181.037257 99.036174 182.966049 97.107382 
C 184.894841 95.178589 185.978578 92.562218 185.978578 89.834494 
C 185.978578 87.106769 184.894841 84.490398 182.966049 82.561606 
C 181.037257 80.632813 178.420886 79.549077 175.693161 79.549077 
C 172.965437 79.549077 170.349066 80.632813 168.420273 82.561606 
C 166.491481 84.490398 165.407744 87.106769 165.407744 89.834494 
C 165.407744 92.562218 166.491481 95.178589 168.420273 97.107382 
C 170.349066 99.036174 172.965437 100.11991 175.693161 100.11991 
z
" style="fill:#8b2be2;fill-opacity:0.9;stroke:#ffffff;stroke-opacity:0.9;stroke-width:0.644302;"/>
    <path clip-path="url(#p09b028f7cd)" d="M 182.48724 110.572152 
C 183.509795 110.572152 184.490607 110.165886 185.213662 109.442831 
C 185.936718 108.719775 186.342984 107.738963 186.342984 106.716408 
C 186.342984 105.693853 185.936718 104.713041 185.213662 103.989985 
C 184.490607 103.26693 183.509795 102.860664 182.48724 102.860664 
C 181.464685 102.860664 180.483873 103.26693 179.760817 103.989985 
C 179.037762 104.713041 178.631496 105.693853 178.631496 106.716408 
C 178.631496 107.738963 179.037762 108.719775 179.760817 109.442831 
C 180.483873 110.165886 181.464685 110.572152 182.48724 110.572152 
z
" style="fill:#8b2be2;fill-opacity:0.9;stroke:#ffffff;stroke-opacity:0.9;stroke-width:0.644302;"/>
    <path clip-path="url(#p09b028f7cd)" d="M 693.809642 411.467089 
C 694.942873 411.467089 696.029843 411.016852 696.831158 410.215536 
C 697.632474 409.414221 698.082711 408.327252 698.082711 407.19402 
C 698.082711 406.060789 697.632474 404.97382 696.831158 404.172505 
C 696.029843 403.371189 694.942873 402.920952 693.809642 402.920952 
C 692.676411 402.920952 691.589442 403.371189 690.788126 404.172505 
C 689.986811 404.97382 689.536574 406.060789 689.536574 407.19402 
C 689.536574 408.327252 689.986811 409.414221 690.788126 410.215536 
C 691.589442 411.016852 692.676411 411.467089 693.809642 411.467089 
z
" style="fill:#8b2be2;fill-opacity:0.9;stroke:#ffffff;stroke-opacity:0.9;stroke-width:0.644302;"/>
    <path clip-path="url(#p09b028f7cd)" d="M 741.649435 434.207248 
C 742.80569 434.207248 743.914743 433.747863 744.732338 432.930267 
C 745.549934 432.112671 746.009319 431.003618 746.009319 429.847363 
C 746.009319 428.691109 745.549934 427.582055 744.732338 426.76446 
C 743.914743 425.946864 742.80569 425.487479 741.649435 425.487479 
C 740.49318 425.487479 739.384127 425.946864 738.566531 426.76446 
C 737.748935 427.582055 737.289551 428.691109 737.289551 429.847363 
C 737.289551 431.003618 737.748935 432.112671 738.566531 432.930267 
C 739.384127 433.747863 740.49318 434.207248 741.649435 434.207248 
z
" style="fill:#8b2be2;fill-opacity:0.9;stroke:#ffffff;stroke-opacity:0.9;stroke-width:0.644302;"/>
    <path clip-path="url(#p09b028f7cd)" d="M 627.2582 455.299396 
C 628.487716 455.299396 629.667039 454.810905 630.536438 453.941506 
C 631.405837 453.072107 631.894329 451.892783 631.894329 450.663268 
C 631.894329 449.433752 631.405837 448.254429 630.536438 447.38503 
C 629.667039 446.515631 628.487716 446.027139 627.2582 446.027139 
C 626.028684 446.027139 624.849361 446.515631 623.979962 447.38503 
C 623.110563 448.254429 622.622071 449.433752 622.622071 450.663268 
C 622.622071 451.892783 623.110563 453.072107 623.979962 453.941506 
C 624.849361 454.810905 626.028684 455.299396 627.2582 455.299396 
z
" style="fill:#8b2be2;fill-opacity:0.9;stroke:#ffffff;stroke-opacity:0.9;stroke-width:0.644302;"/>
    <path clip-path="url(#p09b028f7cd)" d="M 156.745291 132.763482 
C 158.873717 132.763482 160.915254 131.91785 162.420278 130.412826 
C 163.925301 128.907802 164.770934 126.866265 164.770934 124.73784 
C 164.770934 122.609415 163.925301 120.567877 162.420278 119.062854 
C 160.915254 117.55783 158.873717 116.712197 156.745291 116.712197 
C 154.616866 116.712197 152.575329 117.55783 151.070305 119.062854 
C 149.565281 120.567877 148.719649 122.609415 148.719649 124.73784 
C 148.719649 126.866265 149.565281 128.907802 151.070305 130.412826 
C 152.575329 131.91785 154.616866 132.763482 156.745291 132.763482 
z
" style="fill:#8b2be2;fill-opacity:0.9;stroke:#ffffff;stroke-opacity:0.9;stroke-width:0.644302;"/>
    <path clip-path="url(#p09b028f7cd)" d="M 147.71178 139.174875 
C 149.948878 139.174875 152.094651 138.286067 153.676518 136.7042 
C 155.258385 135.122332 156.147194 132.976559 156.147194 130.739461 
C 156.147194 128.502363 155.258385 126.35659 153.676518 124.774723 
C 152.094651 123.192856 149.948878 122.304047 147.71178 122.304047 
C 145.474682 122.304047 143.328909 123.192856 141.747041 124.774723 
C 140.165174 126.35659 139.276366 128.502363 139.276366 130.739461 
C 139.276366 132.976559 140.165174 135.122332 141.747041 136.7042 
C 143.328909 138.286067 145.474682 139.174875 147.71178 139.174875 
z
" style="fill:#8b2be2;fill-opacity:0.9;stroke:#ffffff;stroke-opacity:0.9;stroke-width:0.644302;"/>
    <path clip-path="url(#p09b028f7cd)" d="M 140.303678 145.398214 
C 142.414433 145.398214 144.439021 144.559602 145.931551 143.067073 
C 147.42408 141.574543 148.262692 139.549955 148.262692 137.4392 
C 148.262692 135.328445 147.42408 133.303857 145.931551 131.811328 
C 144.439021 130.318798 142.414433 129.480186 140.303678 129.480186 
C 138.192923 129.480186 136.168335 130.318798 134.675806 131.811328 
C 133.183276 133.303857 132.344665 135.328445 132.344665 137.4392 
C 132.344665 139.549955 133.183276 141.574543 134.675806 143.067073 
C 136.168335 144.559602 138.192923 145.398214 140.303678 145.398214 
z
" style="fill:#8b2be2;fill-opacity:0.9;stroke:#ffffff;stroke-opacity:0.9;stroke-width:0.644302;"/>
    <path clip-path="url(#p09b028f7cd)" d="M 138.436364 147.310053 
C 140.700581 147.310053 142.872366 146.41047 144.473409 144.809427 
C 146.074452 143.208383 146.974035 141.036598 146.974035 138.772381 
C 146.974035 136.508164 146.074452 134.336379 144.473409 132.735336 
C 142.872366 131.134293 140.700581 130.23471 138.436364 130.23471 
C 136.172147 130.23471 134.000362 131.134293 132.399318 132.735336 
C 130.798275 134.336379 129.898692 136.508164 129.898692 138.772381 
C 129.898692 141.036598 130.798275 143.208383 132.399318 144.809427 
C 134.000362 146.41047 136.172147 147.310053 138.436364 147.310053 
z
" style="fill:#8b2be2;fill-opacity:0.9;stroke:#ffffff;stroke-opacity:0.9;stroke-width:0.644302;"/>
   </g>
   <g id="PathCollection_2"/>
   <g id="PathCollection_3"/>
   <g id="PathCollection_4"/>
   <g id="PathCollection_5"/>
   <g id="PathCollection_6"/>
   <g id="PathCollection_7"/>
   <g id="PathCollection_8"/>
   <g id="PathCollection_9"/>
   <g id="PathCollection_10"/>
   <g id="PathCollection_11"/>
   <g id="patch_3">
    <path d="M 108 504 
L 108 69.12 
" style="fill:none;stroke:#ffffff;stroke-linecap:square;stroke-linejoin:miter;stroke-width:1.25;"/>
   </g>
   <g id="patch_4">
    <path d="M 777.6 504 
L 777.6 69.12 
" style="fill:none;stroke:#ffffff;stroke-linecap:square;stroke-linejoin:miter;stroke-width:1.25;"/>
   </g>
   <g id="patch_5">
    <path d="M 108 504 
L 777.6 504 
" style="fill:none;stroke:#ffffff;stroke-linecap:square;stroke-linejoin:miter;stroke-width:1.25;"/>
   </g>
   <g id="patch_6">
    <path d="M 108 69.12 
L 777.6 69.12 
" style="fill:none;stroke:#ffffff;stroke-linecap:square;stroke-linejoin:miter;stroke-width:1.25;"/>
   </g>
   <g id="text_18">
    <!-- UMAP - Zou - Indel - Subpathway_KO - all -->
    <g style="fill:#262626;" transform="translate(329.865938 63.12)scale(0.12 -0.12)">
     <defs>
      <path d="M 3500 4581 
L 4106 4581 
L 4106 1934 
Q 4106 1244 3950 837 
Q 3794 431 3386 176 
Q 2978 -78 2316 -78 
Q 1672 -78 1262 144 
Q 853 366 678 786 
Q 503 1206 503 1934 
L 503 4581 
L 1109 4581 
L 1109 1938 
Q 1109 1341 1220 1058 
Q 1331 775 1601 622 
Q 1872 469 2263 469 
Q 2931 469 3215 772 
Q 3500 1075 3500 1938 
L 3500 4581 
z
" id="ArialMT-55" transform="scale(0.015625)"/>
      <path d="M 475 0 
L 475 4581 
L 1388 4581 
L 2472 1338 
Q 2622 884 2691 659 
Q 2769 909 2934 1394 
L 4031 4581 
L 4847 4581 
L 4847 0 
L 4263 0 
L 4263 3834 
L 2931 0 
L 2384 0 
L 1059 3900 
L 1059 0 
L 475 0 
z
" id="ArialMT-4d" transform="scale(0.015625)"/>
      <path d="M -9 0 
L 1750 4581 
L 2403 4581 
L 4278 0 
L 3588 0 
L 3053 1388 
L 1138 1388 
L 634 0 
L -9 0 
z
M 1313 1881 
L 2866 1881 
L 2388 3150 
Q 2169 3728 2063 4100 
Q 1975 3659 1816 3225 
L 1313 1881 
z
" id="ArialMT-41" transform="scale(0.015625)"/>
      <path d="M 494 0 
L 494 4581 
L 2222 4581 
Q 2678 4581 2919 4538 
Q 3256 4481 3484 4323 
Q 3713 4166 3852 3881 
Q 3991 3597 3991 3256 
Q 3991 2672 3619 2267 
Q 3247 1863 2275 1863 
L 1100 1863 
L 1100 0 
L 494 0 
z
M 1100 2403 
L 2284 2403 
Q 2872 2403 3119 2622 
Q 3366 2841 3366 3238 
Q 3366 3525 3220 3729 
Q 3075 3934 2838 4000 
Q 2684 4041 2272 4041 
L 1100 4041 
L 1100 2403 
z
" id="ArialMT-50" transform="scale(0.015625)"/>
      <path d="M 203 1375 
L 203 1941 
L 1931 1941 
L 1931 1375 
L 203 1375 
z
" id="ArialMT-2d" transform="scale(0.015625)"/>
      <path d="M 128 0 
L 128 563 
L 2475 3497 
Q 2725 3809 2950 4041 
L 394 4041 
L 394 4581 
L 3675 4581 
L 3675 4041 
L 1103 863 
L 825 541 
L 3750 541 
L 3750 0 
L 128 0 
z
" id="ArialMT-5a" transform="scale(0.015625)"/>
      <path d="M 213 1659 
Q 213 2581 725 3025 
Q 1153 3394 1769 3394 
Q 2453 3394 2887 2945 
Q 3322 2497 3322 1706 
Q 3322 1066 3130 698 
Q 2938 331 2570 128 
Q 2203 -75 1769 -75 
Q 1072 -75 642 372 
Q 213 819 213 1659 
z
M 791 1659 
Q 791 1022 1069 705 
Q 1347 388 1769 388 
Q 2188 388 2466 706 
Q 2744 1025 2744 1678 
Q 2744 2294 2464 2611 
Q 2184 2928 1769 2928 
Q 1347 2928 1069 2612 
Q 791 2297 791 1659 
z
" id="ArialMT-6f" transform="scale(0.015625)"/>
      <path d="M 2597 0 
L 2597 488 
Q 2209 -75 1544 -75 
Q 1250 -75 995 37 
Q 741 150 617 320 
Q 494 491 444 738 
Q 409 903 409 1263 
L 409 3319 
L 972 3319 
L 972 1478 
Q 972 1038 1006 884 
Q 1059 663 1231 536 
Q 1403 409 1656 409 
Q 1909 409 2131 539 
Q 2353 669 2445 892 
Q 2538 1116 2538 1541 
L 2538 3319 
L 3100 3319 
L 3100 0 
L 2597 0 
z
" id="ArialMT-75" transform="scale(0.015625)"/>
      <path d="M 597 0 
L 597 4581 
L 1203 4581 
L 1203 0 
L 597 0 
z
" id="ArialMT-49" transform="scale(0.015625)"/>
      <path d="M 422 0 
L 422 3319 
L 928 3319 
L 928 2847 
Q 1294 3394 1984 3394 
Q 2284 3394 2536 3286 
Q 2788 3178 2913 3003 
Q 3038 2828 3088 2588 
Q 3119 2431 3119 2041 
L 3119 0 
L 2556 0 
L 2556 2019 
Q 2556 2363 2490 2533 
Q 2425 2703 2258 2804 
Q 2091 2906 1866 2906 
Q 1506 2906 1245 2678 
Q 984 2450 984 1813 
L 984 0 
L 422 0 
z
" id="ArialMT-6e" transform="scale(0.015625)"/>
      <path d="M 2575 0 
L 2575 419 
Q 2259 -75 1647 -75 
Q 1250 -75 917 144 
Q 584 363 401 755 
Q 219 1147 219 1656 
Q 219 2153 384 2558 
Q 550 2963 881 3178 
Q 1213 3394 1622 3394 
Q 1922 3394 2156 3267 
Q 2391 3141 2538 2938 
L 2538 4581 
L 3097 4581 
L 3097 0 
L 2575 0 
z
M 797 1656 
Q 797 1019 1065 703 
Q 1334 388 1700 388 
Q 2069 388 2326 689 
Q 2584 991 2584 1609 
Q 2584 2291 2321 2609 
Q 2059 2928 1675 2928 
Q 1300 2928 1048 2622 
Q 797 2316 797 1656 
z
" id="ArialMT-64" transform="scale(0.015625)"/>
      <path d="M 2694 1069 
L 3275 997 
Q 3138 488 2766 206 
Q 2394 -75 1816 -75 
Q 1088 -75 661 373 
Q 234 822 234 1631 
Q 234 2469 665 2931 
Q 1097 3394 1784 3394 
Q 2450 3394 2872 2941 
Q 3294 2488 3294 1666 
Q 3294 1616 3291 1516 
L 816 1516 
Q 847 969 1125 678 
Q 1403 388 1819 388 
Q 2128 388 2347 550 
Q 2566 713 2694 1069 
z
M 847 1978 
L 2700 1978 
Q 2663 2397 2488 2606 
Q 2219 2931 1791 2931 
Q 1403 2931 1139 2672 
Q 875 2413 847 1978 
z
" id="ArialMT-65" transform="scale(0.015625)"/>
      <path d="M 409 0 
L 409 4581 
L 972 4581 
L 972 0 
L 409 0 
z
" id="ArialMT-6c" transform="scale(0.015625)"/>
      <path d="M 288 1472 
L 859 1522 
Q 900 1178 1048 958 
Q 1197 738 1509 602 
Q 1822 466 2213 466 
Q 2559 466 2825 569 
Q 3091 672 3220 851 
Q 3350 1031 3350 1244 
Q 3350 1459 3225 1620 
Q 3100 1781 2813 1891 
Q 2628 1963 1997 2114 
Q 1366 2266 1113 2400 
Q 784 2572 623 2826 
Q 463 3081 463 3397 
Q 463 3744 659 4045 
Q 856 4347 1234 4503 
Q 1613 4659 2075 4659 
Q 2584 4659 2973 4495 
Q 3363 4331 3572 4012 
Q 3781 3694 3797 3291 
L 3216 3247 
Q 3169 3681 2898 3903 
Q 2628 4125 2100 4125 
Q 1550 4125 1298 3923 
Q 1047 3722 1047 3438 
Q 1047 3191 1225 3031 
Q 1400 2872 2139 2705 
Q 2878 2538 3153 2413 
Q 3553 2228 3743 1945 
Q 3934 1663 3934 1294 
Q 3934 928 3725 604 
Q 3516 281 3123 101 
Q 2731 -78 2241 -78 
Q 1619 -78 1198 103 
Q 778 284 539 648 
Q 300 1013 288 1472 
z
" id="ArialMT-53" transform="scale(0.015625)"/>
      <path d="M 941 0 
L 419 0 
L 419 4581 
L 981 4581 
L 981 2947 
Q 1338 3394 1891 3394 
Q 2197 3394 2470 3270 
Q 2744 3147 2920 2923 
Q 3097 2700 3197 2384 
Q 3297 2069 3297 1709 
Q 3297 856 2875 390 
Q 2453 -75 1863 -75 
Q 1275 -75 941 416 
L 941 0 
z
M 934 1684 
Q 934 1088 1097 822 
Q 1363 388 1816 388 
Q 2184 388 2453 708 
Q 2722 1028 2722 1663 
Q 2722 2313 2464 2622 
Q 2206 2931 1841 2931 
Q 1472 2931 1203 2611 
Q 934 2291 934 1684 
z
" id="ArialMT-62" transform="scale(0.015625)"/>
      <path d="M 422 -1272 
L 422 3319 
L 934 3319 
L 934 2888 
Q 1116 3141 1344 3267 
Q 1572 3394 1897 3394 
Q 2322 3394 2647 3175 
Q 2972 2956 3137 2557 
Q 3303 2159 3303 1684 
Q 3303 1175 3120 767 
Q 2938 359 2589 142 
Q 2241 -75 1856 -75 
Q 1575 -75 1351 44 
Q 1128 163 984 344 
L 984 -1272 
L 422 -1272 
z
M 931 1641 
Q 931 1000 1190 694 
Q 1450 388 1819 388 
Q 2194 388 2461 705 
Q 2728 1022 2728 1688 
Q 2728 2322 2467 2637 
Q 2206 2953 1844 2953 
Q 1484 2953 1207 2617 
Q 931 2281 931 1641 
z
" id="ArialMT-70" transform="scale(0.015625)"/>
      <path d="M 1650 503 
L 1731 6 
Q 1494 -44 1306 -44 
Q 1000 -44 831 53 
Q 663 150 594 308 
Q 525 466 525 972 
L 525 2881 
L 113 2881 
L 113 3319 
L 525 3319 
L 525 4141 
L 1084 4478 
L 1084 3319 
L 1650 3319 
L 1650 2881 
L 1084 2881 
L 1084 941 
Q 1084 700 1114 631 
Q 1144 563 1211 522 
Q 1278 481 1403 481 
Q 1497 481 1650 503 
z
" id="ArialMT-74" transform="scale(0.015625)"/>
      <path d="M 422 0 
L 422 4581 
L 984 4581 
L 984 2938 
Q 1378 3394 1978 3394 
Q 2347 3394 2619 3248 
Q 2891 3103 3008 2847 
Q 3125 2591 3125 2103 
L 3125 0 
L 2563 0 
L 2563 2103 
Q 2563 2525 2380 2717 
Q 2197 2909 1863 2909 
Q 1613 2909 1392 2779 
Q 1172 2650 1078 2428 
Q 984 2206 984 1816 
L 984 0 
L 422 0 
z
" id="ArialMT-68" transform="scale(0.015625)"/>
      <path d="M 1034 0 
L 19 3319 
L 600 3319 
L 1128 1403 
L 1325 691 
Q 1338 744 1497 1375 
L 2025 3319 
L 2603 3319 
L 3100 1394 
L 3266 759 
L 3456 1400 
L 4025 3319 
L 4572 3319 
L 3534 0 
L 2950 0 
L 2422 1988 
L 2294 2553 
L 1622 0 
L 1034 0 
z
" id="ArialMT-77" transform="scale(0.015625)"/>
      <path d="M 397 -1278 
L 334 -750 
Q 519 -800 656 -800 
Q 844 -800 956 -737 
Q 1069 -675 1141 -563 
Q 1194 -478 1313 -144 
Q 1328 -97 1363 -6 
L 103 3319 
L 709 3319 
L 1400 1397 
Q 1534 1031 1641 628 
Q 1738 1016 1872 1384 
L 2581 3319 
L 3144 3319 
L 1881 -56 
Q 1678 -603 1566 -809 
Q 1416 -1088 1222 -1217 
Q 1028 -1347 759 -1347 
Q 597 -1347 397 -1278 
z
" id="ArialMT-79" transform="scale(0.015625)"/>
      <path d="M -97 -1272 
L -97 -866 
L 3631 -866 
L 3631 -1272 
L -97 -1272 
z
" id="ArialMT-5f" transform="scale(0.015625)"/>
      <path d="M 469 0 
L 469 4581 
L 1075 4581 
L 1075 2309 
L 3350 4581 
L 4172 4581 
L 2250 2725 
L 4256 0 
L 3456 0 
L 1825 2319 
L 1075 1588 
L 1075 0 
L 469 0 
z
" id="ArialMT-4b" transform="scale(0.015625)"/>
      <path d="M 309 2231 
Q 309 3372 921 4017 
Q 1534 4663 2503 4663 
Q 3138 4663 3647 4359 
Q 4156 4056 4423 3514 
Q 4691 2972 4691 2284 
Q 4691 1588 4409 1038 
Q 4128 488 3612 205 
Q 3097 -78 2500 -78 
Q 1853 -78 1343 234 
Q 834 547 571 1087 
Q 309 1628 309 2231 
z
M 934 2222 
Q 934 1394 1379 917 
Q 1825 441 2497 441 
Q 3181 441 3623 922 
Q 4066 1403 4066 2288 
Q 4066 2847 3877 3264 
Q 3688 3681 3323 3911 
Q 2959 4141 2506 4141 
Q 1863 4141 1398 3698 
Q 934 3256 934 2222 
z
" id="ArialMT-4f" transform="scale(0.015625)"/>
     </defs>
     <use xlink:href="#ArialMT-55"/>
     <use x="72.216797" xlink:href="#ArialMT-4d"/>
     <use x="155.517578" xlink:href="#ArialMT-41"/>
     <use x="222.216797" xlink:href="#ArialMT-50"/>
     <use x="287.166016" xlink:href="#ArialMT-20"/>
     <use x="314.949219" xlink:href="#ArialMT-2d"/>
     <use x="348.25" xlink:href="#ArialMT-20"/>
     <use x="376.033203" xlink:href="#ArialMT-5a"/>
     <use x="437.117188" xlink:href="#ArialMT-6f"/>
     <use x="492.732422" xlink:href="#ArialMT-75"/>
     <use x="548.347656" xlink:href="#ArialMT-20"/>
     <use x="576.130859" xlink:href="#ArialMT-2d"/>
     <use x="609.431641" xlink:href="#ArialMT-20"/>
     <use x="637.214844" xlink:href="#ArialMT-49"/>
     <use x="664.998047" xlink:href="#ArialMT-6e"/>
     <use x="720.613281" xlink:href="#ArialMT-64"/>
     <use x="776.228516" xlink:href="#ArialMT-65"/>
     <use x="831.84375" xlink:href="#ArialMT-6c"/>
     <use x="854.060547" xlink:href="#ArialMT-20"/>
     <use x="881.84375" xlink:href="#ArialMT-2d"/>
     <use x="915.144531" xlink:href="#ArialMT-20"/>
     <use x="942.927734" xlink:href="#ArialMT-53"/>
     <use x="1009.626953" xlink:href="#ArialMT-75"/>
     <use x="1065.242188" xlink:href="#ArialMT-62"/>
     <use x="1120.857422" xlink:href="#ArialMT-70"/>
     <use x="1176.472656" xlink:href="#ArialMT-61"/>
     <use x="1232.087891" xlink:href="#ArialMT-74"/>
     <use x="1259.871094" xlink:href="#ArialMT-68"/>
     <use x="1315.486328" xlink:href="#ArialMT-77"/>
     <use x="1387.703125" xlink:href="#ArialMT-61"/>
     <use x="1443.318359" xlink:href="#ArialMT-79"/>
     <use x="1493.318359" xlink:href="#ArialMT-5f"/>
     <use x="1548.933594" xlink:href="#ArialMT-4b"/>
     <use x="1615.632812" xlink:href="#ArialMT-4f"/>
     <use x="1693.416016" xlink:href="#ArialMT-20"/>
     <use x="1721.199219" xlink:href="#ArialMT-2d"/>
     <use x="1754.5" xlink:href="#ArialMT-20"/>
     <use x="1782.283203" xlink:href="#ArialMT-61"/>
     <use x="1837.898438" xlink:href="#ArialMT-6c"/>
     <use x="1860.115234" xlink:href="#ArialMT-6c"/>
    </g>
   </g>
   <g id="legend_1">
    <g id="patch_7">
     <path d="M 813.28 259.670938 
L 960.360312 259.670938 
Q 962.560313 259.670938 962.560313 257.470938 
L 962.560313 71.32 
Q 962.560313 69.12 960.360312 69.12 
L 813.28 69.12 
Q 811.08 69.12 811.08 71.32 
L 811.08 257.470938 
Q 811.08 259.670938 813.28 259.670938 
z
" style="fill:#eaeaf2;opacity:0.8;stroke:#cccccc;stroke-linejoin:miter;"/>
    </g>
    <g id="text_19">
     <!-- Subpathway_KO -->
     <g style="fill:#262626;" transform="translate(846.28 81.534531)scale(0.11 -0.11)">
      <use xlink:href="#ArialMT-53"/>
      <use x="66.699219" xlink:href="#ArialMT-75"/>
      <use x="122.314453" xlink:href="#ArialMT-62"/>
      <use x="177.929688" xlink:href="#ArialMT-70"/>
      <use x="233.544922" xlink:href="#ArialMT-61"/>
      <use x="289.160156" xlink:href="#ArialMT-74"/>
      <use x="316.943359" xlink:href="#ArialMT-68"/>
      <use x="372.558594" xlink:href="#ArialMT-77"/>
      <use x="444.775391" xlink:href="#ArialMT-61"/>
      <use x="500.390625" xlink:href="#ArialMT-79"/>
      <use x="550.390625" xlink:href="#ArialMT-5f"/>
      <use x="606.005859" xlink:href="#ArialMT-4b"/>
      <use x="672.705078" xlink:href="#ArialMT-4f"/>
     </g>
    </g>
    <g id="PathCollection_12">
     <defs>
      <path d="M 0 3 
C 0.795609 3 1.55874 2.683901 2.12132 2.12132 
C 2.683901 1.55874 3 0.795609 3 0 
C 3 -0.795609 2.683901 -1.55874 2.12132 -2.12132 
C 1.55874 -2.683901 0.795609 -3 0 -3 
C -0.795609 -3 -1.55874 -2.683901 -2.12132 -2.12132 
C -2.683901 -1.55874 -3 -0.795609 -3 0 
C -3 0.795609 -2.683901 1.55874 -2.12132 2.12132 
C -1.55874 2.683901 -0.795609 3 0 3 
z
" id="m7c27655562" style="stroke:#023eff;"/>
     </defs>
     <g>
      <use style="fill:#023eff;stroke:#023eff;" x="826.48" xlink:href="#m7c27655562" y="94.335781"/>
     </g>
    </g>
    <g id="text_20">
     <!-- HR and HR regulation -->
     <g style="fill:#262626;" transform="translate(846.28 97.223281)scale(0.11 -0.11)">
      <defs>
       <path d="M 513 0 
L 513 4581 
L 1119 4581 
L 1119 2700 
L 3500 2700 
L 3500 4581 
L 4106 4581 
L 4106 0 
L 3500 0 
L 3500 2159 
L 1119 2159 
L 1119 0 
L 513 0 
z
" id="ArialMT-48" transform="scale(0.015625)"/>
       <path d="M 503 0 
L 503 4581 
L 2534 4581 
Q 3147 4581 3465 4457 
Q 3784 4334 3975 4021 
Q 4166 3709 4166 3331 
Q 4166 2844 3850 2509 
Q 3534 2175 2875 2084 
Q 3116 1969 3241 1856 
Q 3506 1613 3744 1247 
L 4541 0 
L 3778 0 
L 3172 953 
Q 2906 1366 2734 1584 
Q 2563 1803 2427 1890 
Q 2291 1978 2150 2013 
Q 2047 2034 1813 2034 
L 1109 2034 
L 1109 0 
L 503 0 
z
M 1109 2559 
L 2413 2559 
Q 2828 2559 3062 2645 
Q 3297 2731 3419 2920 
Q 3541 3109 3541 3331 
Q 3541 3656 3305 3865 
Q 3069 4075 2559 4075 
L 1109 4075 
L 1109 2559 
z
" id="ArialMT-52" transform="scale(0.015625)"/>
       <path d="M 416 0 
L 416 3319 
L 922 3319 
L 922 2816 
Q 1116 3169 1280 3281 
Q 1444 3394 1641 3394 
Q 1925 3394 2219 3213 
L 2025 2691 
Q 1819 2813 1613 2813 
Q 1428 2813 1281 2702 
Q 1134 2591 1072 2394 
Q 978 2094 978 1738 
L 978 0 
L 416 0 
z
" id="ArialMT-72" transform="scale(0.015625)"/>
       <path d="M 319 -275 
L 866 -356 
Q 900 -609 1056 -725 
Q 1266 -881 1628 -881 
Q 2019 -881 2231 -725 
Q 2444 -569 2519 -288 
Q 2563 -116 2559 434 
Q 2191 0 1641 0 
Q 956 0 581 494 
Q 206 988 206 1678 
Q 206 2153 378 2554 
Q 550 2956 876 3175 
Q 1203 3394 1644 3394 
Q 2231 3394 2613 2919 
L 2613 3319 
L 3131 3319 
L 3131 450 
Q 3131 -325 2973 -648 
Q 2816 -972 2473 -1159 
Q 2131 -1347 1631 -1347 
Q 1038 -1347 672 -1080 
Q 306 -813 319 -275 
z
M 784 1719 
Q 784 1066 1043 766 
Q 1303 466 1694 466 
Q 2081 466 2343 764 
Q 2606 1063 2606 1700 
Q 2606 2309 2336 2618 
Q 2066 2928 1684 2928 
Q 1309 2928 1046 2623 
Q 784 2319 784 1719 
z
" id="ArialMT-67" transform="scale(0.015625)"/>
      </defs>
      <use xlink:href="#ArialMT-48"/>
      <use x="72.216797" xlink:href="#ArialMT-52"/>
      <use x="144.433594" xlink:href="#ArialMT-20"/>
      <use x="172.216797" xlink:href="#ArialMT-61"/>
      <use x="227.832031" xlink:href="#ArialMT-6e"/>
      <use x="283.447266" xlink:href="#ArialMT-64"/>
      <use x="339.0625" xlink:href="#ArialMT-20"/>
      <use x="366.845703" xlink:href="#ArialMT-48"/>
      <use x="439.0625" xlink:href="#ArialMT-52"/>
      <use x="511.279297" xlink:href="#ArialMT-20"/>
      <use x="539.0625" xlink:href="#ArialMT-72"/>
      <use x="572.363281" xlink:href="#ArialMT-65"/>
      <use x="627.978516" xlink:href="#ArialMT-67"/>
      <use x="683.59375" xlink:href="#ArialMT-75"/>
      <use x="739.208984" xlink:href="#ArialMT-6c"/>
      <use x="761.425781" xlink:href="#ArialMT-61"/>
      <use x="817.041016" xlink:href="#ArialMT-74"/>
      <use x="844.824219" xlink:href="#ArialMT-69"/>
      <use x="867.041016" xlink:href="#ArialMT-6f"/>
      <use x="922.65625" xlink:href="#ArialMT-6e"/>
     </g>
    </g>
    <g id="PathCollection_13">
     <defs>
      <path d="M 0 3 
C 0.795609 3 1.55874 2.683901 2.12132 2.12132 
C 2.683901 1.55874 3 0.795609 3 0 
C 3 -0.795609 2.683901 -1.55874 2.12132 -2.12132 
C 1.55874 -2.683901 0.795609 -3 0 -3 
C -0.795609 -3 -1.55874 -2.683901 -2.12132 -2.12132 
C -2.683901 -1.55874 -3 -0.795609 -3 0 
C -3 0.795609 -2.683901 1.55874 -2.12132 2.12132 
C -1.55874 2.683901 -0.795609 3 0 3 
z
" id="mb0ee6a91f7" style="stroke:#ff7c00;"/>
     </defs>
     <g>
      <use style="fill:#ff7c00;stroke:#ff7c00;" x="826.48" xlink:href="#mb0ee6a91f7" y="110.024531"/>
     </g>
    </g>
    <g id="text_21">
     <!-- BER -->
     <g style="fill:#262626;" transform="translate(846.28 112.912031)scale(0.11 -0.11)">
      <defs>
       <path d="M 469 0 
L 469 4581 
L 2188 4581 
Q 2713 4581 3030 4442 
Q 3347 4303 3526 4014 
Q 3706 3725 3706 3409 
Q 3706 3116 3547 2856 
Q 3388 2597 3066 2438 
Q 3481 2316 3704 2022 
Q 3928 1728 3928 1328 
Q 3928 1006 3792 729 
Q 3656 453 3456 303 
Q 3256 153 2954 76 
Q 2653 0 2216 0 
L 469 0 
z
M 1075 2656 
L 2066 2656 
Q 2469 2656 2644 2709 
Q 2875 2778 2992 2937 
Q 3109 3097 3109 3338 
Q 3109 3566 3000 3739 
Q 2891 3913 2687 3977 
Q 2484 4041 1991 4041 
L 1075 4041 
L 1075 2656 
z
M 1075 541 
L 2216 541 
Q 2509 541 2628 563 
Q 2838 600 2978 687 
Q 3119 775 3209 942 
Q 3300 1109 3300 1328 
Q 3300 1584 3169 1773 
Q 3038 1963 2805 2039 
Q 2572 2116 2134 2116 
L 1075 2116 
L 1075 541 
z
" id="ArialMT-42" transform="scale(0.015625)"/>
       <path d="M 506 0 
L 506 4581 
L 3819 4581 
L 3819 4041 
L 1113 4041 
L 1113 2638 
L 3647 2638 
L 3647 2100 
L 1113 2100 
L 1113 541 
L 3925 541 
L 3925 0 
L 506 0 
z
" id="ArialMT-45" transform="scale(0.015625)"/>
      </defs>
      <use xlink:href="#ArialMT-42"/>
      <use x="66.699219" xlink:href="#ArialMT-45"/>
      <use x="133.398438" xlink:href="#ArialMT-52"/>
     </g>
    </g>
    <g id="PathCollection_14">
     <defs>
      <path d="M 0 3 
C 0.795609 3 1.55874 2.683901 2.12132 2.12132 
C 2.683901 1.55874 3 0.795609 3 0 
C 3 -0.795609 2.683901 -1.55874 2.12132 -2.12132 
C 1.55874 -2.683901 0.795609 -3 0 -3 
C -0.795609 -3 -1.55874 -2.683901 -2.12132 -2.12132 
C -2.683901 -1.55874 -3 -0.795609 -3 0 
C -3 0.795609 -2.683901 1.55874 -2.12132 2.12132 
C -1.55874 2.683901 -0.795609 3 0 3 
z
" id="m48b3c2c237" style="stroke:#1ac938;"/>
     </defs>
     <g>
      <use style="fill:#1ac938;stroke:#1ac938;" x="826.48" xlink:href="#m48b3c2c237" y="125.718438"/>
     </g>
    </g>
    <g id="text_22">
     <!-- Checkpoint/DSB repair -->
     <g style="fill:#262626;" transform="translate(846.28 128.605938)scale(0.11 -0.11)">
      <defs>
       <path d="M 3763 1606 
L 4369 1453 
Q 4178 706 3683 314 
Q 3188 -78 2472 -78 
Q 1731 -78 1267 223 
Q 803 525 561 1097 
Q 319 1669 319 2325 
Q 319 3041 592 3573 
Q 866 4106 1370 4382 
Q 1875 4659 2481 4659 
Q 3169 4659 3637 4309 
Q 4106 3959 4291 3325 
L 3694 3184 
Q 3534 3684 3231 3912 
Q 2928 4141 2469 4141 
Q 1941 4141 1586 3887 
Q 1231 3634 1087 3207 
Q 944 2781 944 2328 
Q 944 1744 1114 1308 
Q 1284 872 1643 656 
Q 2003 441 2422 441 
Q 2931 441 3284 734 
Q 3638 1028 3763 1606 
z
" id="ArialMT-43" transform="scale(0.015625)"/>
       <path d="M 2588 1216 
L 3141 1144 
Q 3050 572 2676 248 
Q 2303 -75 1759 -75 
Q 1078 -75 664 370 
Q 250 816 250 1647 
Q 250 2184 428 2587 
Q 606 2991 970 3192 
Q 1334 3394 1763 3394 
Q 2303 3394 2647 3120 
Q 2991 2847 3088 2344 
L 2541 2259 
Q 2463 2594 2264 2762 
Q 2066 2931 1784 2931 
Q 1359 2931 1093 2626 
Q 828 2322 828 1663 
Q 828 994 1084 691 
Q 1341 388 1753 388 
Q 2084 388 2306 591 
Q 2528 794 2588 1216 
z
" id="ArialMT-63" transform="scale(0.015625)"/>
       <path d="M 425 0 
L 425 4581 
L 988 4581 
L 988 1969 
L 2319 3319 
L 3047 3319 
L 1778 2088 
L 3175 0 
L 2481 0 
L 1384 1697 
L 988 1316 
L 988 0 
L 425 0 
z
" id="ArialMT-6b" transform="scale(0.015625)"/>
       <path d="M 0 -78 
L 1328 4659 
L 1778 4659 
L 453 -78 
L 0 -78 
z
" id="ArialMT-2f" transform="scale(0.015625)"/>
       <path d="M 494 0 
L 494 4581 
L 2072 4581 
Q 2606 4581 2888 4516 
Q 3281 4425 3559 4188 
Q 3922 3881 4101 3404 
Q 4281 2928 4281 2316 
Q 4281 1794 4159 1391 
Q 4038 988 3847 723 
Q 3656 459 3429 307 
Q 3203 156 2883 78 
Q 2563 0 2147 0 
L 494 0 
z
M 1100 541 
L 2078 541 
Q 2531 541 2789 625 
Q 3047 709 3200 863 
Q 3416 1078 3536 1442 
Q 3656 1806 3656 2325 
Q 3656 3044 3420 3430 
Q 3184 3816 2847 3947 
Q 2603 4041 2063 4041 
L 1100 4041 
L 1100 541 
z
" id="ArialMT-44" transform="scale(0.015625)"/>
      </defs>
      <use xlink:href="#ArialMT-43"/>
      <use x="72.216797" xlink:href="#ArialMT-68"/>
      <use x="127.832031" xlink:href="#ArialMT-65"/>
      <use x="183.447266" xlink:href="#ArialMT-63"/>
      <use x="233.447266" xlink:href="#ArialMT-6b"/>
      <use x="283.447266" xlink:href="#ArialMT-70"/>
      <use x="339.0625" xlink:href="#ArialMT-6f"/>
      <use x="394.677734" xlink:href="#ArialMT-69"/>
      <use x="416.894531" xlink:href="#ArialMT-6e"/>
      <use x="472.509766" xlink:href="#ArialMT-74"/>
      <use x="500.292969" xlink:href="#ArialMT-2f"/>
      <use x="528.076172" xlink:href="#ArialMT-44"/>
      <use x="600.292969" xlink:href="#ArialMT-53"/>
      <use x="666.992188" xlink:href="#ArialMT-42"/>
      <use x="733.691406" xlink:href="#ArialMT-20"/>
      <use x="761.474609" xlink:href="#ArialMT-72"/>
      <use x="794.775391" xlink:href="#ArialMT-65"/>
      <use x="850.390625" xlink:href="#ArialMT-70"/>
      <use x="906.005859" xlink:href="#ArialMT-61"/>
      <use x="961.621094" xlink:href="#ArialMT-69"/>
      <use x="983.837891" xlink:href="#ArialMT-72"/>
     </g>
    </g>
    <g id="PathCollection_15">
     <defs>
      <path d="M 0 3 
C 0.795609 3 1.55874 2.683901 2.12132 2.12132 
C 2.683901 1.55874 3 0.795609 3 0 
C 3 -0.795609 2.683901 -1.55874 2.12132 -2.12132 
C 1.55874 -2.683901 0.795609 -3 0 -3 
C -0.795609 -3 -1.55874 -2.683901 -2.12132 -2.12132 
C -2.683901 -1.55874 -3 -0.795609 -3 0 
C -3 0.795609 -2.683901 1.55874 -2.12132 2.12132 
C -1.55874 2.683901 -0.795609 3 0 3 
z
" id="md0e76f5203" style="stroke:#e8000b;"/>
     </defs>
     <g>
      <use style="fill:#e8000b;stroke:#e8000b;" x="826.48" xlink:href="#md0e76f5203" y="141.278281"/>
     </g>
    </g>
    <g id="text_23">
     <!-- Control -->
     <g style="fill:#262626;" transform="translate(846.28 144.165781)scale(0.11 -0.11)">
      <use xlink:href="#ArialMT-43"/>
      <use x="72.216797" xlink:href="#ArialMT-6f"/>
      <use x="127.832031" xlink:href="#ArialMT-6e"/>
      <use x="183.447266" xlink:href="#ArialMT-74"/>
      <use x="211.230469" xlink:href="#ArialMT-72"/>
      <use x="244.53125" xlink:href="#ArialMT-6f"/>
      <use x="300.146484" xlink:href="#ArialMT-6c"/>
     </g>
    </g>
    <g id="PathCollection_16">
     <defs>
      <path d="M 0 3 
C 0.795609 3 1.55874 2.683901 2.12132 2.12132 
C 2.683901 1.55874 3 0.795609 3 0 
C 3 -0.795609 2.683901 -1.55874 2.12132 -2.12132 
C 1.55874 -2.683901 0.795609 -3 0 -3 
C -0.795609 -3 -1.55874 -2.683901 -2.12132 -2.12132 
C -2.683901 -1.55874 -3 -0.795609 -3 0 
C -3 0.795609 -2.683901 1.55874 -2.12132 2.12132 
C -1.55874 2.683901 -0.795609 3 0 3 
z
" id="m4445441ed7" style="stroke:#8b2be2;"/>
     </defs>
     <g>
      <use style="fill:#8b2be2;stroke:#8b2be2;" x="826.48" xlink:href="#m4445441ed7" y="156.838125"/>
     </g>
    </g>
    <g id="text_24">
     <!-- MMR -->
     <g style="fill:#262626;" transform="translate(846.28 159.725625)scale(0.11 -0.11)">
      <use xlink:href="#ArialMT-4d"/>
      <use x="83.300781" xlink:href="#ArialMT-4d"/>
      <use x="166.601562" xlink:href="#ArialMT-52"/>
     </g>
    </g>
    <g id="text_25">
     <!-- Count -->
     <g style="fill:#262626;" transform="translate(846.28 175.285469)scale(0.11 -0.11)">
      <use xlink:href="#ArialMT-43"/>
      <use x="72.216797" xlink:href="#ArialMT-6f"/>
      <use x="127.832031" xlink:href="#ArialMT-75"/>
      <use x="183.447266" xlink:href="#ArialMT-6e"/>
      <use x="239.0625" xlink:href="#ArialMT-74"/>
     </g>
    </g>
    <g id="PathCollection_17">
     <defs>
      <path d="M 0 5.193908 
C 1.377441 5.193908 2.69865 4.646645 3.672648 3.672648 
C 4.646645 2.69865 5.193908 1.377441 5.193908 0 
C 5.193908 -1.377441 4.646645 -2.69865 3.672648 -3.672648 
C 2.69865 -4.646645 1.377441 -5.193908 0 -5.193908 
C -1.377441 -5.193908 -2.69865 -4.646645 -3.672648 -3.672648 
C -4.646645 -2.69865 -5.193908 -1.377441 -5.193908 0 
C -5.193908 1.377441 -4.646645 2.69865 -3.672648 3.672648 
C -2.69865 4.646645 -1.377441 5.193908 0 5.193908 
z
" id="m2dd77bf0f0" style="stroke:#333333;"/>
     </defs>
     <g>
      <use style="fill:#333333;stroke:#333333;" x="826.48" xlink:href="#m2dd77bf0f0" y="187.957813"/>
     </g>
    </g>
    <g id="text_26">
     <!-- 500 -->
     <g style="fill:#262626;" transform="translate(846.28 190.845313)scale(0.11 -0.11)">
      <use xlink:href="#ArialMT-35"/>
      <use x="55.615234" xlink:href="#ArialMT-30"/>
      <use x="111.230469" xlink:href="#ArialMT-30"/>
     </g>
    </g>
    <g id="PathCollection_18">
     <defs>
      <path d="M 0 6.833717 
C 1.812323 6.833717 3.550662 6.113673 4.832167 4.832167 
C 6.113673 3.550662 6.833717 1.812323 6.833717 0 
C 6.833717 -1.812323 6.113673 -3.550662 4.832167 -4.832167 
C 3.550662 -6.113673 1.812323 -6.833717 0 -6.833717 
C -1.812323 -6.833717 -3.550662 -6.113673 -4.832167 -4.832167 
C -6.113673 -3.550662 -6.833717 -1.812323 -6.833717 0 
C -6.833717 1.812323 -6.113673 3.550662 -4.832167 4.832167 
C -3.550662 6.113673 -1.812323 6.833717 0 6.833717 
z
" id="m601429637e" style="stroke:#333333;"/>
     </defs>
     <g>
      <use style="fill:#333333;stroke:#333333;" x="826.48" xlink:href="#m601429637e" y="203.517656"/>
     </g>
    </g>
    <g id="text_27">
     <!-- 1000 -->
     <g style="fill:#262626;" transform="translate(846.28 206.405156)scale(0.11 -0.11)">
      <use xlink:href="#ArialMT-31"/>
      <use x="55.615234" xlink:href="#ArialMT-30"/>
      <use x="111.230469" xlink:href="#ArialMT-30"/>
      <use x="166.845703" xlink:href="#ArialMT-30"/>
     </g>
    </g>
    <g id="PathCollection_19">
     <defs>
      <path d="M 0 8.150011 
C 2.161408 8.150011 4.234582 7.291275 5.762928 5.762928 
C 7.291275 4.234582 8.150011 2.161408 8.150011 0 
C 8.150011 -2.161408 7.291275 -4.234582 5.762928 -5.762928 
C 4.234582 -7.291275 2.161408 -8.150011 0 -8.150011 
C -2.161408 -8.150011 -4.234582 -7.291275 -5.762928 -5.762928 
C -7.291275 -4.234582 -8.150011 -2.161408 -8.150011 0 
C -8.150011 2.161408 -7.291275 4.234582 -5.762928 5.762928 
C -4.234582 7.291275 -2.161408 8.150011 0 8.150011 
z
" id="m96fe6fc8c3" style="stroke:#333333;"/>
     </defs>
     <g>
      <use style="fill:#333333;stroke:#333333;" x="826.48" xlink:href="#m96fe6fc8c3" y="219.0775"/>
     </g>
    </g>
    <g id="text_28">
     <!-- 1500 -->
     <g style="fill:#262626;" transform="translate(846.28 221.965)scale(0.11 -0.11)">
      <use xlink:href="#ArialMT-31"/>
      <use x="55.615234" xlink:href="#ArialMT-35"/>
      <use x="111.230469" xlink:href="#ArialMT-30"/>
      <use x="166.845703" xlink:href="#ArialMT-30"/>
     </g>
    </g>
    <g id="PathCollection_20">
     <defs>
      <path d="M 0 9.28147 
C 2.461475 9.28147 4.822465 8.303516 6.56299 6.56299 
C 8.303516 4.822465 9.28147 2.461475 9.28147 0 
C 9.28147 -2.461475 8.303516 -4.822465 6.56299 -6.56299 
C 4.822465 -8.303516 2.461475 -9.28147 0 -9.28147 
C -2.461475 -9.28147 -4.822465 -8.303516 -6.56299 -6.56299 
C -8.303516 -4.822465 -9.28147 -2.461475 -9.28147 0 
C -9.28147 2.461475 -8.303516 4.822465 -6.56299 6.56299 
C -4.822465 8.303516 -2.461475 9.28147 0 9.28147 
z
" id="m9c9003e4a4" style="stroke:#333333;"/>
     </defs>
     <g>
      <use style="fill:#333333;stroke:#333333;" x="826.48" xlink:href="#m9c9003e4a4" y="234.637344"/>
     </g>
    </g>
    <g id="text_29">
     <!-- 2000 -->
     <g style="fill:#262626;" transform="translate(846.28 237.524844)scale(0.11 -0.11)">
      <use xlink:href="#ArialMT-32"/>
      <use x="55.615234" xlink:href="#ArialMT-30"/>
      <use x="111.230469" xlink:href="#ArialMT-30"/>
      <use x="166.845703" xlink:href="#ArialMT-30"/>
     </g>
    </g>
    <g id="PathCollection_21">
     <defs>
      <path d="M 0 10.289251 
C 2.728741 10.289251 5.346088 9.205111 7.275599 7.275599 
C 9.205111 5.346088 10.289251 2.728741 10.289251 0 
C 10.289251 -2.728741 9.205111 -5.346088 7.275599 -7.275599 
C 5.346088 -9.205111 2.728741 -10.289251 0 -10.289251 
C -2.728741 -10.289251 -5.346088 -9.205111 -7.275599 -7.275599 
C -9.205111 -5.346088 -10.289251 -2.728741 -10.289251 0 
C -10.289251 2.728741 -9.205111 5.346088 -7.275599 7.275599 
C -5.346088 9.205111 -2.728741 10.289251 0 10.289251 
z
" id="m77894a40fe" style="stroke:#333333;"/>
     </defs>
     <g>
      <use style="fill:#333333;stroke:#333333;" x="826.48" xlink:href="#m77894a40fe" y="250.197188"/>
     </g>
    </g>
    <g id="text_30">
     <!-- 2500 -->
     <g style="fill:#262626;" transform="translate(846.28 253.084688)scale(0.11 -0.11)">
      <use xlink:href="#ArialMT-32"/>
      <use x="55.615234" xlink:href="#ArialMT-35"/>
      <use x="111.230469" xlink:href="#ArialMT-30"/>
      <use x="166.845703" xlink:href="#ArialMT-30"/>
     </g>
    </g>
   </g>
  </g>
 </g>
 <defs>
  <clipPath id="p09b028f7cd">
   <rect height="434.88" width="669.6" x="108" y="69.12"/>
  </clipPath>
 </defs>
</svg>
